<?xml version="1.0" encoding="utf-8" standalone="no"?>
<!DOCTYPE svg PUBLIC "-//W3C//DTD SVG 1.1//EN"
  "http://www.w3.org/Graphics/SVG/1.1/DTD/svg11.dtd">
<svg xmlns:xlink="http://www.w3.org/1999/xlink" width="576pt" height="432pt" viewBox="0 0 576 432" xmlns="http://www.w3.org/2000/svg" version="1.1">
 <metadata>
  <rdf:RDF xmlns:dc="http://purl.org/dc/elements/1.1/" xmlns:cc="http://creativecommons.org/ns#" xmlns:rdf="http://www.w3.org/1999/02/22-rdf-syntax-ns#">
   <cc:Work>
    <dc:type rdf:resource="http://purl.org/dc/dcmitype/StillImage"/>
    <dc:date>2024-11-01T18:53:50.689783</dc:date>
    <dc:format>image/svg+xml</dc:format>
    <dc:creator>
     <cc:Agent>
      <dc:title>Matplotlib v3.9.2, https://matplotlib.org/</dc:title>
     </cc:Agent>
    </dc:creator>
   </cc:Work>
  </rdf:RDF>
 </metadata>
 <defs>
  <style type="text/css">*{stroke-linejoin: round; stroke-linecap: butt}</style>
 </defs>
 <g id="figure_1">
  <g id="patch_1">
   <path d="M 0 432 
L 576 432 
L 576 0 
L 0 0 
z
" style="fill: #ffffff"/>
  </g>
  <g id="axes_1">
   <g id="patch_2">
    <path d="M 72 384.48 
L 518.4 384.48 
L 518.4 51.84 
L 72 51.84 
z
" style="fill: #ffffff"/>
   </g>
   <g id="PolyCollection_1">
    <path d="M 161.503759 162.997895 
L 161.503759 384.48 
L 162.622556 384.48 
L 163.741353 384.48 
L 164.86015 384.48 
L 165.978947 384.48 
L 167.097744 384.48 
L 168.216541 384.48 
L 169.335338 384.48 
L 170.454135 384.48 
L 171.572932 384.48 
L 172.691729 384.48 
L 173.810526 384.48 
L 174.929323 384.48 
L 176.04812 384.48 
L 177.166917 384.48 
L 178.285714 384.48 
L 179.404511 384.48 
L 180.523308 384.48 
L 181.642105 384.48 
L 182.760902 384.48 
L 183.879699 384.48 
L 184.998496 384.48 
L 186.117293 384.48 
L 187.23609 384.48 
L 188.354887 384.48 
L 189.473684 384.48 
L 190.592481 384.48 
L 191.711278 384.48 
L 192.830075 384.48 
L 193.948872 384.48 
L 195.067669 384.48 
L 196.186466 384.48 
L 197.305263 384.48 
L 198.42406 384.48 
L 199.542857 384.48 
L 200.661654 384.48 
L 201.780451 384.48 
L 202.899248 384.48 
L 204.018045 384.48 
L 205.136842 384.48 
L 206.255639 384.48 
L 207.374436 384.48 
L 208.493233 384.48 
L 209.61203 384.48 
L 210.730827 384.48 
L 211.849624 384.48 
L 212.968421 384.48 
L 214.087218 384.48 
L 215.206015 384.48 
L 216.324812 384.48 
L 217.443609 384.48 
L 218.562406 384.48 
L 219.681203 384.48 
L 220.8 384.48 
L 221.918797 384.48 
L 223.037594 384.48 
L 224.156391 384.48 
L 225.275188 384.48 
L 226.393985 384.48 
L 227.512782 384.48 
L 228.631579 384.48 
L 229.750376 384.48 
L 230.869173 384.48 
L 231.98797 384.48 
L 233.106767 384.48 
L 234.225564 384.48 
L 235.344361 384.48 
L 236.463158 384.48 
L 237.581955 384.48 
L 238.700752 384.48 
L 239.819549 384.48 
L 240.938346 384.48 
L 242.057143 384.48 
L 243.17594 384.48 
L 244.294737 384.48 
L 245.413534 384.48 
L 246.532331 384.48 
L 247.651128 384.48 
L 248.769925 384.48 
L 249.888722 384.48 
L 251.007519 384.48 
L 252.126316 384.48 
L 253.245113 384.48 
L 254.36391 384.48 
L 255.482707 384.48 
L 256.601504 384.48 
L 257.720301 384.48 
L 258.839098 384.48 
L 259.957895 384.48 
L 261.076692 384.48 
L 262.195489 384.48 
L 263.314286 384.48 
L 264.433083 384.48 
L 265.55188 384.48 
L 266.670677 384.48 
L 267.789474 384.48 
L 268.908271 384.48 
L 270.027068 384.48 
L 271.145865 384.48 
L 272.264662 384.48 
L 273.383459 384.48 
L 274.502256 384.48 
L 275.621053 384.48 
L 276.73985 384.48 
L 277.858647 384.48 
L 278.977444 384.48 
L 280.096241 384.48 
L 281.215038 384.48 
L 282.333835 384.48 
L 283.452632 384.48 
L 284.571429 384.48 
L 285.690226 384.48 
L 286.809023 384.48 
L 287.92782 384.48 
L 289.046617 384.48 
L 290.165414 384.48 
L 291.284211 384.48 
L 292.403008 384.48 
L 293.521805 384.48 
L 294.640602 384.48 
L 295.759398 384.48 
L 296.878195 384.48 
L 297.996992 384.48 
L 299.115789 384.48 
L 300.234586 384.48 
L 301.353383 384.48 
L 302.47218 384.48 
L 303.590977 384.48 
L 304.709774 384.48 
L 305.828571 384.48 
L 306.947368 384.48 
L 308.066165 384.48 
L 309.184962 384.48 
L 310.303759 384.48 
L 311.422556 384.48 
L 312.541353 384.48 
L 313.66015 384.48 
L 314.778947 384.48 
L 315.897744 384.48 
L 317.016541 384.48 
L 318.135338 384.48 
L 319.254135 384.48 
L 320.372932 384.48 
L 321.491729 384.48 
L 322.610526 384.48 
L 323.729323 384.48 
L 324.84812 384.48 
L 325.966917 384.48 
L 327.085714 384.48 
L 328.204511 384.48 
L 329.323308 384.48 
L 330.442105 384.48 
L 331.560902 384.48 
L 332.679699 384.48 
L 333.798496 384.48 
L 334.917293 384.48 
L 336.03609 384.48 
L 337.154887 384.48 
L 338.273684 384.48 
L 339.392481 384.48 
L 340.511278 384.48 
L 341.630075 384.48 
L 342.748872 384.48 
L 343.867669 384.48 
L 344.986466 384.48 
L 346.105263 384.48 
L 347.22406 384.48 
L 348.342857 384.48 
L 349.461654 384.48 
L 350.580451 384.48 
L 351.699248 384.48 
L 352.818045 384.48 
L 353.936842 384.48 
L 355.055639 384.48 
L 356.174436 384.48 
L 357.293233 384.48 
L 358.41203 384.48 
L 359.530827 384.48 
L 360.649624 384.48 
L 361.768421 384.48 
L 362.887218 384.48 
L 364.006015 384.48 
L 365.124812 384.48 
L 366.243609 384.48 
L 367.362406 384.48 
L 368.481203 384.48 
L 369.6 384.48 
L 370.718797 384.48 
L 371.837594 384.48 
L 372.956391 384.48 
L 374.075188 384.48 
L 375.193985 384.48 
L 376.312782 384.48 
L 377.431579 384.48 
L 378.550376 384.48 
L 379.669173 384.48 
L 380.78797 384.48 
L 381.906767 384.48 
L 383.025564 384.48 
L 384.144361 384.48 
L 385.263158 384.48 
L 386.381955 384.48 
L 387.500752 384.48 
L 388.619549 384.48 
L 389.738346 384.48 
L 390.857143 384.48 
L 391.97594 384.48 
L 393.094737 384.48 
L 394.213534 384.48 
L 395.332331 384.48 
L 396.451128 384.48 
L 397.569925 384.48 
L 398.688722 384.48 
L 399.807519 384.48 
L 400.926316 384.48 
L 402.045113 384.48 
L 403.16391 384.48 
L 404.282707 384.48 
L 405.401504 384.48 
L 406.520301 384.48 
L 407.639098 384.48 
L 408.757895 384.48 
L 409.876692 384.48 
L 410.995489 384.48 
L 412.114286 384.48 
L 413.233083 384.48 
L 414.35188 384.48 
L 415.470677 384.48 
L 416.589474 384.48 
L 417.708271 384.48 
L 418.827068 384.48 
L 419.945865 384.48 
L 421.064662 384.48 
L 422.183459 384.48 
L 423.302256 384.48 
L 424.421053 384.48 
L 425.53985 384.48 
L 426.658647 384.48 
L 427.777444 384.48 
L 428.896241 384.48 
L 430.015038 384.48 
L 431.133835 384.48 
L 432.252632 384.48 
L 433.371429 384.48 
L 434.490226 384.48 
L 435.609023 384.48 
L 436.72782 384.48 
L 437.846617 384.48 
L 438.965414 384.48 
L 440.084211 384.48 
L 441.203008 384.48 
L 442.321805 384.48 
L 443.440602 384.48 
L 444.559398 384.48 
L 445.678195 384.48 
L 446.796992 384.48 
L 447.915789 384.48 
L 449.034586 384.48 
L 450.153383 384.48 
L 451.27218 384.48 
L 452.390977 384.48 
L 453.509774 384.48 
L 454.628571 384.48 
L 455.747368 384.48 
L 456.866165 384.48 
L 457.984962 384.48 
L 459.103759 384.48 
L 460.222556 384.48 
L 461.341353 384.48 
L 462.46015 384.48 
L 463.578947 384.48 
L 464.697744 384.48 
L 465.816541 384.48 
L 466.935338 384.48 
L 468.054135 384.48 
L 469.172932 384.48 
L 470.291729 384.48 
L 471.410526 384.48 
L 472.529323 384.48 
L 473.64812 384.48 
L 474.766917 384.48 
L 475.885714 384.48 
L 477.004511 384.48 
L 478.123308 384.48 
L 479.242105 384.48 
L 480.360902 384.48 
L 481.479699 384.48 
L 482.598496 384.48 
L 483.717293 384.48 
L 484.83609 384.48 
L 485.954887 384.48 
L 487.073684 384.48 
L 488.192481 384.48 
L 489.311278 384.48 
L 490.430075 384.48 
L 491.548872 384.48 
L 492.667669 384.48 
L 493.786466 384.48 
L 494.905263 384.48 
L 496.02406 384.48 
L 497.142857 384.48 
L 498.261654 384.48 
L 499.380451 384.48 
L 500.499248 384.48 
L 501.618045 384.48 
L 502.736842 384.48 
L 503.855639 384.48 
L 504.974436 384.48 
L 506.093233 384.48 
L 507.21203 384.48 
L 508.330827 384.48 
L 509.449624 384.48 
L 510.568421 384.48 
L 511.687218 384.48 
L 512.806015 384.48 
L 513.924812 384.48 
L 515.043609 384.48 
L 516.162406 384.48 
L 517.281203 384.48 
L 518.4 384.48 
L 518.4 606.24 
L 518.4 606.24 
L 517.281203 604.850526 
L 516.162406 603.461053 
L 515.043609 602.071579 
L 513.924812 600.682105 
L 512.806015 599.292632 
L 511.687218 597.903158 
L 510.568421 596.513684 
L 509.449624 595.124211 
L 508.330827 593.734737 
L 507.21203 592.345263 
L 506.093233 590.955789 
L 504.974436 589.566316 
L 503.855639 588.176842 
L 502.736842 586.787368 
L 501.618045 585.397895 
L 500.499248 584.008421 
L 499.380451 582.618947 
L 498.261654 581.229474 
L 497.142857 579.84 
L 496.02406 578.450526 
L 494.905263 577.061053 
L 493.786466 575.671579 
L 492.667669 574.282105 
L 491.548872 572.892632 
L 490.430075 571.503158 
L 489.311278 570.113684 
L 488.192481 568.724211 
L 487.073684 567.334737 
L 485.954887 565.945263 
L 484.83609 564.555789 
L 483.717293 563.166316 
L 482.598496 561.776842 
L 481.479699 560.387368 
L 480.360902 558.997895 
L 479.242105 557.608421 
L 478.123308 556.218947 
L 477.004511 554.829474 
L 475.885714 553.44 
L 474.766917 552.050526 
L 473.64812 550.661053 
L 472.529323 549.271579 
L 471.410526 547.882105 
L 470.291729 546.492632 
L 469.172932 545.103158 
L 468.054135 543.713684 
L 466.935338 542.324211 
L 465.816541 540.934737 
L 464.697744 539.545263 
L 463.578947 538.155789 
L 462.46015 536.766316 
L 461.341353 535.376842 
L 460.222556 533.987368 
L 459.103759 532.597895 
L 457.984962 531.208421 
L 456.866165 529.818947 
L 455.747368 528.429474 
L 454.628571 527.04 
L 453.509774 525.650526 
L 452.390977 524.261053 
L 451.27218 522.871579 
L 450.153383 521.482105 
L 449.034586 520.092632 
L 447.915789 518.703158 
L 446.796992 517.313684 
L 445.678195 515.924211 
L 444.559398 514.534737 
L 443.440602 513.145263 
L 442.321805 511.755789 
L 441.203008 510.366316 
L 440.084211 508.976842 
L 438.965414 507.587368 
L 437.846617 506.197895 
L 436.72782 504.808421 
L 435.609023 503.418947 
L 434.490226 502.029474 
L 433.371429 500.64 
L 432.252632 499.250526 
L 431.133835 497.861053 
L 430.015038 496.471579 
L 428.896241 495.082105 
L 427.777444 493.692632 
L 426.658647 492.303158 
L 425.53985 490.913684 
L 424.421053 489.524211 
L 423.302256 488.134737 
L 422.183459 486.745263 
L 421.064662 485.355789 
L 419.945865 483.966316 
L 418.827068 482.576842 
L 417.708271 481.187368 
L 416.589474 479.797895 
L 415.470677 478.408421 
L 414.35188 477.018947 
L 413.233083 475.629474 
L 412.114286 474.24 
L 410.995489 472.850526 
L 409.876692 471.461053 
L 408.757895 470.071579 
L 407.639098 468.682105 
L 406.520301 467.292632 
L 405.401504 465.903158 
L 404.282707 464.513684 
L 403.16391 463.124211 
L 402.045113 461.734737 
L 400.926316 460.345263 
L 399.807519 458.955789 
L 398.688722 457.566316 
L 397.569925 456.176842 
L 396.451128 454.787368 
L 395.332331 453.397895 
L 394.213534 452.008421 
L 393.094737 450.618947 
L 391.97594 449.229474 
L 390.857143 447.84 
L 389.738346 446.450526 
L 388.619549 445.061053 
L 387.500752 443.671579 
L 386.381955 442.282105 
L 385.263158 440.892632 
L 384.144361 439.503158 
L 383.025564 438.113684 
L 381.906767 436.724211 
L 380.78797 435.334737 
L 379.669173 433.945263 
L 378.550376 432.555789 
L 377.431579 431.166316 
L 376.312782 429.776842 
L 375.193985 428.387368 
L 374.075188 426.997895 
L 372.956391 425.608421 
L 371.837594 424.218947 
L 370.718797 422.829474 
L 369.6 421.44 
L 368.481203 420.050526 
L 367.362406 418.661053 
L 366.243609 417.271579 
L 365.124812 415.882105 
L 364.006015 414.492632 
L 362.887218 413.103158 
L 361.768421 411.713684 
L 360.649624 410.324211 
L 359.530827 408.934737 
L 358.41203 407.545263 
L 357.293233 406.155789 
L 356.174436 404.766316 
L 355.055639 403.376842 
L 353.936842 401.987368 
L 352.818045 400.597895 
L 351.699248 399.208421 
L 350.580451 397.818947 
L 349.461654 396.429474 
L 348.342857 395.04 
L 347.22406 393.650526 
L 346.105263 392.261053 
L 344.986466 390.871579 
L 343.867669 389.482105 
L 342.748872 388.092632 
L 341.630075 386.703158 
L 340.511278 385.313684 
L 339.392481 383.924211 
L 338.273684 382.534737 
L 337.154887 381.145263 
L 336.03609 379.755789 
L 334.917293 378.366316 
L 333.798496 376.976842 
L 332.679699 375.587368 
L 331.560902 374.197895 
L 330.442105 372.808421 
L 329.323308 371.418947 
L 328.204511 370.029474 
L 327.085714 368.64 
L 325.966917 367.250526 
L 324.84812 365.861053 
L 323.729323 364.471579 
L 322.610526 363.082105 
L 321.491729 361.692632 
L 320.372932 360.303158 
L 319.254135 358.913684 
L 318.135338 357.524211 
L 317.016541 356.134737 
L 315.897744 354.745263 
L 314.778947 353.355789 
L 313.66015 351.966316 
L 312.541353 350.576842 
L 311.422556 349.187368 
L 310.303759 347.797895 
L 309.184962 346.408421 
L 308.066165 345.018947 
L 306.947368 343.629474 
L 305.828571 342.24 
L 304.709774 340.850526 
L 303.590977 339.461053 
L 302.47218 338.071579 
L 301.353383 336.682105 
L 300.234586 335.292632 
L 299.115789 333.903158 
L 297.996992 332.513684 
L 296.878195 331.124211 
L 295.759398 329.734737 
L 294.640602 328.345263 
L 293.521805 326.955789 
L 292.403008 325.566316 
L 291.284211 324.176842 
L 290.165414 322.787368 
L 289.046617 321.397895 
L 287.92782 320.008421 
L 286.809023 318.618947 
L 285.690226 317.229474 
L 284.571429 315.84 
L 283.452632 314.450526 
L 282.333835 313.061053 
L 281.215038 311.671579 
L 280.096241 310.282105 
L 278.977444 308.892632 
L 277.858647 307.503158 
L 276.73985 306.113684 
L 275.621053 304.724211 
L 274.502256 303.334737 
L 273.383459 301.945263 
L 272.264662 300.555789 
L 271.145865 299.166316 
L 270.027068 297.776842 
L 268.908271 296.387368 
L 267.789474 294.997895 
L 266.670677 293.608421 
L 265.55188 292.218947 
L 264.433083 290.829474 
L 263.314286 289.44 
L 262.195489 288.050526 
L 261.076692 286.661053 
L 259.957895 285.271579 
L 258.839098 283.882105 
L 257.720301 282.492632 
L 256.601504 281.103158 
L 255.482707 279.713684 
L 254.36391 278.324211 
L 253.245113 276.934737 
L 252.126316 275.545263 
L 251.007519 274.155789 
L 249.888722 272.766316 
L 248.769925 271.376842 
L 247.651128 269.987368 
L 246.532331 268.597895 
L 245.413534 267.208421 
L 244.294737 265.818947 
L 243.17594 264.429474 
L 242.057143 263.04 
L 240.938346 261.650526 
L 239.819549 260.261053 
L 238.700752 258.871579 
L 237.581955 257.482105 
L 236.463158 256.092632 
L 235.344361 254.703158 
L 234.225564 253.313684 
L 233.106767 251.924211 
L 231.98797 250.534737 
L 230.869173 249.145263 
L 229.750376 247.755789 
L 228.631579 246.366316 
L 227.512782 244.976842 
L 226.393985 243.587368 
L 225.275188 242.197895 
L 224.156391 240.808421 
L 223.037594 239.418947 
L 221.918797 238.029474 
L 220.8 236.64 
L 219.681203 235.250526 
L 218.562406 233.861053 
L 217.443609 232.471579 
L 216.324812 231.082105 
L 215.206015 229.692632 
L 214.087218 228.303158 
L 212.968421 226.913684 
L 211.849624 225.524211 
L 210.730827 224.134737 
L 209.61203 222.745263 
L 208.493233 221.355789 
L 207.374436 219.966316 
L 206.255639 218.576842 
L 205.136842 217.187368 
L 204.018045 215.797895 
L 202.899248 214.408421 
L 201.780451 213.018947 
L 200.661654 211.629474 
L 199.542857 210.24 
L 198.42406 208.850526 
L 197.305263 207.461053 
L 196.186466 206.071579 
L 195.067669 204.682105 
L 193.948872 203.292632 
L 192.830075 201.903158 
L 191.711278 200.513684 
L 190.592481 199.124211 
L 189.473684 197.734737 
L 188.354887 196.345263 
L 187.23609 194.955789 
L 186.117293 193.566316 
L 184.998496 192.176842 
L 183.879699 190.787368 
L 182.760902 189.397895 
L 181.642105 188.008421 
L 180.523308 186.618947 
L 179.404511 185.229474 
L 178.285714 183.84 
L 177.166917 182.450526 
L 176.04812 181.061053 
L 174.929323 179.671579 
L 173.810526 178.282105 
L 172.691729 176.892632 
L 171.572932 175.503158 
L 170.454135 174.113684 
L 169.335338 172.724211 
L 168.216541 171.334737 
L 167.097744 169.945263 
L 165.978947 168.555789 
L 164.86015 167.166316 
L 163.741353 165.776842 
L 162.622556 164.387368 
L 161.503759 162.997895 
z
" clip-path="url(#pbec01a3cdf)" style="fill: #808080; fill-opacity: 0.3; stroke: #808080; stroke-opacity: 0.3"/>
   </g>
   <g id="matplotlib.axis_1">
    <g id="xtick_1">
     <g id="line2d_1">
      <path d="M 72 384.48 
L 72 51.84 
" clip-path="url(#pbec01a3cdf)" style="fill: none; stroke: #b0b0b0; stroke-width: 0.8; stroke-linecap: square"/>
     </g>
     <g id="line2d_2">
      <defs>
       <path id="m4e0b03d64e" d="M 0 0 
L 0 3.5 
" style="stroke: #000000; stroke-width: 0.8"/>
      </defs>
      <g>
       <use xlink:href="#m4e0b03d64e" x="72" y="384.48" style="stroke: #000000; stroke-width: 0.8"/>
      </g>
     </g>
     <g id="text_1">
      <!-- 0 -->
      <g transform="translate(68.81875 399.078438) scale(0.1 -0.1)">
       <defs>
        <path id="DejaVuSans-30" d="M 2034 4250 
Q 1547 4250 1301 3770 
Q 1056 3291 1056 2328 
Q 1056 1369 1301 889 
Q 1547 409 2034 409 
Q 2525 409 2770 889 
Q 3016 1369 3016 2328 
Q 3016 3291 2770 3770 
Q 2525 4250 2034 4250 
z
M 2034 4750 
Q 2819 4750 3233 4129 
Q 3647 3509 3647 2328 
Q 3647 1150 3233 529 
Q 2819 -91 2034 -91 
Q 1250 -91 836 529 
Q 422 1150 422 2328 
Q 422 3509 836 4129 
Q 1250 4750 2034 4750 
z
" transform="scale(0.015625)"/>
       </defs>
       <use xlink:href="#DejaVuSans-30"/>
      </g>
     </g>
    </g>
    <g id="xtick_2">
     <g id="line2d_3">
      <path d="M 161.28 384.48 
L 161.28 51.84 
" clip-path="url(#pbec01a3cdf)" style="fill: none; stroke: #b0b0b0; stroke-width: 0.8; stroke-linecap: square"/>
     </g>
     <g id="line2d_4">
      <g>
       <use xlink:href="#m4e0b03d64e" x="161.28" y="384.48" style="stroke: #000000; stroke-width: 0.8"/>
      </g>
     </g>
     <g id="text_2">
      <!-- 1 -->
      <g transform="translate(158.09875 399.078438) scale(0.1 -0.1)">
       <defs>
        <path id="DejaVuSans-31" d="M 794 531 
L 1825 531 
L 1825 4091 
L 703 3866 
L 703 4441 
L 1819 4666 
L 2450 4666 
L 2450 531 
L 3481 531 
L 3481 0 
L 794 0 
L 794 531 
z
" transform="scale(0.015625)"/>
       </defs>
       <use xlink:href="#DejaVuSans-31"/>
      </g>
     </g>
    </g>
    <g id="xtick_3">
     <g id="line2d_5">
      <path d="M 250.56 384.48 
L 250.56 51.84 
" clip-path="url(#pbec01a3cdf)" style="fill: none; stroke: #b0b0b0; stroke-width: 0.8; stroke-linecap: square"/>
     </g>
     <g id="line2d_6">
      <g>
       <use xlink:href="#m4e0b03d64e" x="250.56" y="384.48" style="stroke: #000000; stroke-width: 0.8"/>
      </g>
     </g>
     <g id="text_3">
      <!-- 2 -->
      <g transform="translate(247.37875 399.078438) scale(0.1 -0.1)">
       <defs>
        <path id="DejaVuSans-32" d="M 1228 531 
L 3431 531 
L 3431 0 
L 469 0 
L 469 531 
Q 828 903 1448 1529 
Q 2069 2156 2228 2338 
Q 2531 2678 2651 2914 
Q 2772 3150 2772 3378 
Q 2772 3750 2511 3984 
Q 2250 4219 1831 4219 
Q 1534 4219 1204 4116 
Q 875 4013 500 3803 
L 500 4441 
Q 881 4594 1212 4672 
Q 1544 4750 1819 4750 
Q 2544 4750 2975 4387 
Q 3406 4025 3406 3419 
Q 3406 3131 3298 2873 
Q 3191 2616 2906 2266 
Q 2828 2175 2409 1742 
Q 1991 1309 1228 531 
z
" transform="scale(0.015625)"/>
       </defs>
       <use xlink:href="#DejaVuSans-32"/>
      </g>
     </g>
    </g>
    <g id="xtick_4">
     <g id="line2d_7">
      <path d="M 339.84 384.48 
L 339.84 51.84 
" clip-path="url(#pbec01a3cdf)" style="fill: none; stroke: #b0b0b0; stroke-width: 0.8; stroke-linecap: square"/>
     </g>
     <g id="line2d_8">
      <g>
       <use xlink:href="#m4e0b03d64e" x="339.84" y="384.48" style="stroke: #000000; stroke-width: 0.8"/>
      </g>
     </g>
     <g id="text_4">
      <!-- 3 -->
      <g transform="translate(336.65875 399.078438) scale(0.1 -0.1)">
       <defs>
        <path id="DejaVuSans-33" d="M 2597 2516 
Q 3050 2419 3304 2112 
Q 3559 1806 3559 1356 
Q 3559 666 3084 287 
Q 2609 -91 1734 -91 
Q 1441 -91 1130 -33 
Q 819 25 488 141 
L 488 750 
Q 750 597 1062 519 
Q 1375 441 1716 441 
Q 2309 441 2620 675 
Q 2931 909 2931 1356 
Q 2931 1769 2642 2001 
Q 2353 2234 1838 2234 
L 1294 2234 
L 1294 2753 
L 1863 2753 
Q 2328 2753 2575 2939 
Q 2822 3125 2822 3475 
Q 2822 3834 2567 4026 
Q 2313 4219 1838 4219 
Q 1578 4219 1281 4162 
Q 984 4106 628 3988 
L 628 4550 
Q 988 4650 1302 4700 
Q 1616 4750 1894 4750 
Q 2613 4750 3031 4423 
Q 3450 4097 3450 3541 
Q 3450 3153 3228 2886 
Q 3006 2619 2597 2516 
z
" transform="scale(0.015625)"/>
       </defs>
       <use xlink:href="#DejaVuSans-33"/>
      </g>
     </g>
    </g>
    <g id="xtick_5">
     <g id="line2d_9">
      <path d="M 429.12 384.48 
L 429.12 51.84 
" clip-path="url(#pbec01a3cdf)" style="fill: none; stroke: #b0b0b0; stroke-width: 0.8; stroke-linecap: square"/>
     </g>
     <g id="line2d_10">
      <g>
       <use xlink:href="#m4e0b03d64e" x="429.12" y="384.48" style="stroke: #000000; stroke-width: 0.8"/>
      </g>
     </g>
     <g id="text_5">
      <!-- 4 -->
      <g transform="translate(425.93875 399.078438) scale(0.1 -0.1)">
       <defs>
        <path id="DejaVuSans-34" d="M 2419 4116 
L 825 1625 
L 2419 1625 
L 2419 4116 
z
M 2253 4666 
L 3047 4666 
L 3047 1625 
L 3713 1625 
L 3713 1100 
L 3047 1100 
L 3047 0 
L 2419 0 
L 2419 1100 
L 313 1100 
L 313 1709 
L 2253 4666 
z
" transform="scale(0.015625)"/>
       </defs>
       <use xlink:href="#DejaVuSans-34"/>
      </g>
     </g>
    </g>
    <g id="xtick_6">
     <g id="line2d_11">
      <path d="M 518.4 384.48 
L 518.4 51.84 
" clip-path="url(#pbec01a3cdf)" style="fill: none; stroke: #b0b0b0; stroke-width: 0.8; stroke-linecap: square"/>
     </g>
     <g id="line2d_12">
      <g>
       <use xlink:href="#m4e0b03d64e" x="518.4" y="384.48" style="stroke: #000000; stroke-width: 0.8"/>
      </g>
     </g>
     <g id="text_6">
      <!-- 5 -->
      <g transform="translate(515.21875 399.078438) scale(0.1 -0.1)">
       <defs>
        <path id="DejaVuSans-35" d="M 691 4666 
L 3169 4666 
L 3169 4134 
L 1269 4134 
L 1269 2991 
Q 1406 3038 1543 3061 
Q 1681 3084 1819 3084 
Q 2600 3084 3056 2656 
Q 3513 2228 3513 1497 
Q 3513 744 3044 326 
Q 2575 -91 1722 -91 
Q 1428 -91 1123 -41 
Q 819 9 494 109 
L 494 744 
Q 775 591 1075 516 
Q 1375 441 1709 441 
Q 2250 441 2565 725 
Q 2881 1009 2881 1497 
Q 2881 1984 2565 2268 
Q 2250 2553 1709 2553 
Q 1456 2553 1204 2497 
Q 953 2441 691 2322 
L 691 4666 
z
" transform="scale(0.015625)"/>
       </defs>
       <use xlink:href="#DejaVuSans-35"/>
      </g>
     </g>
    </g>
    <g id="text_7">
     <!-- $x_1$ -->
     <g transform="translate(289.85 412.756563) scale(0.1 -0.1)">
      <defs>
       <path id="DejaVuSans-Oblique-78" d="M 3841 3500 
L 2234 1784 
L 3219 0 
L 2559 0 
L 1819 1388 
L 531 0 
L -166 0 
L 1556 1844 
L 641 3500 
L 1300 3500 
L 1972 2234 
L 3144 3500 
L 3841 3500 
z
" transform="scale(0.015625)"/>
      </defs>
      <use xlink:href="#DejaVuSans-Oblique-78" transform="translate(0 0.3125)"/>
      <use xlink:href="#DejaVuSans-31" transform="translate(59.179688 -16.09375) scale(0.7)"/>
     </g>
    </g>
   </g>
   <g id="matplotlib.axis_2">
    <g id="ytick_1">
     <g id="line2d_13">
      <path d="M 72 384.48 
L 518.4 384.48 
" clip-path="url(#pbec01a3cdf)" style="fill: none; stroke: #b0b0b0; stroke-width: 0.8; stroke-linecap: square"/>
     </g>
     <g id="line2d_14">
      <defs>
       <path id="m3bc4d4f4db" d="M 0 0 
L -3.5 0 
" style="stroke: #000000; stroke-width: 0.8"/>
      </defs>
      <g>
       <use xlink:href="#m3bc4d4f4db" x="72" y="384.48" style="stroke: #000000; stroke-width: 0.8"/>
      </g>
     </g>
     <g id="text_8">
      <!-- 0 -->
      <g transform="translate(58.6375 388.279219) scale(0.1 -0.1)">
       <use xlink:href="#DejaVuSans-30"/>
      </g>
     </g>
    </g>
    <g id="ytick_2">
     <g id="line2d_15">
      <path d="M 72 329.04 
L 518.4 329.04 
" clip-path="url(#pbec01a3cdf)" style="fill: none; stroke: #b0b0b0; stroke-width: 0.8; stroke-linecap: square"/>
     </g>
     <g id="line2d_16">
      <g>
       <use xlink:href="#m3bc4d4f4db" x="72" y="329.04" style="stroke: #000000; stroke-width: 0.8"/>
      </g>
     </g>
     <g id="text_9">
      <!-- 1 -->
      <g transform="translate(58.6375 332.839219) scale(0.1 -0.1)">
       <use xlink:href="#DejaVuSans-31"/>
      </g>
     </g>
    </g>
    <g id="ytick_3">
     <g id="line2d_17">
      <path d="M 72 273.6 
L 518.4 273.6 
" clip-path="url(#pbec01a3cdf)" style="fill: none; stroke: #b0b0b0; stroke-width: 0.8; stroke-linecap: square"/>
     </g>
     <g id="line2d_18">
      <g>
       <use xlink:href="#m3bc4d4f4db" x="72" y="273.6" style="stroke: #000000; stroke-width: 0.8"/>
      </g>
     </g>
     <g id="text_10">
      <!-- 2 -->
      <g transform="translate(58.6375 277.399219) scale(0.1 -0.1)">
       <use xlink:href="#DejaVuSans-32"/>
      </g>
     </g>
    </g>
    <g id="ytick_4">
     <g id="line2d_19">
      <path d="M 72 218.16 
L 518.4 218.16 
" clip-path="url(#pbec01a3cdf)" style="fill: none; stroke: #b0b0b0; stroke-width: 0.8; stroke-linecap: square"/>
     </g>
     <g id="line2d_20">
      <g>
       <use xlink:href="#m3bc4d4f4db" x="72" y="218.16" style="stroke: #000000; stroke-width: 0.8"/>
      </g>
     </g>
     <g id="text_11">
      <!-- 3 -->
      <g transform="translate(58.6375 221.959219) scale(0.1 -0.1)">
       <use xlink:href="#DejaVuSans-33"/>
      </g>
     </g>
    </g>
    <g id="ytick_5">
     <g id="line2d_21">
      <path d="M 72 162.72 
L 518.4 162.72 
" clip-path="url(#pbec01a3cdf)" style="fill: none; stroke: #b0b0b0; stroke-width: 0.8; stroke-linecap: square"/>
     </g>
     <g id="line2d_22">
      <g>
       <use xlink:href="#m3bc4d4f4db" x="72" y="162.72" style="stroke: #000000; stroke-width: 0.8"/>
      </g>
     </g>
     <g id="text_12">
      <!-- 4 -->
      <g transform="translate(58.6375 166.519219) scale(0.1 -0.1)">
       <use xlink:href="#DejaVuSans-34"/>
      </g>
     </g>
    </g>
    <g id="ytick_6">
     <g id="line2d_23">
      <path d="M 72 107.28 
L 518.4 107.28 
" clip-path="url(#pbec01a3cdf)" style="fill: none; stroke: #b0b0b0; stroke-width: 0.8; stroke-linecap: square"/>
     </g>
     <g id="line2d_24">
      <g>
       <use xlink:href="#m3bc4d4f4db" x="72" y="107.28" style="stroke: #000000; stroke-width: 0.8"/>
      </g>
     </g>
     <g id="text_13">
      <!-- 5 -->
      <g transform="translate(58.6375 111.079219) scale(0.1 -0.1)">
       <use xlink:href="#DejaVuSans-35"/>
      </g>
     </g>
    </g>
    <g id="ytick_7">
     <g id="line2d_25">
      <path d="M 72 51.84 
L 518.4 51.84 
" clip-path="url(#pbec01a3cdf)" style="fill: none; stroke: #b0b0b0; stroke-width: 0.8; stroke-linecap: square"/>
     </g>
     <g id="line2d_26">
      <g>
       <use xlink:href="#m3bc4d4f4db" x="72" y="51.84" style="stroke: #000000; stroke-width: 0.8"/>
      </g>
     </g>
     <g id="text_14">
      <!-- 6 -->
      <g transform="translate(58.6375 55.639219) scale(0.1 -0.1)">
       <defs>
        <path id="DejaVuSans-36" d="M 2113 2584 
Q 1688 2584 1439 2293 
Q 1191 2003 1191 1497 
Q 1191 994 1439 701 
Q 1688 409 2113 409 
Q 2538 409 2786 701 
Q 3034 994 3034 1497 
Q 3034 2003 2786 2293 
Q 2538 2584 2113 2584 
z
M 3366 4563 
L 3366 3988 
Q 3128 4100 2886 4159 
Q 2644 4219 2406 4219 
Q 1781 4219 1451 3797 
Q 1122 3375 1075 2522 
Q 1259 2794 1537 2939 
Q 1816 3084 2150 3084 
Q 2853 3084 3261 2657 
Q 3669 2231 3669 1497 
Q 3669 778 3244 343 
Q 2819 -91 2113 -91 
Q 1303 -91 875 529 
Q 447 1150 447 2328 
Q 447 3434 972 4092 
Q 1497 4750 2381 4750 
Q 2619 4750 2861 4703 
Q 3103 4656 3366 4563 
z
" transform="scale(0.015625)"/>
       </defs>
       <use xlink:href="#DejaVuSans-36"/>
      </g>
     </g>
    </g>
    <g id="text_15">
     <!-- $x_2$ -->
     <g transform="translate(52.557813 223.51) rotate(-90) scale(0.1 -0.1)">
      <use xlink:href="#DejaVuSans-Oblique-78" transform="translate(0 0.3125)"/>
      <use xlink:href="#DejaVuSans-32" transform="translate(59.179688 -16.09375) scale(0.7)"/>
     </g>
    </g>
   </g>
   <g id="line2d_27">
    <path d="M 161.28 384.48 
L 161.28 401.112 
L 161.28 417.744 
L 161.28 433 
" clip-path="url(#pbec01a3cdf)" style="fill: none; stroke: #008000; stroke-width: 1.5; stroke-linecap: square"/>
    <defs>
     <path id="mfbecad4cbc" d="M 0 3 
C 0.795609 3 1.55874 2.683901 2.12132 2.12132 
C 2.683901 1.55874 3 0.795609 3 0 
C 3 -0.795609 2.683901 -1.55874 2.12132 -2.12132 
C 1.55874 -2.683901 0.795609 -3 0 -3 
C -0.795609 -3 -1.55874 -2.683901 -2.12132 -2.12132 
C -2.683901 -1.55874 -3 -0.795609 -3 0 
C -3 0.795609 -2.683901 1.55874 -2.12132 2.12132 
C -1.55874 2.683901 -0.795609 3 0 3 
z
" style="stroke: #008000"/>
    </defs>
    <g clip-path="url(#pbec01a3cdf)">
     <use xlink:href="#mfbecad4cbc" x="161.28" y="384.48" style="fill: #008000; stroke: #008000"/>
     <use xlink:href="#mfbecad4cbc" x="161.28" y="401.112" style="fill: #008000; stroke: #008000"/>
     <use xlink:href="#mfbecad4cbc" x="161.28" y="417.744" style="fill: #008000; stroke: #008000"/>
     <use xlink:href="#mfbecad4cbc" x="161.28" y="434.376" style="fill: #008000; stroke: #008000"/>
     <use xlink:href="#mfbecad4cbc" x="161.28" y="451.008" style="fill: #008000; stroke: #008000"/>
     <use xlink:href="#mfbecad4cbc" x="161.28" y="467.64" style="fill: #008000; stroke: #008000"/>
     <use xlink:href="#mfbecad4cbc" x="161.28" y="484.272" style="fill: #008000; stroke: #008000"/>
     <use xlink:href="#mfbecad4cbc" x="161.28" y="500.904" style="fill: #008000; stroke: #008000"/>
     <use xlink:href="#mfbecad4cbc" x="161.28" y="517.536" style="fill: #008000; stroke: #008000"/>
     <use xlink:href="#mfbecad4cbc" x="161.28" y="534.168" style="fill: #008000; stroke: #008000"/>
     <use xlink:href="#mfbecad4cbc" x="161.28" y="550.8" style="fill: #008000; stroke: #008000"/>
     <use xlink:href="#mfbecad4cbc" x="161.28" y="567.432" style="fill: #008000; stroke: #008000"/>
     <use xlink:href="#mfbecad4cbc" x="161.28" y="584.064" style="fill: #008000; stroke: #008000"/>
     <use xlink:href="#mfbecad4cbc" x="161.28" y="600.696" style="fill: #008000; stroke: #008000"/>
     <use xlink:href="#mfbecad4cbc" x="161.28" y="617.328" style="fill: #008000; stroke: #008000"/>
     <use xlink:href="#mfbecad4cbc" x="161.28" y="633.96" style="fill: #008000; stroke: #008000"/>
     <use xlink:href="#mfbecad4cbc" x="161.28" y="650.592" style="fill: #008000; stroke: #008000"/>
     <use xlink:href="#mfbecad4cbc" x="161.28" y="667.224" style="fill: #008000; stroke: #008000"/>
     <use xlink:href="#mfbecad4cbc" x="161.28" y="683.856" style="fill: #008000; stroke: #008000"/>
     <use xlink:href="#mfbecad4cbc" x="161.28" y="700.488" style="fill: #008000; stroke: #008000"/>
     <use xlink:href="#mfbecad4cbc" x="161.28" y="717.12" style="fill: #008000; stroke: #008000"/>
    </g>
   </g>
   <g id="line2d_28">
    <defs>
     <path id="m4a491a5518" d="M 0 3 
C 0.795609 3 1.55874 2.683901 2.12132 2.12132 
C 2.683901 1.55874 3 0.795609 3 0 
C 3 -0.795609 2.683901 -1.55874 2.12132 -2.12132 
C 1.55874 -2.683901 0.795609 -3 0 -3 
C -0.795609 -3 -1.55874 -2.683901 -2.12132 -2.12132 
C -2.683901 -1.55874 -3 -0.795609 -3 0 
C -3 0.795609 -2.683901 1.55874 -2.12132 2.12132 
C -1.55874 2.683901 -0.795609 3 0 3 
z
" style="stroke: #ff0000"/>
    </defs>
    <g clip-path="url(#pbec01a3cdf)">
     <use xlink:href="#m4a491a5518" x="161.28" y="717.12" style="fill: #ff0000; stroke: #ff0000"/>
    </g>
   </g>
   <g id="line2d_29">
    <path d="M 72 51.84 
L 378.908052 433 
L 378.908052 433 
" clip-path="url(#pbec01a3cdf)" style="fill: none; stroke: #0000ff; stroke-width: 1.5; stroke-linecap: square"/>
   </g>
   <g id="line2d_30">
    <path d="M 161.28 384.48 
L 161.28 51.84 
" clip-path="url(#pbec01a3cdf)" style="fill: none; stroke-dasharray: 5.55,2.4; stroke-dashoffset: 0; stroke: #800080; stroke-width: 1.5"/>
   </g>
   <g id="patch_3">
    <path d="M 72 384.48 
L 72 51.84 
" style="fill: none; stroke: #000000; stroke-width: 0.8; stroke-linejoin: miter; stroke-linecap: square"/>
   </g>
   <g id="patch_4">
    <path d="M 518.4 384.48 
L 518.4 51.84 
" style="fill: none; stroke: #000000; stroke-width: 0.8; stroke-linejoin: miter; stroke-linecap: square"/>
   </g>
   <g id="patch_5">
    <path d="M 72 384.48 
L 518.4 384.48 
" style="fill: none; stroke: #000000; stroke-width: 0.8; stroke-linejoin: miter; stroke-linecap: square"/>
   </g>
   <g id="patch_6">
    <path d="M 72 51.84 
L 518.4 51.84 
" style="fill: none; stroke: #000000; stroke-width: 0.8; stroke-linejoin: miter; stroke-linecap: square"/>
   </g>
   <g id="text_16">
    <!-- Path of Iterates for the Primal-Affine Method (Problem 4.4) -->
    <g transform="translate(120.366562 45.84) scale(0.12 -0.12)">
     <defs>
      <path id="DejaVuSans-50" d="M 1259 4147 
L 1259 2394 
L 2053 2394 
Q 2494 2394 2734 2622 
Q 2975 2850 2975 3272 
Q 2975 3691 2734 3919 
Q 2494 4147 2053 4147 
L 1259 4147 
z
M 628 4666 
L 2053 4666 
Q 2838 4666 3239 4311 
Q 3641 3956 3641 3272 
Q 3641 2581 3239 2228 
Q 2838 1875 2053 1875 
L 1259 1875 
L 1259 0 
L 628 0 
L 628 4666 
z
" transform="scale(0.015625)"/>
      <path id="DejaVuSans-61" d="M 2194 1759 
Q 1497 1759 1228 1600 
Q 959 1441 959 1056 
Q 959 750 1161 570 
Q 1363 391 1709 391 
Q 2188 391 2477 730 
Q 2766 1069 2766 1631 
L 2766 1759 
L 2194 1759 
z
M 3341 1997 
L 3341 0 
L 2766 0 
L 2766 531 
Q 2569 213 2275 61 
Q 1981 -91 1556 -91 
Q 1019 -91 701 211 
Q 384 513 384 1019 
Q 384 1609 779 1909 
Q 1175 2209 1959 2209 
L 2766 2209 
L 2766 2266 
Q 2766 2663 2505 2880 
Q 2244 3097 1772 3097 
Q 1472 3097 1187 3025 
Q 903 2953 641 2809 
L 641 3341 
Q 956 3463 1253 3523 
Q 1550 3584 1831 3584 
Q 2591 3584 2966 3190 
Q 3341 2797 3341 1997 
z
" transform="scale(0.015625)"/>
      <path id="DejaVuSans-74" d="M 1172 4494 
L 1172 3500 
L 2356 3500 
L 2356 3053 
L 1172 3053 
L 1172 1153 
Q 1172 725 1289 603 
Q 1406 481 1766 481 
L 2356 481 
L 2356 0 
L 1766 0 
Q 1100 0 847 248 
Q 594 497 594 1153 
L 594 3053 
L 172 3053 
L 172 3500 
L 594 3500 
L 594 4494 
L 1172 4494 
z
" transform="scale(0.015625)"/>
      <path id="DejaVuSans-68" d="M 3513 2113 
L 3513 0 
L 2938 0 
L 2938 2094 
Q 2938 2591 2744 2837 
Q 2550 3084 2163 3084 
Q 1697 3084 1428 2787 
Q 1159 2491 1159 1978 
L 1159 0 
L 581 0 
L 581 4863 
L 1159 4863 
L 1159 2956 
Q 1366 3272 1645 3428 
Q 1925 3584 2291 3584 
Q 2894 3584 3203 3211 
Q 3513 2838 3513 2113 
z
" transform="scale(0.015625)"/>
      <path id="DejaVuSans-20" transform="scale(0.015625)"/>
      <path id="DejaVuSans-6f" d="M 1959 3097 
Q 1497 3097 1228 2736 
Q 959 2375 959 1747 
Q 959 1119 1226 758 
Q 1494 397 1959 397 
Q 2419 397 2687 759 
Q 2956 1122 2956 1747 
Q 2956 2369 2687 2733 
Q 2419 3097 1959 3097 
z
M 1959 3584 
Q 2709 3584 3137 3096 
Q 3566 2609 3566 1747 
Q 3566 888 3137 398 
Q 2709 -91 1959 -91 
Q 1206 -91 779 398 
Q 353 888 353 1747 
Q 353 2609 779 3096 
Q 1206 3584 1959 3584 
z
" transform="scale(0.015625)"/>
      <path id="DejaVuSans-66" d="M 2375 4863 
L 2375 4384 
L 1825 4384 
Q 1516 4384 1395 4259 
Q 1275 4134 1275 3809 
L 1275 3500 
L 2222 3500 
L 2222 3053 
L 1275 3053 
L 1275 0 
L 697 0 
L 697 3053 
L 147 3053 
L 147 3500 
L 697 3500 
L 697 3744 
Q 697 4328 969 4595 
Q 1241 4863 1831 4863 
L 2375 4863 
z
" transform="scale(0.015625)"/>
      <path id="DejaVuSans-49" d="M 628 4666 
L 1259 4666 
L 1259 0 
L 628 0 
L 628 4666 
z
" transform="scale(0.015625)"/>
      <path id="DejaVuSans-65" d="M 3597 1894 
L 3597 1613 
L 953 1613 
Q 991 1019 1311 708 
Q 1631 397 2203 397 
Q 2534 397 2845 478 
Q 3156 559 3463 722 
L 3463 178 
Q 3153 47 2828 -22 
Q 2503 -91 2169 -91 
Q 1331 -91 842 396 
Q 353 884 353 1716 
Q 353 2575 817 3079 
Q 1281 3584 2069 3584 
Q 2775 3584 3186 3129 
Q 3597 2675 3597 1894 
z
M 3022 2063 
Q 3016 2534 2758 2815 
Q 2500 3097 2075 3097 
Q 1594 3097 1305 2825 
Q 1016 2553 972 2059 
L 3022 2063 
z
" transform="scale(0.015625)"/>
      <path id="DejaVuSans-72" d="M 2631 2963 
Q 2534 3019 2420 3045 
Q 2306 3072 2169 3072 
Q 1681 3072 1420 2755 
Q 1159 2438 1159 1844 
L 1159 0 
L 581 0 
L 581 3500 
L 1159 3500 
L 1159 2956 
Q 1341 3275 1631 3429 
Q 1922 3584 2338 3584 
Q 2397 3584 2469 3576 
Q 2541 3569 2628 3553 
L 2631 2963 
z
" transform="scale(0.015625)"/>
      <path id="DejaVuSans-73" d="M 2834 3397 
L 2834 2853 
Q 2591 2978 2328 3040 
Q 2066 3103 1784 3103 
Q 1356 3103 1142 2972 
Q 928 2841 928 2578 
Q 928 2378 1081 2264 
Q 1234 2150 1697 2047 
L 1894 2003 
Q 2506 1872 2764 1633 
Q 3022 1394 3022 966 
Q 3022 478 2636 193 
Q 2250 -91 1575 -91 
Q 1294 -91 989 -36 
Q 684 19 347 128 
L 347 722 
Q 666 556 975 473 
Q 1284 391 1588 391 
Q 1994 391 2212 530 
Q 2431 669 2431 922 
Q 2431 1156 2273 1281 
Q 2116 1406 1581 1522 
L 1381 1569 
Q 847 1681 609 1914 
Q 372 2147 372 2553 
Q 372 3047 722 3315 
Q 1072 3584 1716 3584 
Q 2034 3584 2315 3537 
Q 2597 3491 2834 3397 
z
" transform="scale(0.015625)"/>
      <path id="DejaVuSans-69" d="M 603 3500 
L 1178 3500 
L 1178 0 
L 603 0 
L 603 3500 
z
M 603 4863 
L 1178 4863 
L 1178 4134 
L 603 4134 
L 603 4863 
z
" transform="scale(0.015625)"/>
      <path id="DejaVuSans-6d" d="M 3328 2828 
Q 3544 3216 3844 3400 
Q 4144 3584 4550 3584 
Q 5097 3584 5394 3201 
Q 5691 2819 5691 2113 
L 5691 0 
L 5113 0 
L 5113 2094 
Q 5113 2597 4934 2840 
Q 4756 3084 4391 3084 
Q 3944 3084 3684 2787 
Q 3425 2491 3425 1978 
L 3425 0 
L 2847 0 
L 2847 2094 
Q 2847 2600 2669 2842 
Q 2491 3084 2119 3084 
Q 1678 3084 1418 2786 
Q 1159 2488 1159 1978 
L 1159 0 
L 581 0 
L 581 3500 
L 1159 3500 
L 1159 2956 
Q 1356 3278 1631 3431 
Q 1906 3584 2284 3584 
Q 2666 3584 2933 3390 
Q 3200 3197 3328 2828 
z
" transform="scale(0.015625)"/>
      <path id="DejaVuSans-6c" d="M 603 4863 
L 1178 4863 
L 1178 0 
L 603 0 
L 603 4863 
z
" transform="scale(0.015625)"/>
      <path id="DejaVuSans-2d" d="M 313 2009 
L 1997 2009 
L 1997 1497 
L 313 1497 
L 313 2009 
z
" transform="scale(0.015625)"/>
      <path id="DejaVuSans-41" d="M 2188 4044 
L 1331 1722 
L 3047 1722 
L 2188 4044 
z
M 1831 4666 
L 2547 4666 
L 4325 0 
L 3669 0 
L 3244 1197 
L 1141 1197 
L 716 0 
L 50 0 
L 1831 4666 
z
" transform="scale(0.015625)"/>
      <path id="DejaVuSans-6e" d="M 3513 2113 
L 3513 0 
L 2938 0 
L 2938 2094 
Q 2938 2591 2744 2837 
Q 2550 3084 2163 3084 
Q 1697 3084 1428 2787 
Q 1159 2491 1159 1978 
L 1159 0 
L 581 0 
L 581 3500 
L 1159 3500 
L 1159 2956 
Q 1366 3272 1645 3428 
Q 1925 3584 2291 3584 
Q 2894 3584 3203 3211 
Q 3513 2838 3513 2113 
z
" transform="scale(0.015625)"/>
      <path id="DejaVuSans-4d" d="M 628 4666 
L 1569 4666 
L 2759 1491 
L 3956 4666 
L 4897 4666 
L 4897 0 
L 4281 0 
L 4281 4097 
L 3078 897 
L 2444 897 
L 1241 4097 
L 1241 0 
L 628 0 
L 628 4666 
z
" transform="scale(0.015625)"/>
      <path id="DejaVuSans-64" d="M 2906 2969 
L 2906 4863 
L 3481 4863 
L 3481 0 
L 2906 0 
L 2906 525 
Q 2725 213 2448 61 
Q 2172 -91 1784 -91 
Q 1150 -91 751 415 
Q 353 922 353 1747 
Q 353 2572 751 3078 
Q 1150 3584 1784 3584 
Q 2172 3584 2448 3432 
Q 2725 3281 2906 2969 
z
M 947 1747 
Q 947 1113 1208 752 
Q 1469 391 1925 391 
Q 2381 391 2643 752 
Q 2906 1113 2906 1747 
Q 2906 2381 2643 2742 
Q 2381 3103 1925 3103 
Q 1469 3103 1208 2742 
Q 947 2381 947 1747 
z
" transform="scale(0.015625)"/>
      <path id="DejaVuSans-28" d="M 1984 4856 
Q 1566 4138 1362 3434 
Q 1159 2731 1159 2009 
Q 1159 1288 1364 580 
Q 1569 -128 1984 -844 
L 1484 -844 
Q 1016 -109 783 600 
Q 550 1309 550 2009 
Q 550 2706 781 3412 
Q 1013 4119 1484 4856 
L 1984 4856 
z
" transform="scale(0.015625)"/>
      <path id="DejaVuSans-62" d="M 3116 1747 
Q 3116 2381 2855 2742 
Q 2594 3103 2138 3103 
Q 1681 3103 1420 2742 
Q 1159 2381 1159 1747 
Q 1159 1113 1420 752 
Q 1681 391 2138 391 
Q 2594 391 2855 752 
Q 3116 1113 3116 1747 
z
M 1159 2969 
Q 1341 3281 1617 3432 
Q 1894 3584 2278 3584 
Q 2916 3584 3314 3078 
Q 3713 2572 3713 1747 
Q 3713 922 3314 415 
Q 2916 -91 2278 -91 
Q 1894 -91 1617 61 
Q 1341 213 1159 525 
L 1159 0 
L 581 0 
L 581 4863 
L 1159 4863 
L 1159 2969 
z
" transform="scale(0.015625)"/>
      <path id="DejaVuSans-2e" d="M 684 794 
L 1344 794 
L 1344 0 
L 684 0 
L 684 794 
z
" transform="scale(0.015625)"/>
      <path id="DejaVuSans-29" d="M 513 4856 
L 1013 4856 
Q 1481 4119 1714 3412 
Q 1947 2706 1947 2009 
Q 1947 1309 1714 600 
Q 1481 -109 1013 -844 
L 513 -844 
Q 928 -128 1133 580 
Q 1338 1288 1338 2009 
Q 1338 2731 1133 3434 
Q 928 4138 513 4856 
z
" transform="scale(0.015625)"/>
     </defs>
     <use xlink:href="#DejaVuSans-50"/>
     <use xlink:href="#DejaVuSans-61" x="55.802734"/>
     <use xlink:href="#DejaVuSans-74" x="117.082031"/>
     <use xlink:href="#DejaVuSans-68" x="156.291016"/>
     <use xlink:href="#DejaVuSans-20" x="219.669922"/>
     <use xlink:href="#DejaVuSans-6f" x="251.457031"/>
     <use xlink:href="#DejaVuSans-66" x="312.638672"/>
     <use xlink:href="#DejaVuSans-20" x="347.84375"/>
     <use xlink:href="#DejaVuSans-49" x="379.630859"/>
     <use xlink:href="#DejaVuSans-74" x="409.123047"/>
     <use xlink:href="#DejaVuSans-65" x="448.332031"/>
     <use xlink:href="#DejaVuSans-72" x="509.855469"/>
     <use xlink:href="#DejaVuSans-61" x="550.96875"/>
     <use xlink:href="#DejaVuSans-74" x="612.248047"/>
     <use xlink:href="#DejaVuSans-65" x="651.457031"/>
     <use xlink:href="#DejaVuSans-73" x="712.980469"/>
     <use xlink:href="#DejaVuSans-20" x="765.080078"/>
     <use xlink:href="#DejaVuSans-66" x="796.867188"/>
     <use xlink:href="#DejaVuSans-6f" x="832.072266"/>
     <use xlink:href="#DejaVuSans-72" x="893.253906"/>
     <use xlink:href="#DejaVuSans-20" x="934.367188"/>
     <use xlink:href="#DejaVuSans-74" x="966.154297"/>
     <use xlink:href="#DejaVuSans-68" x="1005.363281"/>
     <use xlink:href="#DejaVuSans-65" x="1068.742188"/>
     <use xlink:href="#DejaVuSans-20" x="1130.265625"/>
     <use xlink:href="#DejaVuSans-50" x="1162.052734"/>
     <use xlink:href="#DejaVuSans-72" x="1220.605469"/>
     <use xlink:href="#DejaVuSans-69" x="1261.71875"/>
     <use xlink:href="#DejaVuSans-6d" x="1289.501953"/>
     <use xlink:href="#DejaVuSans-61" x="1386.914062"/>
     <use xlink:href="#DejaVuSans-6c" x="1448.193359"/>
     <use xlink:href="#DejaVuSans-2d" x="1475.976562"/>
     <use xlink:href="#DejaVuSans-41" x="1509.810547"/>
     <use xlink:href="#DejaVuSans-66" x="1574.59375"/>
     <use xlink:href="#DejaVuSans-66" x="1609.798828"/>
     <use xlink:href="#DejaVuSans-69" x="1645.003906"/>
     <use xlink:href="#DejaVuSans-6e" x="1672.787109"/>
     <use xlink:href="#DejaVuSans-65" x="1736.166016"/>
     <use xlink:href="#DejaVuSans-20" x="1797.689453"/>
     <use xlink:href="#DejaVuSans-4d" x="1829.476562"/>
     <use xlink:href="#DejaVuSans-65" x="1915.755859"/>
     <use xlink:href="#DejaVuSans-74" x="1977.279297"/>
     <use xlink:href="#DejaVuSans-68" x="2016.488281"/>
     <use xlink:href="#DejaVuSans-6f" x="2079.867188"/>
     <use xlink:href="#DejaVuSans-64" x="2141.048828"/>
     <use xlink:href="#DejaVuSans-20" x="2204.525391"/>
     <use xlink:href="#DejaVuSans-28" x="2236.3125"/>
     <use xlink:href="#DejaVuSans-50" x="2275.326172"/>
     <use xlink:href="#DejaVuSans-72" x="2333.878906"/>
     <use xlink:href="#DejaVuSans-6f" x="2372.742188"/>
     <use xlink:href="#DejaVuSans-62" x="2433.923828"/>
     <use xlink:href="#DejaVuSans-6c" x="2497.400391"/>
     <use xlink:href="#DejaVuSans-65" x="2525.183594"/>
     <use xlink:href="#DejaVuSans-6d" x="2586.707031"/>
     <use xlink:href="#DejaVuSans-20" x="2684.119141"/>
     <use xlink:href="#DejaVuSans-34" x="2715.90625"/>
     <use xlink:href="#DejaVuSans-2e" x="2779.529297"/>
     <use xlink:href="#DejaVuSans-34" x="2811.316406"/>
     <use xlink:href="#DejaVuSans-29" x="2874.939453"/>
    </g>
   </g>
   <g id="legend_1">
    <g id="patch_7">
     <path d="M 395.91875 118.5525 
L 511.4 118.5525 
Q 513.4 118.5525 513.4 116.5525 
L 513.4 58.84 
Q 513.4 56.84 511.4 56.84 
L 395.91875 56.84 
Q 393.91875 56.84 393.91875 58.84 
L 393.91875 116.5525 
Q 393.91875 118.5525 395.91875 118.5525 
z
" style="fill: #ffffff; opacity: 0.8; stroke: #cccccc; stroke-linejoin: miter"/>
    </g>
    <g id="line2d_31">
     <path d="M 397.91875 64.938438 
L 407.91875 64.938438 
L 417.91875 64.938438 
" style="fill: none; stroke: #008000; stroke-width: 1.5; stroke-linecap: square"/>
     <g>
      <use xlink:href="#mfbecad4cbc" x="407.91875" y="64.938438" style="fill: #008000; stroke: #008000"/>
     </g>
    </g>
    <g id="text_17">
     <!-- Iterative Path -->
     <g transform="translate(425.91875 68.438438) scale(0.1 -0.1)">
      <defs>
       <path id="DejaVuSans-76" d="M 191 3500 
L 800 3500 
L 1894 563 
L 2988 3500 
L 3597 3500 
L 2284 0 
L 1503 0 
L 191 3500 
z
" transform="scale(0.015625)"/>
      </defs>
      <use xlink:href="#DejaVuSans-49"/>
      <use xlink:href="#DejaVuSans-74" x="29.492188"/>
      <use xlink:href="#DejaVuSans-65" x="68.701172"/>
      <use xlink:href="#DejaVuSans-72" x="130.224609"/>
      <use xlink:href="#DejaVuSans-61" x="171.337891"/>
      <use xlink:href="#DejaVuSans-74" x="232.617188"/>
      <use xlink:href="#DejaVuSans-69" x="271.826172"/>
      <use xlink:href="#DejaVuSans-76" x="299.609375"/>
      <use xlink:href="#DejaVuSans-65" x="358.789062"/>
      <use xlink:href="#DejaVuSans-20" x="420.3125"/>
      <use xlink:href="#DejaVuSans-50" x="452.099609"/>
      <use xlink:href="#DejaVuSans-61" x="507.902344"/>
      <use xlink:href="#DejaVuSans-74" x="569.181641"/>
      <use xlink:href="#DejaVuSans-68" x="608.390625"/>
     </g>
    </g>
    <g id="line2d_32">
     <g>
      <use xlink:href="#m4a491a5518" x="407.91875" y="79.616563" style="fill: #ff0000; stroke: #ff0000"/>
     </g>
    </g>
    <g id="text_18">
     <!-- Optimal Solution -->
     <g transform="translate(425.91875 83.116563) scale(0.1 -0.1)">
      <defs>
       <path id="DejaVuSans-4f" d="M 2522 4238 
Q 1834 4238 1429 3725 
Q 1025 3213 1025 2328 
Q 1025 1447 1429 934 
Q 1834 422 2522 422 
Q 3209 422 3611 934 
Q 4013 1447 4013 2328 
Q 4013 3213 3611 3725 
Q 3209 4238 2522 4238 
z
M 2522 4750 
Q 3503 4750 4090 4092 
Q 4678 3434 4678 2328 
Q 4678 1225 4090 567 
Q 3503 -91 2522 -91 
Q 1538 -91 948 565 
Q 359 1222 359 2328 
Q 359 3434 948 4092 
Q 1538 4750 2522 4750 
z
" transform="scale(0.015625)"/>
       <path id="DejaVuSans-70" d="M 1159 525 
L 1159 -1331 
L 581 -1331 
L 581 3500 
L 1159 3500 
L 1159 2969 
Q 1341 3281 1617 3432 
Q 1894 3584 2278 3584 
Q 2916 3584 3314 3078 
Q 3713 2572 3713 1747 
Q 3713 922 3314 415 
Q 2916 -91 2278 -91 
Q 1894 -91 1617 61 
Q 1341 213 1159 525 
z
M 3116 1747 
Q 3116 2381 2855 2742 
Q 2594 3103 2138 3103 
Q 1681 3103 1420 2742 
Q 1159 2381 1159 1747 
Q 1159 1113 1420 752 
Q 1681 391 2138 391 
Q 2594 391 2855 752 
Q 3116 1113 3116 1747 
z
" transform="scale(0.015625)"/>
       <path id="DejaVuSans-53" d="M 3425 4513 
L 3425 3897 
Q 3066 4069 2747 4153 
Q 2428 4238 2131 4238 
Q 1616 4238 1336 4038 
Q 1056 3838 1056 3469 
Q 1056 3159 1242 3001 
Q 1428 2844 1947 2747 
L 2328 2669 
Q 3034 2534 3370 2195 
Q 3706 1856 3706 1288 
Q 3706 609 3251 259 
Q 2797 -91 1919 -91 
Q 1588 -91 1214 -16 
Q 841 59 441 206 
L 441 856 
Q 825 641 1194 531 
Q 1563 422 1919 422 
Q 2459 422 2753 634 
Q 3047 847 3047 1241 
Q 3047 1584 2836 1778 
Q 2625 1972 2144 2069 
L 1759 2144 
Q 1053 2284 737 2584 
Q 422 2884 422 3419 
Q 422 4038 858 4394 
Q 1294 4750 2059 4750 
Q 2388 4750 2728 4690 
Q 3069 4631 3425 4513 
z
" transform="scale(0.015625)"/>
       <path id="DejaVuSans-75" d="M 544 1381 
L 544 3500 
L 1119 3500 
L 1119 1403 
Q 1119 906 1312 657 
Q 1506 409 1894 409 
Q 2359 409 2629 706 
Q 2900 1003 2900 1516 
L 2900 3500 
L 3475 3500 
L 3475 0 
L 2900 0 
L 2900 538 
Q 2691 219 2414 64 
Q 2138 -91 1772 -91 
Q 1169 -91 856 284 
Q 544 659 544 1381 
z
M 1991 3584 
L 1991 3584 
z
" transform="scale(0.015625)"/>
      </defs>
      <use xlink:href="#DejaVuSans-4f"/>
      <use xlink:href="#DejaVuSans-70" x="78.710938"/>
      <use xlink:href="#DejaVuSans-74" x="142.1875"/>
      <use xlink:href="#DejaVuSans-69" x="181.396484"/>
      <use xlink:href="#DejaVuSans-6d" x="209.179688"/>
      <use xlink:href="#DejaVuSans-61" x="306.591797"/>
      <use xlink:href="#DejaVuSans-6c" x="367.871094"/>
      <use xlink:href="#DejaVuSans-20" x="395.654297"/>
      <use xlink:href="#DejaVuSans-53" x="427.441406"/>
      <use xlink:href="#DejaVuSans-6f" x="490.917969"/>
      <use xlink:href="#DejaVuSans-6c" x="552.099609"/>
      <use xlink:href="#DejaVuSans-75" x="579.882812"/>
      <use xlink:href="#DejaVuSans-74" x="643.261719"/>
      <use xlink:href="#DejaVuSans-69" x="682.470703"/>
      <use xlink:href="#DejaVuSans-6f" x="710.253906"/>
      <use xlink:href="#DejaVuSans-6e" x="771.435547"/>
     </g>
    </g>
    <g id="line2d_33">
     <path d="M 397.91875 94.294688 
L 407.91875 94.294688 
L 417.91875 94.294688 
" style="fill: none; stroke: #0000ff; stroke-width: 1.5; stroke-linecap: square"/>
    </g>
    <g id="text_19">
     <!-- $2x_1 + x_2 = 6$ -->
     <g transform="translate(425.91875 97.794688) scale(0.1 -0.1)">
      <defs>
       <path id="DejaVuSans-2b" d="M 2944 4013 
L 2944 2272 
L 4684 2272 
L 4684 1741 
L 2944 1741 
L 2944 0 
L 2419 0 
L 2419 1741 
L 678 1741 
L 678 2272 
L 2419 2272 
L 2419 4013 
L 2944 4013 
z
" transform="scale(0.015625)"/>
       <path id="DejaVuSans-3d" d="M 678 2906 
L 4684 2906 
L 4684 2381 
L 678 2381 
L 678 2906 
z
M 678 1631 
L 4684 1631 
L 4684 1100 
L 678 1100 
L 678 1631 
z
" transform="scale(0.015625)"/>
      </defs>
      <use xlink:href="#DejaVuSans-32" transform="translate(0 0.78125)"/>
      <use xlink:href="#DejaVuSans-Oblique-78" transform="translate(63.623047 0.78125)"/>
      <use xlink:href="#DejaVuSans-31" transform="translate(122.802734 -15.625) scale(0.7)"/>
      <use xlink:href="#DejaVuSans-2b" transform="translate(189.555664 0.78125)"/>
      <use xlink:href="#DejaVuSans-Oblique-78" transform="translate(292.827148 0.78125)"/>
      <use xlink:href="#DejaVuSans-32" transform="translate(352.006836 -15.625) scale(0.7)"/>
      <use xlink:href="#DejaVuSans-3d" transform="translate(418.759766 0.78125)"/>
      <use xlink:href="#DejaVuSans-36" transform="translate(522.03125 0.78125)"/>
     </g>
    </g>
    <g id="line2d_34">
     <path d="M 397.91875 108.972813 
L 407.91875 108.972813 
L 417.91875 108.972813 
" style="fill: none; stroke-dasharray: 5.55,2.4; stroke-dashoffset: 0; stroke: #800080; stroke-width: 1.5"/>
    </g>
    <g id="text_20">
     <!-- $x_1 \geq 1$ -->
     <g transform="translate(425.91875 112.472813) scale(0.1 -0.1)">
      <defs>
       <path id="DejaVuSans-2265" d="M 678 3175 
L 678 3725 
L 4684 2578 
L 4684 2047 
L 678 897 
L 678 1453 
L 3681 2309 
L 678 3175 
z
M 4684 531 
L 4684 0 
L 678 0 
L 678 531 
L 4684 531 
z
" transform="scale(0.015625)"/>
      </defs>
      <use xlink:href="#DejaVuSans-Oblique-78" transform="translate(0 0.09375)"/>
      <use xlink:href="#DejaVuSans-31" transform="translate(59.179688 -16.3125) scale(0.7)"/>
      <use xlink:href="#DejaVuSans-2265" transform="translate(125.932617 0.09375)"/>
      <use xlink:href="#DejaVuSans-31" transform="translate(229.204102 0.09375)"/>
     </g>
    </g>
   </g>
  </g>
 </g>
 <defs>
  <clipPath id="pbec01a3cdf">
   <rect x="72" y="51.84" width="446.4" height="332.64"/>
  </clipPath>
 </defs>
</svg>
