<?xml version="1.0" encoding="utf-8" standalone="no"?>
<!DOCTYPE svg PUBLIC "-//W3C//DTD SVG 1.1//EN"
  "http://www.w3.org/Graphics/SVG/1.1/DTD/svg11.dtd">
<svg xmlns:xlink="http://www.w3.org/1999/xlink" width="460.8pt" height="345.6pt" viewBox="0 0 460.8 345.6" xmlns="http://www.w3.org/2000/svg" version="1.1">
 <metadata>
  <rdf:RDF xmlns:dc="http://purl.org/dc/elements/1.1/" xmlns:cc="http://creativecommons.org/ns#" xmlns:rdf="http://www.w3.org/1999/02/22-rdf-syntax-ns#">
   <cc:Work>
    <dc:type rdf:resource="http://purl.org/dc/dcmitype/StillImage"/>
    <dc:date>2024-11-01T18:53:30.123593</dc:date>
    <dc:format>image/svg+xml</dc:format>
    <dc:creator>
     <cc:Agent>
      <dc:title>Matplotlib v3.9.2, https://matplotlib.org/</dc:title>
     </cc:Agent>
    </dc:creator>
   </cc:Work>
  </rdf:RDF>
 </metadata>
 <defs>
  <style type="text/css">*{stroke-linejoin: round; stroke-linecap: butt}</style>
 </defs>
 <g id="figure_1">
  <g id="patch_1">
   <path d="M 0 345.6 
L 460.8 345.6 
L 460.8 0 
L 0 0 
z
" style="fill: #ffffff"/>
  </g>
  <g id="axes_1">
   <g id="patch_2">
    <path d="M 57.6 307.584 
L 414.72 307.584 
L 414.72 41.472 
L 57.6 41.472 
z
" style="fill: #ffffff"/>
   </g>
   <g id="PolyCollection_1">
    <defs>
     <path id="mbc4fd76b88" d="M 414.72 -259.776 
L 129.024 -259.776 
L 129.024 -259.220211 
L 129.024 -258.664421 
L 129.024 -258.108632 
L 129.024 -257.552842 
L 129.024 -256.997053 
L 129.024 -256.441263 
L 129.024 -255.885474 
L 129.024 -255.329684 
L 129.024 -254.773895 
L 129.024 -254.218105 
L 129.024 -253.662316 
L 129.024 -253.106526 
L 129.024 -252.550737 
L 129.024 -251.994947 
L 129.024 -251.439158 
L 129.024 -250.883368 
L 129.024 -250.327579 
L 129.024 -249.771789 
L 129.024 -249.216 
L 129.024 -248.660211 
L 129.024 -248.104421 
L 129.024 -247.548632 
L 129.024 -246.992842 
L 129.024 -246.437053 
L 129.024 -245.881263 
L 129.024 -245.325474 
L 129.024 -244.769684 
L 129.024 -244.213895 
L 129.024 -243.658105 
L 129.024 -243.102316 
L 129.024 -242.546526 
L 129.024 -241.990737 
L 129.024 -241.434947 
L 129.024 -240.879158 
L 129.024 -240.323368 
L 129.024 -239.767579 
L 129.024 -239.211789 
L 129.024 -238.656 
L 129.024 -238.100211 
L 129.024 -237.544421 
L 129.024 -236.988632 
L 129.024 -236.432842 
L 129.024 -235.877053 
L 129.024 -235.321263 
L 129.024 -234.765474 
L 129.024 -234.209684 
L 129.024 -233.653895 
L 129.024 -233.098105 
L 129.024 -232.542316 
L 129.024 -231.986526 
L 129.024 -231.430737 
L 129.024 -230.874947 
L 129.024 -230.319158 
L 129.024 -229.763368 
L 129.024 -229.207579 
L 129.024 -228.651789 
L 129.024 -228.096 
L 129.024 -227.540211 
L 129.024 -226.984421 
L 129.024 -226.428632 
L 129.024 -225.872842 
L 129.024 -225.317053 
L 129.024 -224.761263 
L 129.024 -224.205474 
L 129.024 -223.649684 
L 129.024 -223.093895 
L 129.024 -222.538105 
L 129.024 -221.982316 
L 129.024 -221.426526 
L 129.024 -220.870737 
L 129.024 -220.314947 
L 129.024 -219.759158 
L 129.024 -219.203368 
L 129.024 -218.647579 
L 129.024 -218.091789 
L 129.024 -217.536 
L 129.024 -216.980211 
L 129.024 -216.424421 
L 129.024 -215.868632 
L 129.024 -215.312842 
L 129.024 -214.757053 
L 129.024 -214.201263 
L 129.024 -213.645474 
L 129.024 -213.089684 
L 129.024 -212.533895 
L 129.024 -211.978105 
L 129.024 -211.422316 
L 129.024 -210.866526 
L 129.024 -210.310737 
L 129.024 -209.754947 
L 129.024 -209.199158 
L 129.024 -208.643368 
L 129.024 -208.087579 
L 129.024 -207.531789 
L 129.024 -206.976 
L 129.024 -206.420211 
L 129.024 -205.864421 
L 129.024 -205.308632 
L 129.024 -204.752842 
L 129.024 -204.197053 
L 129.024 -203.641263 
L 129.024 -203.085474 
L 129.024 -202.529684 
L 129.024 -201.973895 
L 129.024 -201.418105 
L 129.024 -200.862316 
L 129.024 -200.306526 
L 129.024 -199.750737 
L 129.024 -199.194947 
L 129.024 -198.639158 
L 129.024 -198.083368 
L 129.024 -197.527579 
L 129.024 -196.971789 
L 129.024 -196.416 
L 129.024 -195.860211 
L 129.024 -195.304421 
L 129.024 -194.748632 
L 129.024 -194.192842 
L 129.024 -193.637053 
L 129.024 -193.081263 
L 129.024 -192.525474 
L 129.024 -191.969684 
L 129.024 -191.413895 
L 129.024 -190.858105 
L 129.024 -190.302316 
L 129.024 -189.746526 
L 129.024 -189.190737 
L 129.024 -188.634947 
L 129.024 -188.079158 
L 129.024 -187.523368 
L 129.024 -186.967579 
L 129.024 -186.411789 
L 129.024 -185.856 
L 129.024 -185.300211 
L 129.024 -184.744421 
L 129.024 -184.188632 
L 129.024 -183.632842 
L 129.024 -183.077053 
L 129.024 -182.521263 
L 129.024 -181.965474 
L 129.024 -181.409684 
L 129.024 -180.853895 
L 129.024 -180.298105 
L 129.024 -179.742316 
L 129.024 -179.186526 
L 129.024 -178.630737 
L 129.024 -178.074947 
L 129.024 -177.519158 
L 129.024 -176.963368 
L 129.024 -176.407579 
L 129.024 -175.851789 
L 129.024 -175.296 
L 129.024 -174.740211 
L 129.024 -174.184421 
L 129.024 -173.628632 
L 129.024 -173.072842 
L 129.024 -172.517053 
L 129.024 -171.961263 
L 129.024 -171.405474 
L 129.024 -170.849684 
L 129.024 -170.293895 
L 129.024 -169.738105 
L 129.024 -169.182316 
L 129.024 -168.626526 
L 129.024 -168.070737 
L 129.024 -167.514947 
L 129.024 -166.959158 
L 129.024 -166.403368 
L 129.024 -165.847579 
L 129.024 -165.291789 
L 129.024 -164.736 
L 129.024 -164.180211 
L 129.024 -163.624421 
L 129.024 -163.068632 
L 129.024 -162.512842 
L 129.024 -161.957053 
L 129.024 -161.401263 
L 129.024 -160.845474 
L 129.024 -160.289684 
L 129.024 -159.733895 
L 129.024 -159.178105 
L 129.024 -158.622316 
L 129.024 -158.066526 
L 129.024 -157.510737 
L 129.024 -156.954947 
L 129.024 -156.399158 
L 129.024 -155.843368 
L 129.024 -155.287579 
L 129.024 -154.731789 
L 129.024 -154.176 
L 129.024 -153.620211 
L 129.024 -153.064421 
L 129.024 -152.508632 
L 129.024 -151.952842 
L 129.024 -151.397053 
L 129.024 -150.841263 
L 129.024 -150.285474 
L 129.024 -149.729684 
L 129.024 -149.173895 
L 129.024 -148.618105 
L 129.024 -148.062316 
L 129.024 -147.506526 
L 129.024 -146.950737 
L 129.024 -146.394947 
L 129.024 -145.839158 
L 129.024 -145.283368 
L 129.024 -144.727579 
L 129.024 -144.171789 
L 129.024 -143.616 
L 129.024 -143.060211 
L 129.024 -142.504421 
L 129.024 -141.948632 
L 129.024 -141.392842 
L 129.024 -140.837053 
L 129.024 -140.281263 
L 129.024 -139.725474 
L 129.024 -139.169684 
L 129.024 -138.613895 
L 129.024 -138.058105 
L 129.024 -137.502316 
L 129.024 -136.946526 
L 129.024 -136.390737 
L 129.024 -135.834947 
L 129.024 -135.279158 
L 129.024 -134.723368 
L 129.024 -134.167579 
L 129.024 -133.611789 
L 129.024 -133.056 
L 129.024 -132.500211 
L 129.024 -131.944421 
L 129.024 -131.388632 
L 129.024 -130.832842 
L 129.024 -130.277053 
L 129.024 -129.721263 
L 129.024 -129.165474 
L 129.024 -128.609684 
L 129.024 -128.053895 
L 129.024 -127.498105 
L 129.024 -126.942316 
L 129.024 -126.386526 
L 129.024 -125.830737 
L 129.024 -125.274947 
L 129.024 -124.719158 
L 129.024 -124.163368 
L 129.024 -123.607579 
L 129.024 -123.051789 
L 129.024 -122.496 
L 129.024 -121.940211 
L 129.024 -121.384421 
L 129.024 -120.828632 
L 129.024 -120.272842 
L 129.024 -119.717053 
L 129.024 -119.161263 
L 129.024 -118.605474 
L 129.024 -118.049684 
L 129.024 -117.493895 
L 129.024 -116.938105 
L 129.024 -116.382316 
L 129.024 -115.826526 
L 129.024 -115.270737 
L 129.024 -114.714947 
L 129.024 -114.159158 
L 129.024 -113.603368 
L 129.024 -113.047579 
L 129.024 -112.491789 
L 129.024 -111.936 
L 129.024 -111.380211 
L 129.024 -110.824421 
L 129.024 -110.268632 
L 129.024 -109.712842 
L 129.024 -109.157053 
L 129.024 -108.601263 
L 129.024 -108.045474 
L 129.024 -107.489684 
L 129.024 -106.933895 
L 129.024 -106.378105 
L 129.024 -105.822316 
L 129.024 -105.266526 
L 129.024 -104.710737 
L 129.024 -104.154947 
L 129.024 -103.599158 
L 129.024 -103.043368 
L 129.024 -102.487579 
L 129.024 -101.931789 
L 129.024 -101.376 
L 129.024 -100.820211 
L 129.024 -100.264421 
L 129.024 -99.708632 
L 129.024 -99.152842 
L 129.024 -98.597053 
L 129.024 -98.041263 
L 129.024 -97.485474 
L 129.024 -96.929684 
L 129.024 -96.373895 
L 129.024 -95.818105 
L 129.024 -95.262316 
L 129.024 -94.706526 
L 129.024 -94.150737 
L 129.024 -93.594947 
L 129.024 -93.039158 
L 129.024 -92.483368 
L 129.024 -91.927579 
L 129.024 -91.371789 
L 129.024 -90.816 
L 129.024 -90.260211 
L 129.024 -89.704421 
L 129.024 -89.148632 
L 129.024 -88.592842 
L 129.024 -88.037053 
L 129.024 -87.481263 
L 129.024 -86.925474 
L 129.024 -86.369684 
L 129.024 -85.813895 
L 129.024 -85.258105 
L 129.024 -84.702316 
L 129.024 -84.146526 
L 129.024 -83.590737 
L 129.024 -83.034947 
L 129.024 -82.479158 
L 129.024 -81.923368 
L 129.024 -81.367579 
L 129.024 -80.811789 
L 129.024 -80.256 
L 129.024 -79.700211 
L 129.024 -79.144421 
L 129.024 -78.588632 
L 129.024 -78.032842 
L 129.024 -77.477053 
L 129.024 -76.921263 
L 129.024 -76.365474 
L 129.024 -75.809684 
L 129.024 -75.253895 
L 129.024 -74.698105 
L 129.024 -74.142316 
L 129.024 -73.586526 
L 129.024 -73.030737 
L 129.024 -72.474947 
L 129.024 -71.919158 
L 129.024 -71.363368 
L 129.024 -70.807579 
L 129.024 -70.251789 
L 129.024 -69.696 
L 129.024 -69.140211 
L 129.024 -68.584421 
L 129.024 -68.028632 
L 129.024 -67.472842 
L 129.024 -66.917053 
L 129.024 -66.361263 
L 129.024 -65.805474 
L 129.024 -65.249684 
L 129.024 -64.693895 
L 129.024 -64.138105 
L 129.024 -63.582316 
L 129.024 -63.026526 
L 129.024 -62.470737 
L 129.024 -61.914947 
L 129.024 -61.359158 
L 129.024 -60.803368 
L 129.024 -60.247579 
L 129.024 -59.691789 
L 129.024 -59.136 
L 129.024 -58.580211 
L 129.024 -58.024421 
L 129.024 -57.468632 
L 129.024 -56.912842 
L 129.024 -56.357053 
L 129.024 -55.801263 
L 129.024 -55.245474 
L 129.024 -54.689684 
L 129.024 -54.133895 
L 129.024 -53.578105 
L 129.024 -53.022316 
L 129.024 -52.466526 
L 129.024 -51.910737 
L 129.024 -51.354947 
L 129.024 -50.799158 
L 129.024 -50.243368 
L 129.024 -49.687579 
L 129.024 -49.131789 
L 129.024 -48.576 
L 129.024 -48.020211 
L 129.024 -47.464421 
L 129.024 -46.908632 
L 129.024 -46.352842 
L 129.024 -45.797053 
L 129.024 -45.241263 
L 129.024 -44.685474 
L 129.024 -44.129684 
L 129.024 -43.573895 
L 129.024 -43.018105 
L 129.024 -42.462316 
L 129.024 -41.906526 
L 129.024 -41.350737 
L 129.024 -40.794947 
L 129.024 -40.239158 
L 129.024 -39.683368 
L 129.024 -39.127579 
L 129.024 -38.571789 
L 129.024 -38.016 
L 414.72 -38.016 
L 414.72 -38.016 
L 414.72 -38.571789 
L 414.72 -39.127579 
L 414.72 -39.683368 
L 414.72 -40.239158 
L 414.72 -40.794947 
L 414.72 -41.350737 
L 414.72 -41.906526 
L 414.72 -42.462316 
L 414.72 -43.018105 
L 414.72 -43.573895 
L 414.72 -44.129684 
L 414.72 -44.685474 
L 414.72 -45.241263 
L 414.72 -45.797053 
L 414.72 -46.352842 
L 414.72 -46.908632 
L 414.72 -47.464421 
L 414.72 -48.020211 
L 414.72 -48.576 
L 414.72 -49.131789 
L 414.72 -49.687579 
L 414.72 -50.243368 
L 414.72 -50.799158 
L 414.72 -51.354947 
L 414.72 -51.910737 
L 414.72 -52.466526 
L 414.72 -53.022316 
L 414.72 -53.578105 
L 414.72 -54.133895 
L 414.72 -54.689684 
L 414.72 -55.245474 
L 414.72 -55.801263 
L 414.72 -56.357053 
L 414.72 -56.912842 
L 414.72 -57.468632 
L 414.72 -58.024421 
L 414.72 -58.580211 
L 414.72 -59.136 
L 414.72 -59.691789 
L 414.72 -60.247579 
L 414.72 -60.803368 
L 414.72 -61.359158 
L 414.72 -61.914947 
L 414.72 -62.470737 
L 414.72 -63.026526 
L 414.72 -63.582316 
L 414.72 -64.138105 
L 414.72 -64.693895 
L 414.72 -65.249684 
L 414.72 -65.805474 
L 414.72 -66.361263 
L 414.72 -66.917053 
L 414.72 -67.472842 
L 414.72 -68.028632 
L 414.72 -68.584421 
L 414.72 -69.140211 
L 414.72 -69.696 
L 414.72 -70.251789 
L 414.72 -70.807579 
L 414.72 -71.363368 
L 414.72 -71.919158 
L 414.72 -72.474947 
L 414.72 -73.030737 
L 414.72 -73.586526 
L 414.72 -74.142316 
L 414.72 -74.698105 
L 414.72 -75.253895 
L 414.72 -75.809684 
L 414.72 -76.365474 
L 414.72 -76.921263 
L 414.72 -77.477053 
L 414.72 -78.032842 
L 414.72 -78.588632 
L 414.72 -79.144421 
L 414.72 -79.700211 
L 414.72 -80.256 
L 414.72 -80.811789 
L 414.72 -81.367579 
L 414.72 -81.923368 
L 414.72 -82.479158 
L 414.72 -83.034947 
L 414.72 -83.590737 
L 414.72 -84.146526 
L 414.72 -84.702316 
L 414.72 -85.258105 
L 414.72 -85.813895 
L 414.72 -86.369684 
L 414.72 -86.925474 
L 414.72 -87.481263 
L 414.72 -88.037053 
L 414.72 -88.592842 
L 414.72 -89.148632 
L 414.72 -89.704421 
L 414.72 -90.260211 
L 414.72 -90.816 
L 414.72 -91.371789 
L 414.72 -91.927579 
L 414.72 -92.483368 
L 414.72 -93.039158 
L 414.72 -93.594947 
L 414.72 -94.150737 
L 414.72 -94.706526 
L 414.72 -95.262316 
L 414.72 -95.818105 
L 414.72 -96.373895 
L 414.72 -96.929684 
L 414.72 -97.485474 
L 414.72 -98.041263 
L 414.72 -98.597053 
L 414.72 -99.152842 
L 414.72 -99.708632 
L 414.72 -100.264421 
L 414.72 -100.820211 
L 414.72 -101.376 
L 414.72 -101.931789 
L 414.72 -102.487579 
L 414.72 -103.043368 
L 414.72 -103.599158 
L 414.72 -104.154947 
L 414.72 -104.710737 
L 414.72 -105.266526 
L 414.72 -105.822316 
L 414.72 -106.378105 
L 414.72 -106.933895 
L 414.72 -107.489684 
L 414.72 -108.045474 
L 414.72 -108.601263 
L 414.72 -109.157053 
L 414.72 -109.712842 
L 414.72 -110.268632 
L 414.72 -110.824421 
L 414.72 -111.380211 
L 414.72 -111.936 
L 414.72 -112.491789 
L 414.72 -113.047579 
L 414.72 -113.603368 
L 414.72 -114.159158 
L 414.72 -114.714947 
L 414.72 -115.270737 
L 414.72 -115.826526 
L 414.72 -116.382316 
L 414.72 -116.938105 
L 414.72 -117.493895 
L 414.72 -118.049684 
L 414.72 -118.605474 
L 414.72 -119.161263 
L 414.72 -119.717053 
L 414.72 -120.272842 
L 414.72 -120.828632 
L 414.72 -121.384421 
L 414.72 -121.940211 
L 414.72 -122.496 
L 414.72 -123.051789 
L 414.72 -123.607579 
L 414.72 -124.163368 
L 414.72 -124.719158 
L 414.72 -125.274947 
L 414.72 -125.830737 
L 414.72 -126.386526 
L 414.72 -126.942316 
L 414.72 -127.498105 
L 414.72 -128.053895 
L 414.72 -128.609684 
L 414.72 -129.165474 
L 414.72 -129.721263 
L 414.72 -130.277053 
L 414.72 -130.832842 
L 414.72 -131.388632 
L 414.72 -131.944421 
L 414.72 -132.500211 
L 414.72 -133.056 
L 414.72 -133.611789 
L 414.72 -134.167579 
L 414.72 -134.723368 
L 414.72 -135.279158 
L 414.72 -135.834947 
L 414.72 -136.390737 
L 414.72 -136.946526 
L 414.72 -137.502316 
L 414.72 -138.058105 
L 414.72 -138.613895 
L 414.72 -139.169684 
L 414.72 -139.725474 
L 414.72 -140.281263 
L 414.72 -140.837053 
L 414.72 -141.392842 
L 414.72 -141.948632 
L 414.72 -142.504421 
L 414.72 -143.060211 
L 414.72 -143.616 
L 414.72 -144.171789 
L 414.72 -144.727579 
L 414.72 -145.283368 
L 414.72 -145.839158 
L 414.72 -146.394947 
L 414.72 -146.950737 
L 414.72 -147.506526 
L 414.72 -148.062316 
L 414.72 -148.618105 
L 414.72 -149.173895 
L 414.72 -149.729684 
L 414.72 -150.285474 
L 414.72 -150.841263 
L 414.72 -151.397053 
L 414.72 -151.952842 
L 414.72 -152.508632 
L 414.72 -153.064421 
L 414.72 -153.620211 
L 414.72 -154.176 
L 414.72 -154.731789 
L 414.72 -155.287579 
L 414.72 -155.843368 
L 414.72 -156.399158 
L 414.72 -156.954947 
L 414.72 -157.510737 
L 414.72 -158.066526 
L 414.72 -158.622316 
L 414.72 -159.178105 
L 414.72 -159.733895 
L 414.72 -160.289684 
L 414.72 -160.845474 
L 414.72 -161.401263 
L 414.72 -161.957053 
L 414.72 -162.512842 
L 414.72 -163.068632 
L 414.72 -163.624421 
L 414.72 -164.180211 
L 414.72 -164.736 
L 414.72 -165.291789 
L 414.72 -165.847579 
L 414.72 -166.403368 
L 414.72 -166.959158 
L 414.72 -167.514947 
L 414.72 -168.070737 
L 414.72 -168.626526 
L 414.72 -169.182316 
L 414.72 -169.738105 
L 414.72 -170.293895 
L 414.72 -170.849684 
L 414.72 -171.405474 
L 414.72 -171.961263 
L 414.72 -172.517053 
L 414.72 -173.072842 
L 414.72 -173.628632 
L 414.72 -174.184421 
L 414.72 -174.740211 
L 414.72 -175.296 
L 414.72 -175.851789 
L 414.72 -176.407579 
L 414.72 -176.963368 
L 414.72 -177.519158 
L 414.72 -178.074947 
L 414.72 -178.630737 
L 414.72 -179.186526 
L 414.72 -179.742316 
L 414.72 -180.298105 
L 414.72 -180.853895 
L 414.72 -181.409684 
L 414.72 -181.965474 
L 414.72 -182.521263 
L 414.72 -183.077053 
L 414.72 -183.632842 
L 414.72 -184.188632 
L 414.72 -184.744421 
L 414.72 -185.300211 
L 414.72 -185.856 
L 414.72 -186.411789 
L 414.72 -186.967579 
L 414.72 -187.523368 
L 414.72 -188.079158 
L 414.72 -188.634947 
L 414.72 -189.190737 
L 414.72 -189.746526 
L 414.72 -190.302316 
L 414.72 -190.858105 
L 414.72 -191.413895 
L 414.72 -191.969684 
L 414.72 -192.525474 
L 414.72 -193.081263 
L 414.72 -193.637053 
L 414.72 -194.192842 
L 414.72 -194.748632 
L 414.72 -195.304421 
L 414.72 -195.860211 
L 414.72 -196.416 
L 414.72 -196.971789 
L 414.72 -197.527579 
L 414.72 -198.083368 
L 414.72 -198.639158 
L 414.72 -199.194947 
L 414.72 -199.750737 
L 414.72 -200.306526 
L 414.72 -200.862316 
L 414.72 -201.418105 
L 414.72 -201.973895 
L 414.72 -202.529684 
L 414.72 -203.085474 
L 414.72 -203.641263 
L 414.72 -204.197053 
L 414.72 -204.752842 
L 414.72 -205.308632 
L 414.72 -205.864421 
L 414.72 -206.420211 
L 414.72 -206.976 
L 414.72 -207.531789 
L 414.72 -208.087579 
L 414.72 -208.643368 
L 414.72 -209.199158 
L 414.72 -209.754947 
L 414.72 -210.310737 
L 414.72 -210.866526 
L 414.72 -211.422316 
L 414.72 -211.978105 
L 414.72 -212.533895 
L 414.72 -213.089684 
L 414.72 -213.645474 
L 414.72 -214.201263 
L 414.72 -214.757053 
L 414.72 -215.312842 
L 414.72 -215.868632 
L 414.72 -216.424421 
L 414.72 -216.980211 
L 414.72 -217.536 
L 414.72 -218.091789 
L 414.72 -218.647579 
L 414.72 -219.203368 
L 414.72 -219.759158 
L 414.72 -220.314947 
L 414.72 -220.870737 
L 414.72 -221.426526 
L 414.72 -221.982316 
L 414.72 -222.538105 
L 414.72 -223.093895 
L 414.72 -223.649684 
L 414.72 -224.205474 
L 414.72 -224.761263 
L 414.72 -225.317053 
L 414.72 -225.872842 
L 414.72 -226.428632 
L 414.72 -226.984421 
L 414.72 -227.540211 
L 414.72 -228.096 
L 414.72 -228.651789 
L 414.72 -229.207579 
L 414.72 -229.763368 
L 414.72 -230.319158 
L 414.72 -230.874947 
L 414.72 -231.430737 
L 414.72 -231.986526 
L 414.72 -232.542316 
L 414.72 -233.098105 
L 414.72 -233.653895 
L 414.72 -234.209684 
L 414.72 -234.765474 
L 414.72 -235.321263 
L 414.72 -235.877053 
L 414.72 -236.432842 
L 414.72 -236.988632 
L 414.72 -237.544421 
L 414.72 -238.100211 
L 414.72 -238.656 
L 414.72 -239.211789 
L 414.72 -239.767579 
L 414.72 -240.323368 
L 414.72 -240.879158 
L 414.72 -241.434947 
L 414.72 -241.990737 
L 414.72 -242.546526 
L 414.72 -243.102316 
L 414.72 -243.658105 
L 414.72 -244.213895 
L 414.72 -244.769684 
L 414.72 -245.325474 
L 414.72 -245.881263 
L 414.72 -246.437053 
L 414.72 -246.992842 
L 414.72 -247.548632 
L 414.72 -248.104421 
L 414.72 -248.660211 
L 414.72 -249.216 
L 414.72 -249.771789 
L 414.72 -250.327579 
L 414.72 -250.883368 
L 414.72 -251.439158 
L 414.72 -251.994947 
L 414.72 -252.550737 
L 414.72 -253.106526 
L 414.72 -253.662316 
L 414.72 -254.218105 
L 414.72 -254.773895 
L 414.72 -255.329684 
L 414.72 -255.885474 
L 414.72 -256.441263 
L 414.72 -256.997053 
L 414.72 -257.552842 
L 414.72 -258.108632 
L 414.72 -258.664421 
L 414.72 -259.220211 
L 414.72 -259.776 
z
" style="stroke: #808080; stroke-opacity: 0.3"/>
    </defs>
    <g clip-path="url(#p257dcd9320)">
     <use xlink:href="#mbc4fd76b88" x="0" y="345.6" style="fill: #808080; fill-opacity: 0.3; stroke: #808080; stroke-opacity: 0.3"/>
    </g>
   </g>
   <g id="matplotlib.axis_1">
    <g id="xtick_1">
     <g id="line2d_1">
      <path d="M 57.6 307.584 
L 57.6 41.472 
" clip-path="url(#p257dcd9320)" style="fill: none; stroke: #b0b0b0; stroke-width: 0.8; stroke-linecap: square"/>
     </g>
     <g id="line2d_2">
      <defs>
       <path id="mbaf939f473" d="M 0 0 
L 0 3.5 
" style="stroke: #000000; stroke-width: 0.8"/>
      </defs>
      <g>
       <use xlink:href="#mbaf939f473" x="57.6" y="307.584" style="stroke: #000000; stroke-width: 0.8"/>
      </g>
     </g>
     <g id="text_1">
      <!-- 0 -->
      <g transform="translate(54.41875 322.182437) scale(0.1 -0.1)">
       <defs>
        <path id="DejaVuSans-30" d="M 2034 4250 
Q 1547 4250 1301 3770 
Q 1056 3291 1056 2328 
Q 1056 1369 1301 889 
Q 1547 409 2034 409 
Q 2525 409 2770 889 
Q 3016 1369 3016 2328 
Q 3016 3291 2770 3770 
Q 2525 4250 2034 4250 
z
M 2034 4750 
Q 2819 4750 3233 4129 
Q 3647 3509 3647 2328 
Q 3647 1150 3233 529 
Q 2819 -91 2034 -91 
Q 1250 -91 836 529 
Q 422 1150 422 2328 
Q 422 3509 836 4129 
Q 1250 4750 2034 4750 
z
" transform="scale(0.015625)"/>
       </defs>
       <use xlink:href="#DejaVuSans-30"/>
      </g>
     </g>
    </g>
    <g id="xtick_2">
     <g id="line2d_3">
      <path d="M 129.024 307.584 
L 129.024 41.472 
" clip-path="url(#p257dcd9320)" style="fill: none; stroke: #b0b0b0; stroke-width: 0.8; stroke-linecap: square"/>
     </g>
     <g id="line2d_4">
      <g>
       <use xlink:href="#mbaf939f473" x="129.024" y="307.584" style="stroke: #000000; stroke-width: 0.8"/>
      </g>
     </g>
     <g id="text_2">
      <!-- 1 -->
      <g transform="translate(125.84275 322.182437) scale(0.1 -0.1)">
       <defs>
        <path id="DejaVuSans-31" d="M 794 531 
L 1825 531 
L 1825 4091 
L 703 3866 
L 703 4441 
L 1819 4666 
L 2450 4666 
L 2450 531 
L 3481 531 
L 3481 0 
L 794 0 
L 794 531 
z
" transform="scale(0.015625)"/>
       </defs>
       <use xlink:href="#DejaVuSans-31"/>
      </g>
     </g>
    </g>
    <g id="xtick_3">
     <g id="line2d_5">
      <path d="M 200.448 307.584 
L 200.448 41.472 
" clip-path="url(#p257dcd9320)" style="fill: none; stroke: #b0b0b0; stroke-width: 0.8; stroke-linecap: square"/>
     </g>
     <g id="line2d_6">
      <g>
       <use xlink:href="#mbaf939f473" x="200.448" y="307.584" style="stroke: #000000; stroke-width: 0.8"/>
      </g>
     </g>
     <g id="text_3">
      <!-- 2 -->
      <g transform="translate(197.26675 322.182437) scale(0.1 -0.1)">
       <defs>
        <path id="DejaVuSans-32" d="M 1228 531 
L 3431 531 
L 3431 0 
L 469 0 
L 469 531 
Q 828 903 1448 1529 
Q 2069 2156 2228 2338 
Q 2531 2678 2651 2914 
Q 2772 3150 2772 3378 
Q 2772 3750 2511 3984 
Q 2250 4219 1831 4219 
Q 1534 4219 1204 4116 
Q 875 4013 500 3803 
L 500 4441 
Q 881 4594 1212 4672 
Q 1544 4750 1819 4750 
Q 2544 4750 2975 4387 
Q 3406 4025 3406 3419 
Q 3406 3131 3298 2873 
Q 3191 2616 2906 2266 
Q 2828 2175 2409 1742 
Q 1991 1309 1228 531 
z
" transform="scale(0.015625)"/>
       </defs>
       <use xlink:href="#DejaVuSans-32"/>
      </g>
     </g>
    </g>
    <g id="xtick_4">
     <g id="line2d_7">
      <path d="M 271.872 307.584 
L 271.872 41.472 
" clip-path="url(#p257dcd9320)" style="fill: none; stroke: #b0b0b0; stroke-width: 0.8; stroke-linecap: square"/>
     </g>
     <g id="line2d_8">
      <g>
       <use xlink:href="#mbaf939f473" x="271.872" y="307.584" style="stroke: #000000; stroke-width: 0.8"/>
      </g>
     </g>
     <g id="text_4">
      <!-- 3 -->
      <g transform="translate(268.69075 322.182437) scale(0.1 -0.1)">
       <defs>
        <path id="DejaVuSans-33" d="M 2597 2516 
Q 3050 2419 3304 2112 
Q 3559 1806 3559 1356 
Q 3559 666 3084 287 
Q 2609 -91 1734 -91 
Q 1441 -91 1130 -33 
Q 819 25 488 141 
L 488 750 
Q 750 597 1062 519 
Q 1375 441 1716 441 
Q 2309 441 2620 675 
Q 2931 909 2931 1356 
Q 2931 1769 2642 2001 
Q 2353 2234 1838 2234 
L 1294 2234 
L 1294 2753 
L 1863 2753 
Q 2328 2753 2575 2939 
Q 2822 3125 2822 3475 
Q 2822 3834 2567 4026 
Q 2313 4219 1838 4219 
Q 1578 4219 1281 4162 
Q 984 4106 628 3988 
L 628 4550 
Q 988 4650 1302 4700 
Q 1616 4750 1894 4750 
Q 2613 4750 3031 4423 
Q 3450 4097 3450 3541 
Q 3450 3153 3228 2886 
Q 3006 2619 2597 2516 
z
" transform="scale(0.015625)"/>
       </defs>
       <use xlink:href="#DejaVuSans-33"/>
      </g>
     </g>
    </g>
    <g id="xtick_5">
     <g id="line2d_9">
      <path d="M 343.296 307.584 
L 343.296 41.472 
" clip-path="url(#p257dcd9320)" style="fill: none; stroke: #b0b0b0; stroke-width: 0.8; stroke-linecap: square"/>
     </g>
     <g id="line2d_10">
      <g>
       <use xlink:href="#mbaf939f473" x="343.296" y="307.584" style="stroke: #000000; stroke-width: 0.8"/>
      </g>
     </g>
     <g id="text_5">
      <!-- 4 -->
      <g transform="translate(340.11475 322.182437) scale(0.1 -0.1)">
       <defs>
        <path id="DejaVuSans-34" d="M 2419 4116 
L 825 1625 
L 2419 1625 
L 2419 4116 
z
M 2253 4666 
L 3047 4666 
L 3047 1625 
L 3713 1625 
L 3713 1100 
L 3047 1100 
L 3047 0 
L 2419 0 
L 2419 1100 
L 313 1100 
L 313 1709 
L 2253 4666 
z
" transform="scale(0.015625)"/>
       </defs>
       <use xlink:href="#DejaVuSans-34"/>
      </g>
     </g>
    </g>
    <g id="xtick_6">
     <g id="line2d_11">
      <path d="M 414.72 307.584 
L 414.72 41.472 
" clip-path="url(#p257dcd9320)" style="fill: none; stroke: #b0b0b0; stroke-width: 0.8; stroke-linecap: square"/>
     </g>
     <g id="line2d_12">
      <g>
       <use xlink:href="#mbaf939f473" x="414.72" y="307.584" style="stroke: #000000; stroke-width: 0.8"/>
      </g>
     </g>
     <g id="text_6">
      <!-- 5 -->
      <g transform="translate(411.53875 322.182437) scale(0.1 -0.1)">
       <defs>
        <path id="DejaVuSans-35" d="M 691 4666 
L 3169 4666 
L 3169 4134 
L 1269 4134 
L 1269 2991 
Q 1406 3038 1543 3061 
Q 1681 3084 1819 3084 
Q 2600 3084 3056 2656 
Q 3513 2228 3513 1497 
Q 3513 744 3044 326 
Q 2575 -91 1722 -91 
Q 1428 -91 1123 -41 
Q 819 9 494 109 
L 494 744 
Q 775 591 1075 516 
Q 1375 441 1709 441 
Q 2250 441 2565 725 
Q 2881 1009 2881 1497 
Q 2881 1984 2565 2268 
Q 2250 2553 1709 2553 
Q 1456 2553 1204 2497 
Q 953 2441 691 2322 
L 691 4666 
z
" transform="scale(0.015625)"/>
       </defs>
       <use xlink:href="#DejaVuSans-35"/>
      </g>
     </g>
    </g>
    <g id="text_7">
     <!-- $x_1$ -->
     <g transform="translate(230.81 335.860562) scale(0.1 -0.1)">
      <defs>
       <path id="DejaVuSans-Oblique-78" d="M 3841 3500 
L 2234 1784 
L 3219 0 
L 2559 0 
L 1819 1388 
L 531 0 
L -166 0 
L 1556 1844 
L 641 3500 
L 1300 3500 
L 1972 2234 
L 3144 3500 
L 3841 3500 
z
" transform="scale(0.015625)"/>
      </defs>
      <use xlink:href="#DejaVuSans-Oblique-78" transform="translate(0 0.3125)"/>
      <use xlink:href="#DejaVuSans-31" transform="translate(59.179688 -16.09375) scale(0.7)"/>
     </g>
    </g>
   </g>
   <g id="matplotlib.axis_2">
    <g id="ytick_1">
     <g id="line2d_13">
      <path d="M 57.6 307.584 
L 414.72 307.584 
" clip-path="url(#p257dcd9320)" style="fill: none; stroke: #b0b0b0; stroke-width: 0.8; stroke-linecap: square"/>
     </g>
     <g id="line2d_14">
      <defs>
       <path id="mdf8e2f4077" d="M 0 0 
L -3.5 0 
" style="stroke: #000000; stroke-width: 0.8"/>
      </defs>
      <g>
       <use xlink:href="#mdf8e2f4077" x="57.6" y="307.584" style="stroke: #000000; stroke-width: 0.8"/>
      </g>
     </g>
     <g id="text_8">
      <!-- 0.0 -->
      <g transform="translate(34.696875 311.383219) scale(0.1 -0.1)">
       <defs>
        <path id="DejaVuSans-2e" d="M 684 794 
L 1344 794 
L 1344 0 
L 684 0 
L 684 794 
z
" transform="scale(0.015625)"/>
       </defs>
       <use xlink:href="#DejaVuSans-30"/>
       <use xlink:href="#DejaVuSans-2e" x="63.623047"/>
       <use xlink:href="#DejaVuSans-30" x="95.410156"/>
      </g>
     </g>
    </g>
    <g id="ytick_2">
     <g id="line2d_15">
      <path d="M 57.6 263.232 
L 414.72 263.232 
" clip-path="url(#p257dcd9320)" style="fill: none; stroke: #b0b0b0; stroke-width: 0.8; stroke-linecap: square"/>
     </g>
     <g id="line2d_16">
      <g>
       <use xlink:href="#mdf8e2f4077" x="57.6" y="263.232" style="stroke: #000000; stroke-width: 0.8"/>
      </g>
     </g>
     <g id="text_9">
      <!-- 0.5 -->
      <g transform="translate(34.696875 267.031219) scale(0.1 -0.1)">
       <use xlink:href="#DejaVuSans-30"/>
       <use xlink:href="#DejaVuSans-2e" x="63.623047"/>
       <use xlink:href="#DejaVuSans-35" x="95.410156"/>
      </g>
     </g>
    </g>
    <g id="ytick_3">
     <g id="line2d_17">
      <path d="M 57.6 218.88 
L 414.72 218.88 
" clip-path="url(#p257dcd9320)" style="fill: none; stroke: #b0b0b0; stroke-width: 0.8; stroke-linecap: square"/>
     </g>
     <g id="line2d_18">
      <g>
       <use xlink:href="#mdf8e2f4077" x="57.6" y="218.88" style="stroke: #000000; stroke-width: 0.8"/>
      </g>
     </g>
     <g id="text_10">
      <!-- 1.0 -->
      <g transform="translate(34.696875 222.679219) scale(0.1 -0.1)">
       <use xlink:href="#DejaVuSans-31"/>
       <use xlink:href="#DejaVuSans-2e" x="63.623047"/>
       <use xlink:href="#DejaVuSans-30" x="95.410156"/>
      </g>
     </g>
    </g>
    <g id="ytick_4">
     <g id="line2d_19">
      <path d="M 57.6 174.528 
L 414.72 174.528 
" clip-path="url(#p257dcd9320)" style="fill: none; stroke: #b0b0b0; stroke-width: 0.8; stroke-linecap: square"/>
     </g>
     <g id="line2d_20">
      <g>
       <use xlink:href="#mdf8e2f4077" x="57.6" y="174.528" style="stroke: #000000; stroke-width: 0.8"/>
      </g>
     </g>
     <g id="text_11">
      <!-- 1.5 -->
      <g transform="translate(34.696875 178.327219) scale(0.1 -0.1)">
       <use xlink:href="#DejaVuSans-31"/>
       <use xlink:href="#DejaVuSans-2e" x="63.623047"/>
       <use xlink:href="#DejaVuSans-35" x="95.410156"/>
      </g>
     </g>
    </g>
    <g id="ytick_5">
     <g id="line2d_21">
      <path d="M 57.6 130.176 
L 414.72 130.176 
" clip-path="url(#p257dcd9320)" style="fill: none; stroke: #b0b0b0; stroke-width: 0.8; stroke-linecap: square"/>
     </g>
     <g id="line2d_22">
      <g>
       <use xlink:href="#mdf8e2f4077" x="57.6" y="130.176" style="stroke: #000000; stroke-width: 0.8"/>
      </g>
     </g>
     <g id="text_12">
      <!-- 2.0 -->
      <g transform="translate(34.696875 133.975219) scale(0.1 -0.1)">
       <use xlink:href="#DejaVuSans-32"/>
       <use xlink:href="#DejaVuSans-2e" x="63.623047"/>
       <use xlink:href="#DejaVuSans-30" x="95.410156"/>
      </g>
     </g>
    </g>
    <g id="ytick_6">
     <g id="line2d_23">
      <path d="M 57.6 85.824 
L 414.72 85.824 
" clip-path="url(#p257dcd9320)" style="fill: none; stroke: #b0b0b0; stroke-width: 0.8; stroke-linecap: square"/>
     </g>
     <g id="line2d_24">
      <g>
       <use xlink:href="#mdf8e2f4077" x="57.6" y="85.824" style="stroke: #000000; stroke-width: 0.8"/>
      </g>
     </g>
     <g id="text_13">
      <!-- 2.5 -->
      <g transform="translate(34.696875 89.623219) scale(0.1 -0.1)">
       <use xlink:href="#DejaVuSans-32"/>
       <use xlink:href="#DejaVuSans-2e" x="63.623047"/>
       <use xlink:href="#DejaVuSans-35" x="95.410156"/>
      </g>
     </g>
    </g>
    <g id="ytick_7">
     <g id="line2d_25">
      <path d="M 57.6 41.472 
L 414.72 41.472 
" clip-path="url(#p257dcd9320)" style="fill: none; stroke: #b0b0b0; stroke-width: 0.8; stroke-linecap: square"/>
     </g>
     <g id="line2d_26">
      <g>
       <use xlink:href="#mdf8e2f4077" x="57.6" y="41.472" style="stroke: #000000; stroke-width: 0.8"/>
      </g>
     </g>
     <g id="text_14">
      <!-- 3.0 -->
      <g transform="translate(34.696875 45.271219) scale(0.1 -0.1)">
       <use xlink:href="#DejaVuSans-33"/>
       <use xlink:href="#DejaVuSans-2e" x="63.623047"/>
       <use xlink:href="#DejaVuSans-30" x="95.410156"/>
      </g>
     </g>
    </g>
    <g id="text_15">
     <!-- $x_2$ -->
     <g transform="translate(28.617188 179.878) rotate(-90) scale(0.1 -0.1)">
      <use xlink:href="#DejaVuSans-Oblique-78" transform="translate(0 0.3125)"/>
      <use xlink:href="#DejaVuSans-32" transform="translate(59.179688 -16.09375) scale(0.7)"/>
     </g>
    </g>
   </g>
   <g id="line2d_27">
    <path d="M 57.6 85.824 
L 414.72 307.584 
L 414.72 307.584 
" clip-path="url(#p257dcd9320)" style="fill: none; stroke: #0000ff; stroke-width: 1.5; stroke-linecap: square"/>
   </g>
   <g id="line2d_28">
    <path d="M 57.6 307.584 
L 57.6 41.472 
" clip-path="url(#p257dcd9320)" style="fill: none; stroke: #000000; stroke-width: 0.5; stroke-linecap: square"/>
   </g>
   <g id="line2d_29">
    <path d="M 57.6 307.584 
L 414.72 307.584 
" clip-path="url(#p257dcd9320)" style="fill: none; stroke: #000000; stroke-width: 0.5; stroke-linecap: square"/>
   </g>
   <g id="patch_3">
    <path d="M 57.6 307.584 
L 57.6 41.472 
" style="fill: none; stroke: #000000; stroke-width: 0.8; stroke-linejoin: miter; stroke-linecap: square"/>
   </g>
   <g id="patch_4">
    <path d="M 414.72 307.584 
L 414.72 41.472 
" style="fill: none; stroke: #000000; stroke-width: 0.8; stroke-linejoin: miter; stroke-linecap: square"/>
   </g>
   <g id="patch_5">
    <path d="M 57.6 307.584 
L 414.72 307.584 
" style="fill: none; stroke: #000000; stroke-width: 0.8; stroke-linejoin: miter; stroke-linecap: square"/>
   </g>
   <g id="patch_6">
    <path d="M 57.6 41.472 
L 414.72 41.472 
" style="fill: none; stroke: #000000; stroke-width: 0.8; stroke-linejoin: miter; stroke-linecap: square"/>
   </g>
   <g id="text_16">
    <!-- Feasible Region for Problem 4.3(a) -->
    <g transform="translate(132.863438 35.472) scale(0.12 -0.12)">
     <defs>
      <path id="DejaVuSans-46" d="M 628 4666 
L 3309 4666 
L 3309 4134 
L 1259 4134 
L 1259 2759 
L 3109 2759 
L 3109 2228 
L 1259 2228 
L 1259 0 
L 628 0 
L 628 4666 
z
" transform="scale(0.015625)"/>
      <path id="DejaVuSans-65" d="M 3597 1894 
L 3597 1613 
L 953 1613 
Q 991 1019 1311 708 
Q 1631 397 2203 397 
Q 2534 397 2845 478 
Q 3156 559 3463 722 
L 3463 178 
Q 3153 47 2828 -22 
Q 2503 -91 2169 -91 
Q 1331 -91 842 396 
Q 353 884 353 1716 
Q 353 2575 817 3079 
Q 1281 3584 2069 3584 
Q 2775 3584 3186 3129 
Q 3597 2675 3597 1894 
z
M 3022 2063 
Q 3016 2534 2758 2815 
Q 2500 3097 2075 3097 
Q 1594 3097 1305 2825 
Q 1016 2553 972 2059 
L 3022 2063 
z
" transform="scale(0.015625)"/>
      <path id="DejaVuSans-61" d="M 2194 1759 
Q 1497 1759 1228 1600 
Q 959 1441 959 1056 
Q 959 750 1161 570 
Q 1363 391 1709 391 
Q 2188 391 2477 730 
Q 2766 1069 2766 1631 
L 2766 1759 
L 2194 1759 
z
M 3341 1997 
L 3341 0 
L 2766 0 
L 2766 531 
Q 2569 213 2275 61 
Q 1981 -91 1556 -91 
Q 1019 -91 701 211 
Q 384 513 384 1019 
Q 384 1609 779 1909 
Q 1175 2209 1959 2209 
L 2766 2209 
L 2766 2266 
Q 2766 2663 2505 2880 
Q 2244 3097 1772 3097 
Q 1472 3097 1187 3025 
Q 903 2953 641 2809 
L 641 3341 
Q 956 3463 1253 3523 
Q 1550 3584 1831 3584 
Q 2591 3584 2966 3190 
Q 3341 2797 3341 1997 
z
" transform="scale(0.015625)"/>
      <path id="DejaVuSans-73" d="M 2834 3397 
L 2834 2853 
Q 2591 2978 2328 3040 
Q 2066 3103 1784 3103 
Q 1356 3103 1142 2972 
Q 928 2841 928 2578 
Q 928 2378 1081 2264 
Q 1234 2150 1697 2047 
L 1894 2003 
Q 2506 1872 2764 1633 
Q 3022 1394 3022 966 
Q 3022 478 2636 193 
Q 2250 -91 1575 -91 
Q 1294 -91 989 -36 
Q 684 19 347 128 
L 347 722 
Q 666 556 975 473 
Q 1284 391 1588 391 
Q 1994 391 2212 530 
Q 2431 669 2431 922 
Q 2431 1156 2273 1281 
Q 2116 1406 1581 1522 
L 1381 1569 
Q 847 1681 609 1914 
Q 372 2147 372 2553 
Q 372 3047 722 3315 
Q 1072 3584 1716 3584 
Q 2034 3584 2315 3537 
Q 2597 3491 2834 3397 
z
" transform="scale(0.015625)"/>
      <path id="DejaVuSans-69" d="M 603 3500 
L 1178 3500 
L 1178 0 
L 603 0 
L 603 3500 
z
M 603 4863 
L 1178 4863 
L 1178 4134 
L 603 4134 
L 603 4863 
z
" transform="scale(0.015625)"/>
      <path id="DejaVuSans-62" d="M 3116 1747 
Q 3116 2381 2855 2742 
Q 2594 3103 2138 3103 
Q 1681 3103 1420 2742 
Q 1159 2381 1159 1747 
Q 1159 1113 1420 752 
Q 1681 391 2138 391 
Q 2594 391 2855 752 
Q 3116 1113 3116 1747 
z
M 1159 2969 
Q 1341 3281 1617 3432 
Q 1894 3584 2278 3584 
Q 2916 3584 3314 3078 
Q 3713 2572 3713 1747 
Q 3713 922 3314 415 
Q 2916 -91 2278 -91 
Q 1894 -91 1617 61 
Q 1341 213 1159 525 
L 1159 0 
L 581 0 
L 581 4863 
L 1159 4863 
L 1159 2969 
z
" transform="scale(0.015625)"/>
      <path id="DejaVuSans-6c" d="M 603 4863 
L 1178 4863 
L 1178 0 
L 603 0 
L 603 4863 
z
" transform="scale(0.015625)"/>
      <path id="DejaVuSans-20" transform="scale(0.015625)"/>
      <path id="DejaVuSans-52" d="M 2841 2188 
Q 3044 2119 3236 1894 
Q 3428 1669 3622 1275 
L 4263 0 
L 3584 0 
L 2988 1197 
Q 2756 1666 2539 1819 
Q 2322 1972 1947 1972 
L 1259 1972 
L 1259 0 
L 628 0 
L 628 4666 
L 2053 4666 
Q 2853 4666 3247 4331 
Q 3641 3997 3641 3322 
Q 3641 2881 3436 2590 
Q 3231 2300 2841 2188 
z
M 1259 4147 
L 1259 2491 
L 2053 2491 
Q 2509 2491 2742 2702 
Q 2975 2913 2975 3322 
Q 2975 3731 2742 3939 
Q 2509 4147 2053 4147 
L 1259 4147 
z
" transform="scale(0.015625)"/>
      <path id="DejaVuSans-67" d="M 2906 1791 
Q 2906 2416 2648 2759 
Q 2391 3103 1925 3103 
Q 1463 3103 1205 2759 
Q 947 2416 947 1791 
Q 947 1169 1205 825 
Q 1463 481 1925 481 
Q 2391 481 2648 825 
Q 2906 1169 2906 1791 
z
M 3481 434 
Q 3481 -459 3084 -895 
Q 2688 -1331 1869 -1331 
Q 1566 -1331 1297 -1286 
Q 1028 -1241 775 -1147 
L 775 -588 
Q 1028 -725 1275 -790 
Q 1522 -856 1778 -856 
Q 2344 -856 2625 -561 
Q 2906 -266 2906 331 
L 2906 616 
Q 2728 306 2450 153 
Q 2172 0 1784 0 
Q 1141 0 747 490 
Q 353 981 353 1791 
Q 353 2603 747 3093 
Q 1141 3584 1784 3584 
Q 2172 3584 2450 3431 
Q 2728 3278 2906 2969 
L 2906 3500 
L 3481 3500 
L 3481 434 
z
" transform="scale(0.015625)"/>
      <path id="DejaVuSans-6f" d="M 1959 3097 
Q 1497 3097 1228 2736 
Q 959 2375 959 1747 
Q 959 1119 1226 758 
Q 1494 397 1959 397 
Q 2419 397 2687 759 
Q 2956 1122 2956 1747 
Q 2956 2369 2687 2733 
Q 2419 3097 1959 3097 
z
M 1959 3584 
Q 2709 3584 3137 3096 
Q 3566 2609 3566 1747 
Q 3566 888 3137 398 
Q 2709 -91 1959 -91 
Q 1206 -91 779 398 
Q 353 888 353 1747 
Q 353 2609 779 3096 
Q 1206 3584 1959 3584 
z
" transform="scale(0.015625)"/>
      <path id="DejaVuSans-6e" d="M 3513 2113 
L 3513 0 
L 2938 0 
L 2938 2094 
Q 2938 2591 2744 2837 
Q 2550 3084 2163 3084 
Q 1697 3084 1428 2787 
Q 1159 2491 1159 1978 
L 1159 0 
L 581 0 
L 581 3500 
L 1159 3500 
L 1159 2956 
Q 1366 3272 1645 3428 
Q 1925 3584 2291 3584 
Q 2894 3584 3203 3211 
Q 3513 2838 3513 2113 
z
" transform="scale(0.015625)"/>
      <path id="DejaVuSans-66" d="M 2375 4863 
L 2375 4384 
L 1825 4384 
Q 1516 4384 1395 4259 
Q 1275 4134 1275 3809 
L 1275 3500 
L 2222 3500 
L 2222 3053 
L 1275 3053 
L 1275 0 
L 697 0 
L 697 3053 
L 147 3053 
L 147 3500 
L 697 3500 
L 697 3744 
Q 697 4328 969 4595 
Q 1241 4863 1831 4863 
L 2375 4863 
z
" transform="scale(0.015625)"/>
      <path id="DejaVuSans-72" d="M 2631 2963 
Q 2534 3019 2420 3045 
Q 2306 3072 2169 3072 
Q 1681 3072 1420 2755 
Q 1159 2438 1159 1844 
L 1159 0 
L 581 0 
L 581 3500 
L 1159 3500 
L 1159 2956 
Q 1341 3275 1631 3429 
Q 1922 3584 2338 3584 
Q 2397 3584 2469 3576 
Q 2541 3569 2628 3553 
L 2631 2963 
z
" transform="scale(0.015625)"/>
      <path id="DejaVuSans-50" d="M 1259 4147 
L 1259 2394 
L 2053 2394 
Q 2494 2394 2734 2622 
Q 2975 2850 2975 3272 
Q 2975 3691 2734 3919 
Q 2494 4147 2053 4147 
L 1259 4147 
z
M 628 4666 
L 2053 4666 
Q 2838 4666 3239 4311 
Q 3641 3956 3641 3272 
Q 3641 2581 3239 2228 
Q 2838 1875 2053 1875 
L 1259 1875 
L 1259 0 
L 628 0 
L 628 4666 
z
" transform="scale(0.015625)"/>
      <path id="DejaVuSans-6d" d="M 3328 2828 
Q 3544 3216 3844 3400 
Q 4144 3584 4550 3584 
Q 5097 3584 5394 3201 
Q 5691 2819 5691 2113 
L 5691 0 
L 5113 0 
L 5113 2094 
Q 5113 2597 4934 2840 
Q 4756 3084 4391 3084 
Q 3944 3084 3684 2787 
Q 3425 2491 3425 1978 
L 3425 0 
L 2847 0 
L 2847 2094 
Q 2847 2600 2669 2842 
Q 2491 3084 2119 3084 
Q 1678 3084 1418 2786 
Q 1159 2488 1159 1978 
L 1159 0 
L 581 0 
L 581 3500 
L 1159 3500 
L 1159 2956 
Q 1356 3278 1631 3431 
Q 1906 3584 2284 3584 
Q 2666 3584 2933 3390 
Q 3200 3197 3328 2828 
z
" transform="scale(0.015625)"/>
      <path id="DejaVuSans-28" d="M 1984 4856 
Q 1566 4138 1362 3434 
Q 1159 2731 1159 2009 
Q 1159 1288 1364 580 
Q 1569 -128 1984 -844 
L 1484 -844 
Q 1016 -109 783 600 
Q 550 1309 550 2009 
Q 550 2706 781 3412 
Q 1013 4119 1484 4856 
L 1984 4856 
z
" transform="scale(0.015625)"/>
      <path id="DejaVuSans-29" d="M 513 4856 
L 1013 4856 
Q 1481 4119 1714 3412 
Q 1947 2706 1947 2009 
Q 1947 1309 1714 600 
Q 1481 -109 1013 -844 
L 513 -844 
Q 928 -128 1133 580 
Q 1338 1288 1338 2009 
Q 1338 2731 1133 3434 
Q 928 4138 513 4856 
z
" transform="scale(0.015625)"/>
     </defs>
     <use xlink:href="#DejaVuSans-46"/>
     <use xlink:href="#DejaVuSans-65" x="52.019531"/>
     <use xlink:href="#DejaVuSans-61" x="113.542969"/>
     <use xlink:href="#DejaVuSans-73" x="174.822266"/>
     <use xlink:href="#DejaVuSans-69" x="226.921875"/>
     <use xlink:href="#DejaVuSans-62" x="254.705078"/>
     <use xlink:href="#DejaVuSans-6c" x="318.181641"/>
     <use xlink:href="#DejaVuSans-65" x="345.964844"/>
     <use xlink:href="#DejaVuSans-20" x="407.488281"/>
     <use xlink:href="#DejaVuSans-52" x="439.275391"/>
     <use xlink:href="#DejaVuSans-65" x="504.257812"/>
     <use xlink:href="#DejaVuSans-67" x="565.78125"/>
     <use xlink:href="#DejaVuSans-69" x="629.257812"/>
     <use xlink:href="#DejaVuSans-6f" x="657.041016"/>
     <use xlink:href="#DejaVuSans-6e" x="718.222656"/>
     <use xlink:href="#DejaVuSans-20" x="781.601562"/>
     <use xlink:href="#DejaVuSans-66" x="813.388672"/>
     <use xlink:href="#DejaVuSans-6f" x="848.59375"/>
     <use xlink:href="#DejaVuSans-72" x="909.775391"/>
     <use xlink:href="#DejaVuSans-20" x="950.888672"/>
     <use xlink:href="#DejaVuSans-50" x="982.675781"/>
     <use xlink:href="#DejaVuSans-72" x="1041.228516"/>
     <use xlink:href="#DejaVuSans-6f" x="1080.091797"/>
     <use xlink:href="#DejaVuSans-62" x="1141.273438"/>
     <use xlink:href="#DejaVuSans-6c" x="1204.75"/>
     <use xlink:href="#DejaVuSans-65" x="1232.533203"/>
     <use xlink:href="#DejaVuSans-6d" x="1294.056641"/>
     <use xlink:href="#DejaVuSans-20" x="1391.46875"/>
     <use xlink:href="#DejaVuSans-34" x="1423.255859"/>
     <use xlink:href="#DejaVuSans-2e" x="1486.878906"/>
     <use xlink:href="#DejaVuSans-33" x="1518.666016"/>
     <use xlink:href="#DejaVuSans-28" x="1582.289062"/>
     <use xlink:href="#DejaVuSans-61" x="1621.302734"/>
     <use xlink:href="#DejaVuSans-29" x="1682.582031"/>
    </g>
   </g>
   <g id="legend_1">
    <g id="patch_7">
     <path d="M 317.12 64.150125 
L 407.72 64.150125 
Q 409.72 64.150125 409.72 62.150125 
L 409.72 48.472 
Q 409.72 46.472 407.72 46.472 
L 317.12 46.472 
Q 315.12 46.472 315.12 48.472 
L 315.12 62.150125 
Q 315.12 64.150125 317.12 64.150125 
z
" style="fill: #ffffff; opacity: 0.8; stroke: #cccccc; stroke-linejoin: miter"/>
    </g>
    <g id="line2d_30">
     <path d="M 319.12 54.570438 
L 329.12 54.570438 
L 339.12 54.570438 
" style="fill: none; stroke: #0000ff; stroke-width: 1.5; stroke-linecap: square"/>
    </g>
    <g id="text_17">
     <!-- $x_1 + 2x_2 = 5$ -->
     <g transform="translate(347.12 58.070438) scale(0.1 -0.1)">
      <defs>
       <path id="DejaVuSans-2b" d="M 2944 4013 
L 2944 2272 
L 4684 2272 
L 4684 1741 
L 2944 1741 
L 2944 0 
L 2419 0 
L 2419 1741 
L 678 1741 
L 678 2272 
L 2419 2272 
L 2419 4013 
L 2944 4013 
z
" transform="scale(0.015625)"/>
       <path id="DejaVuSans-3d" d="M 678 2906 
L 4684 2906 
L 4684 2381 
L 678 2381 
L 678 2906 
z
M 678 1631 
L 4684 1631 
L 4684 1100 
L 678 1100 
L 678 1631 
z
" transform="scale(0.015625)"/>
      </defs>
      <use xlink:href="#DejaVuSans-Oblique-78" transform="translate(0 0.78125)"/>
      <use xlink:href="#DejaVuSans-31" transform="translate(59.179688 -15.625) scale(0.7)"/>
      <use xlink:href="#DejaVuSans-2b" transform="translate(125.932617 0.78125)"/>
      <use xlink:href="#DejaVuSans-32" transform="translate(229.204102 0.78125)"/>
      <use xlink:href="#DejaVuSans-Oblique-78" transform="translate(292.827148 0.78125)"/>
      <use xlink:href="#DejaVuSans-32" transform="translate(352.006836 -15.625) scale(0.7)"/>
      <use xlink:href="#DejaVuSans-3d" transform="translate(418.759766 0.78125)"/>
      <use xlink:href="#DejaVuSans-35" transform="translate(522.03125 0.78125)"/>
     </g>
    </g>
   </g>
  </g>
 </g>
 <defs>
  <clipPath id="p257dcd9320">
   <rect x="57.6" y="41.472" width="357.12" height="266.112"/>
  </clipPath>
 </defs>
</svg>
