<?xml version="1.0" encoding="utf-8" standalone="no"?>
<!DOCTYPE svg PUBLIC "-//W3C//DTD SVG 1.1//EN"
  "http://www.w3.org/Graphics/SVG/1.1/DTD/svg11.dtd">
<svg xmlns:xlink="http://www.w3.org/1999/xlink" width="460.8pt" height="345.6pt" viewBox="0 0 460.8 345.6" xmlns="http://www.w3.org/2000/svg" version="1.1">
 <metadata>
  <rdf:RDF xmlns:dc="http://purl.org/dc/elements/1.1/" xmlns:cc="http://creativecommons.org/ns#" xmlns:rdf="http://www.w3.org/1999/02/22-rdf-syntax-ns#">
   <cc:Work>
    <dc:type rdf:resource="http://purl.org/dc/dcmitype/StillImage"/>
    <dc:date>2024-04-25T15:24:10.813585</dc:date>
    <dc:format>image/svg+xml</dc:format>
    <dc:creator>
     <cc:Agent>
      <dc:title>Matplotlib v3.8.3, https://matplotlib.org/</dc:title>
     </cc:Agent>
    </dc:creator>
   </cc:Work>
  </rdf:RDF>
 </metadata>
 <defs>
  <style type="text/css">*{stroke-linejoin: round; stroke-linecap: butt}</style>
 </defs>
 <g id="figure_1">
  <g id="patch_1">
   <path d="M 0 345.6 
L 460.8 345.6 
L 460.8 0 
L 0 0 
z
" style="fill: #ffffff"/>
  </g>
  <g id="axes_1">
   <g id="patch_2">
    <path d="M 57.6 307.584 
L 414.72 307.584 
L 414.72 41.472 
L 57.6 41.472 
z
" style="fill: #ffffff"/>
   </g>
   <g id="matplotlib.axis_1">
    <g id="xtick_1">
     <g id="line2d_1">
      <defs>
       <path id="m653c07dff1" d="M 0 0 
L 0 3.5 
" style="stroke: #000000; stroke-width: 0.8"/>
      </defs>
      <g>
       <use xlink:href="#m653c07dff1" x="73.832727" y="307.584" style="stroke: #000000; stroke-width: 0.8"/>
      </g>
     </g>
     <g id="text_1">
      <!-- 0 -->
      <g transform="translate(70.651477 322.182437) scale(0.1 -0.1)">
       <defs>
        <path id="DejaVuSans-30" d="M 2034 4250 
Q 1547 4250 1301 3770 
Q 1056 3291 1056 2328 
Q 1056 1369 1301 889 
Q 1547 409 2034 409 
Q 2525 409 2770 889 
Q 3016 1369 3016 2328 
Q 3016 3291 2770 3770 
Q 2525 4250 2034 4250 
z
M 2034 4750 
Q 2819 4750 3233 4129 
Q 3647 3509 3647 2328 
Q 3647 1150 3233 529 
Q 2819 -91 2034 -91 
Q 1250 -91 836 529 
Q 422 1150 422 2328 
Q 422 3509 836 4129 
Q 1250 4750 2034 4750 
z
" transform="scale(0.015625)"/>
       </defs>
       <use xlink:href="#DejaVuSans-30"/>
      </g>
     </g>
    </g>
    <g id="xtick_2">
     <g id="line2d_2">
      <g>
       <use xlink:href="#m653c07dff1" x="127.995981" y="307.584" style="stroke: #000000; stroke-width: 0.8"/>
      </g>
     </g>
     <g id="text_2">
      <!-- 1 -->
      <g transform="translate(124.814731 322.182437) scale(0.1 -0.1)">
       <defs>
        <path id="DejaVuSans-31" d="M 794 531 
L 1825 531 
L 1825 4091 
L 703 3866 
L 703 4441 
L 1819 4666 
L 2450 4666 
L 2450 531 
L 3481 531 
L 3481 0 
L 794 0 
L 794 531 
z
" transform="scale(0.015625)"/>
       </defs>
       <use xlink:href="#DejaVuSans-31"/>
      </g>
     </g>
    </g>
    <g id="xtick_3">
     <g id="line2d_3">
      <g>
       <use xlink:href="#m653c07dff1" x="182.159236" y="307.584" style="stroke: #000000; stroke-width: 0.8"/>
      </g>
     </g>
     <g id="text_3">
      <!-- 2 -->
      <g transform="translate(178.977986 322.182437) scale(0.1 -0.1)">
       <defs>
        <path id="DejaVuSans-32" d="M 1228 531 
L 3431 531 
L 3431 0 
L 469 0 
L 469 531 
Q 828 903 1448 1529 
Q 2069 2156 2228 2338 
Q 2531 2678 2651 2914 
Q 2772 3150 2772 3378 
Q 2772 3750 2511 3984 
Q 2250 4219 1831 4219 
Q 1534 4219 1204 4116 
Q 875 4013 500 3803 
L 500 4441 
Q 881 4594 1212 4672 
Q 1544 4750 1819 4750 
Q 2544 4750 2975 4387 
Q 3406 4025 3406 3419 
Q 3406 3131 3298 2873 
Q 3191 2616 2906 2266 
Q 2828 2175 2409 1742 
Q 1991 1309 1228 531 
z
" transform="scale(0.015625)"/>
       </defs>
       <use xlink:href="#DejaVuSans-32"/>
      </g>
     </g>
    </g>
    <g id="xtick_4">
     <g id="line2d_4">
      <g>
       <use xlink:href="#m653c07dff1" x="236.32249" y="307.584" style="stroke: #000000; stroke-width: 0.8"/>
      </g>
     </g>
     <g id="text_4">
      <!-- 3 -->
      <g transform="translate(233.14124 322.182437) scale(0.1 -0.1)">
       <defs>
        <path id="DejaVuSans-33" d="M 2597 2516 
Q 3050 2419 3304 2112 
Q 3559 1806 3559 1356 
Q 3559 666 3084 287 
Q 2609 -91 1734 -91 
Q 1441 -91 1130 -33 
Q 819 25 488 141 
L 488 750 
Q 750 597 1062 519 
Q 1375 441 1716 441 
Q 2309 441 2620 675 
Q 2931 909 2931 1356 
Q 2931 1769 2642 2001 
Q 2353 2234 1838 2234 
L 1294 2234 
L 1294 2753 
L 1863 2753 
Q 2328 2753 2575 2939 
Q 2822 3125 2822 3475 
Q 2822 3834 2567 4026 
Q 2313 4219 1838 4219 
Q 1578 4219 1281 4162 
Q 984 4106 628 3988 
L 628 4550 
Q 988 4650 1302 4700 
Q 1616 4750 1894 4750 
Q 2613 4750 3031 4423 
Q 3450 4097 3450 3541 
Q 3450 3153 3228 2886 
Q 3006 2619 2597 2516 
z
" transform="scale(0.015625)"/>
       </defs>
       <use xlink:href="#DejaVuSans-33"/>
      </g>
     </g>
    </g>
    <g id="xtick_5">
     <g id="line2d_5">
      <g>
       <use xlink:href="#m653c07dff1" x="290.485744" y="307.584" style="stroke: #000000; stroke-width: 0.8"/>
      </g>
     </g>
     <g id="text_5">
      <!-- 4 -->
      <g transform="translate(287.304494 322.182437) scale(0.1 -0.1)">
       <defs>
        <path id="DejaVuSans-34" d="M 2419 4116 
L 825 1625 
L 2419 1625 
L 2419 4116 
z
M 2253 4666 
L 3047 4666 
L 3047 1625 
L 3713 1625 
L 3713 1100 
L 3047 1100 
L 3047 0 
L 2419 0 
L 2419 1100 
L 313 1100 
L 313 1709 
L 2253 4666 
z
" transform="scale(0.015625)"/>
       </defs>
       <use xlink:href="#DejaVuSans-34"/>
      </g>
     </g>
    </g>
    <g id="xtick_6">
     <g id="line2d_6">
      <g>
       <use xlink:href="#m653c07dff1" x="344.648998" y="307.584" style="stroke: #000000; stroke-width: 0.8"/>
      </g>
     </g>
     <g id="text_6">
      <!-- 5 -->
      <g transform="translate(341.467748 322.182437) scale(0.1 -0.1)">
       <defs>
        <path id="DejaVuSans-35" d="M 691 4666 
L 3169 4666 
L 3169 4134 
L 1269 4134 
L 1269 2991 
Q 1406 3038 1543 3061 
Q 1681 3084 1819 3084 
Q 2600 3084 3056 2656 
Q 3513 2228 3513 1497 
Q 3513 744 3044 326 
Q 2575 -91 1722 -91 
Q 1428 -91 1123 -41 
Q 819 9 494 109 
L 494 744 
Q 775 591 1075 516 
Q 1375 441 1709 441 
Q 2250 441 2565 725 
Q 2881 1009 2881 1497 
Q 2881 1984 2565 2268 
Q 2250 2553 1709 2553 
Q 1456 2553 1204 2497 
Q 953 2441 691 2322 
L 691 4666 
z
" transform="scale(0.015625)"/>
       </defs>
       <use xlink:href="#DejaVuSans-35"/>
      </g>
     </g>
    </g>
    <g id="xtick_7">
     <g id="line2d_7">
      <g>
       <use xlink:href="#m653c07dff1" x="398.812252" y="307.584" style="stroke: #000000; stroke-width: 0.8"/>
      </g>
     </g>
     <g id="text_7">
      <!-- 6 -->
      <g transform="translate(395.631002 322.182437) scale(0.1 -0.1)">
       <defs>
        <path id="DejaVuSans-36" d="M 2113 2584 
Q 1688 2584 1439 2293 
Q 1191 2003 1191 1497 
Q 1191 994 1439 701 
Q 1688 409 2113 409 
Q 2538 409 2786 701 
Q 3034 994 3034 1497 
Q 3034 2003 2786 2293 
Q 2538 2584 2113 2584 
z
M 3366 4563 
L 3366 3988 
Q 3128 4100 2886 4159 
Q 2644 4219 2406 4219 
Q 1781 4219 1451 3797 
Q 1122 3375 1075 2522 
Q 1259 2794 1537 2939 
Q 1816 3084 2150 3084 
Q 2853 3084 3261 2657 
Q 3669 2231 3669 1497 
Q 3669 778 3244 343 
Q 2819 -91 2113 -91 
Q 1303 -91 875 529 
Q 447 1150 447 2328 
Q 447 3434 972 4092 
Q 1497 4750 2381 4750 
Q 2619 4750 2861 4703 
Q 3103 4656 3366 4563 
z
" transform="scale(0.015625)"/>
       </defs>
       <use xlink:href="#DejaVuSans-36"/>
      </g>
     </g>
    </g>
   </g>
   <g id="matplotlib.axis_2">
    <g id="ytick_1">
     <g id="line2d_8">
      <defs>
       <path id="m546c2177e4" d="M 0 0 
L -3.5 0 
" style="stroke: #000000; stroke-width: 0.8"/>
      </defs>
      <g>
       <use xlink:href="#m546c2177e4" x="57.6" y="288.571681" style="stroke: #000000; stroke-width: 0.8"/>
      </g>
     </g>
     <g id="text_8">
      <!-- −1.5 -->
      <g transform="translate(26.317187 292.3709) scale(0.1 -0.1)">
       <defs>
        <path id="DejaVuSans-2212" d="M 678 2272 
L 4684 2272 
L 4684 1741 
L 678 1741 
L 678 2272 
z
" transform="scale(0.015625)"/>
        <path id="DejaVuSans-2e" d="M 684 794 
L 1344 794 
L 1344 0 
L 684 0 
L 684 794 
z
" transform="scale(0.015625)"/>
       </defs>
       <use xlink:href="#DejaVuSans-2212"/>
       <use xlink:href="#DejaVuSans-31" x="83.789062"/>
       <use xlink:href="#DejaVuSans-2e" x="147.412109"/>
       <use xlink:href="#DejaVuSans-35" x="179.199219"/>
      </g>
     </g>
    </g>
    <g id="ytick_2">
     <g id="line2d_9">
      <g>
       <use xlink:href="#m546c2177e4" x="57.6" y="254.999727" style="stroke: #000000; stroke-width: 0.8"/>
      </g>
     </g>
     <g id="text_9">
      <!-- −1.0 -->
      <g transform="translate(26.317187 258.798945) scale(0.1 -0.1)">
       <use xlink:href="#DejaVuSans-2212"/>
       <use xlink:href="#DejaVuSans-31" x="83.789062"/>
       <use xlink:href="#DejaVuSans-2e" x="147.412109"/>
       <use xlink:href="#DejaVuSans-30" x="179.199219"/>
      </g>
     </g>
    </g>
    <g id="ytick_3">
     <g id="line2d_10">
      <g>
       <use xlink:href="#m546c2177e4" x="57.6" y="221.427772" style="stroke: #000000; stroke-width: 0.8"/>
      </g>
     </g>
     <g id="text_10">
      <!-- −0.5 -->
      <g transform="translate(26.317187 225.226991) scale(0.1 -0.1)">
       <use xlink:href="#DejaVuSans-2212"/>
       <use xlink:href="#DejaVuSans-30" x="83.789062"/>
       <use xlink:href="#DejaVuSans-2e" x="147.412109"/>
       <use xlink:href="#DejaVuSans-35" x="179.199219"/>
      </g>
     </g>
    </g>
    <g id="ytick_4">
     <g id="line2d_11">
      <g>
       <use xlink:href="#m546c2177e4" x="57.6" y="187.855818" style="stroke: #000000; stroke-width: 0.8"/>
      </g>
     </g>
     <g id="text_11">
      <!-- 0.0 -->
      <g transform="translate(34.696875 191.655036) scale(0.1 -0.1)">
       <use xlink:href="#DejaVuSans-30"/>
       <use xlink:href="#DejaVuSans-2e" x="63.623047"/>
       <use xlink:href="#DejaVuSans-30" x="95.410156"/>
      </g>
     </g>
    </g>
    <g id="ytick_5">
     <g id="line2d_12">
      <g>
       <use xlink:href="#m546c2177e4" x="57.6" y="154.283863" style="stroke: #000000; stroke-width: 0.8"/>
      </g>
     </g>
     <g id="text_12">
      <!-- 0.5 -->
      <g transform="translate(34.696875 158.083082) scale(0.1 -0.1)">
       <use xlink:href="#DejaVuSans-30"/>
       <use xlink:href="#DejaVuSans-2e" x="63.623047"/>
       <use xlink:href="#DejaVuSans-35" x="95.410156"/>
      </g>
     </g>
    </g>
    <g id="ytick_6">
     <g id="line2d_13">
      <g>
       <use xlink:href="#m546c2177e4" x="57.6" y="120.711909" style="stroke: #000000; stroke-width: 0.8"/>
      </g>
     </g>
     <g id="text_13">
      <!-- 1.0 -->
      <g transform="translate(34.696875 124.511128) scale(0.1 -0.1)">
       <use xlink:href="#DejaVuSans-31"/>
       <use xlink:href="#DejaVuSans-2e" x="63.623047"/>
       <use xlink:href="#DejaVuSans-30" x="95.410156"/>
      </g>
     </g>
    </g>
    <g id="ytick_7">
     <g id="line2d_14">
      <g>
       <use xlink:href="#m546c2177e4" x="57.6" y="87.139954" style="stroke: #000000; stroke-width: 0.8"/>
      </g>
     </g>
     <g id="text_14">
      <!-- 1.5 -->
      <g transform="translate(34.696875 90.939173) scale(0.1 -0.1)">
       <use xlink:href="#DejaVuSans-31"/>
       <use xlink:href="#DejaVuSans-2e" x="63.623047"/>
       <use xlink:href="#DejaVuSans-35" x="95.410156"/>
      </g>
     </g>
    </g>
    <g id="ytick_8">
     <g id="line2d_15">
      <g>
       <use xlink:href="#m546c2177e4" x="57.6" y="53.568" style="stroke: #000000; stroke-width: 0.8"/>
      </g>
     </g>
     <g id="text_15">
      <!-- 2.0 -->
      <g transform="translate(34.696875 57.367219) scale(0.1 -0.1)">
       <use xlink:href="#DejaVuSans-32"/>
       <use xlink:href="#DejaVuSans-2e" x="63.623047"/>
       <use xlink:href="#DejaVuSans-30" x="95.410156"/>
      </g>
     </g>
    </g>
   </g>
   <g id="line2d_16">
    <path d="M 73.832727 187.855818 
L 74.37436 187.723325 
L 74.915992 187.326368 
L 75.457625 186.666514 
L 75.999257 185.746368 
L 76.54089 184.569561 
L 77.082523 183.140736 
L 77.624155 181.465534 
L 78.165788 179.550565 
L 78.70742 177.403386 
L 79.249053 175.032472 
L 79.790685 172.44718 
L 80.332318 169.657712 
L 80.87395 166.675077 
L 81.415583 163.511047 
L 81.957215 160.178108 
L 82.498848 156.689414 
L 83.04048 153.058734 
L 83.582113 149.300395 
L 84.123746 145.42923 
L 84.665378 141.460518 
L 85.207011 137.40992 
L 85.748643 133.293423 
L 86.290276 129.127272 
L 86.831908 124.92791 
L 87.373541 120.711909 
L 87.915173 116.495908 
L 88.456806 112.296546 
L 88.998438 108.130395 
L 89.540071 104.013898 
L 90.081704 99.9633 
L 90.623336 95.994587 
L 91.164969 92.123423 
L 91.706601 88.365084 
L 92.248234 84.734403 
L 92.789866 81.245709 
L 93.331499 77.912771 
L 93.873131 74.74874 
L 94.414764 71.766106 
L 94.956396 68.976638 
L 95.498029 66.391346 
L 96.039661 64.020432 
L 96.581294 61.873253 
L 97.122927 59.958284 
L 97.664559 58.283081 
L 98.206192 56.854257 
L 98.747824 55.677449 
L 99.289457 54.757303 
L 99.831089 54.09745 
L 100.372722 53.700493 
L 100.914354 53.568 
L 101.455987 53.700493 
L 101.997619 54.09745 
L 102.539252 54.757303 
L 103.080885 55.677449 
L 103.622517 56.854257 
L 104.16415 58.283081 
L 104.705782 59.958284 
L 105.247415 61.873253 
L 105.789047 64.020432 
L 106.33068 66.391346 
L 106.872312 68.976638 
L 107.413945 71.766106 
L 107.955577 74.74874 
L 108.49721 77.912771 
L 109.038842 81.245709 
L 109.580475 84.734403 
L 110.122108 88.365084 
L 110.66374 92.123423 
L 111.205373 95.994587 
L 111.747005 99.9633 
" clip-path="url(#p8d6e490baa)" style="fill: none; stroke: #1f77b4; stroke-width: 1.5; stroke-linecap: square"/>
   </g>
   <g id="line2d_17">
    <path d="M 111.963658 101.574601 
L 113.046923 110.321264 
L 114.671821 125.685499 
L 116.296719 143.252148 
L 119.004881 175.70788 
L 123.337942 228.735498 
L 125.504472 252.214717 
L 127.129369 267.242232 
L 128.212634 275.727131 
L 129.2959 282.826246 
L 130.379165 288.427621 
L 131.46243 292.442919 
L 132.004062 293.834993 
L 132.545695 294.808816 
L 133.087327 295.360544 
L 133.62896 295.488 
L 134.170592 295.190681 
L 134.712225 294.46976 
L 135.253857 293.328083 
L 135.79549 291.770155 
L 136.878755 287.431758 
L 137.96202 281.52299 
L 139.045285 274.137034 
L 140.12855 265.390372 
L 141.753448 250.026137 
L 143.378346 232.459487 
L 146.086508 200.003756 
L 150.419569 146.976137 
L 152.586099 123.496918 
L 154.210996 108.469403 
L 155.294262 99.984505 
L 156.377527 92.885389 
L 157.460792 87.284014 
L 158.544057 83.268716 
L 159.085689 81.876642 
L 159.627322 80.902819 
L 160.168954 80.351091 
L 160.710587 80.223635 
L 161.252219 80.520954 
L 161.793852 81.241875 
L 162.335485 82.383552 
L 162.877117 83.941481 
L 163.960382 88.279877 
L 165.043647 94.188646 
L 166.126912 101.574601 
L 167.210177 110.321264 
L 168.835075 125.685499 
L 170.459973 143.252148 
L 173.168135 175.70788 
L 177.501196 228.735498 
L 179.667726 252.214717 
L 181.292624 267.242232 
L 182.375889 275.727131 
L 183.459154 282.826246 
L 184.542419 288.427621 
L 185.625684 292.442919 
L 186.167316 293.834993 
L 186.708949 294.808816 
L 187.250581 295.360544 
L 187.792214 295.488 
L 188.333847 295.190681 
L 188.875479 294.46976 
L 189.417112 293.328083 
L 189.958744 291.770155 
L 191.042009 287.431758 
L 192.125274 281.52299 
L 193.208539 274.137034 
L 194.291805 265.390372 
L 195.916702 250.026137 
L 197.5416 232.459487 
L 200.249762 200.003756 
L 204.582823 146.976137 
L 206.749353 123.496918 
L 208.374251 108.469403 
L 209.457516 99.984505 
L 210.540781 92.885389 
L 211.624046 87.284014 
L 212.707311 83.268716 
L 213.248943 81.876642 
L 213.790576 80.902819 
L 214.332209 80.351091 
L 214.873841 80.223635 
L 215.415474 80.520954 
L 215.957106 81.241875 
L 216.498739 82.383552 
L 217.040371 83.941481 
L 218.123636 88.279877 
L 219.206901 94.188646 
L 220.290167 101.574601 
L 221.373432 110.321264 
L 222.998329 125.685499 
L 224.623227 143.252148 
L 227.33139 175.70788 
L 231.66445 228.735498 
L 233.83098 252.214717 
L 235.455878 267.242232 
L 236.539143 275.727131 
L 237.622408 282.826246 
L 238.705673 288.427621 
L 239.788938 292.442919 
L 240.330571 293.834993 
L 240.872203 294.808816 
L 241.413836 295.360544 
L 241.955468 295.488 
L 242.497101 295.190681 
L 243.038733 294.46976 
L 243.580366 293.328083 
L 244.121998 291.770155 
L 245.205263 287.431758 
L 246.288529 281.52299 
L 247.371794 274.137034 
L 248.455059 265.390372 
L 250.079956 250.026137 
L 251.704854 232.459487 
L 254.413017 200.003756 
L 258.746077 146.976137 
L 260.912607 123.496918 
L 262.537505 108.469403 
L 263.62077 99.984505 
L 264.704035 92.885389 
L 265.7873 87.284014 
L 266.870565 83.268716 
L 267.412198 81.876642 
L 267.95383 80.902819 
L 268.495463 80.351091 
L 269.037095 80.223635 
L 269.578728 80.520954 
L 270.12036 81.241875 
L 270.661993 82.383552 
L 271.203625 83.941481 
L 272.286891 88.279877 
L 273.370156 94.188646 
L 274.453421 101.574601 
L 275.536686 110.321264 
L 277.161583 125.685499 
L 278.786481 143.252148 
L 281.494644 175.70788 
L 285.827704 228.735498 
L 287.994234 252.214717 
L 289.619132 267.242232 
L 290.702397 275.727131 
L 291.785662 282.826246 
L 292.868927 288.427621 
L 293.952192 292.442919 
L 294.493825 293.834993 
L 295.035457 294.808816 
L 295.57709 295.360544 
L 296.118722 295.488 
L 296.660355 295.190681 
L 297.201987 294.46976 
L 297.74362 293.328083 
L 298.285253 291.770155 
L 299.368518 287.431758 
L 300.451783 281.52299 
L 301.535048 274.137034 
L 302.618313 265.390372 
L 304.24321 250.026137 
L 305.868108 232.459487 
L 308.576271 200.003756 
L 312.909331 146.976137 
L 315.075861 123.496918 
L 316.700759 108.469403 
L 317.784024 99.984505 
L 318.867289 92.885389 
L 319.950554 87.284014 
L 321.033819 83.268716 
L 321.575452 81.876642 
L 322.117084 80.902819 
L 322.658717 80.351091 
L 323.200349 80.223635 
L 323.741982 80.520954 
L 324.283615 81.241875 
L 324.825247 82.383552 
L 325.36688 83.941481 
L 326.450145 88.279877 
L 327.53341 94.188646 
L 328.616675 101.574601 
L 329.69994 110.321264 
L 331.324838 125.685499 
L 332.949735 143.252148 
L 335.657898 175.70788 
L 339.990958 228.735498 
L 342.157488 252.214717 
L 343.782386 267.242232 
L 344.865651 275.727131 
L 345.948916 282.826246 
L 347.032181 288.427621 
L 348.115446 292.442919 
L 348.657079 293.834993 
L 349.198711 294.808816 
L 349.740344 295.360544 
L 350.281977 295.488 
L 350.823609 295.190681 
L 351.365242 294.46976 
L 351.906874 293.328083 
L 352.448507 291.770155 
L 353.531772 287.431758 
L 354.615037 281.52299 
L 355.698302 274.137034 
L 356.781567 265.390372 
L 358.406465 250.026137 
L 360.031362 232.459487 
L 362.739525 200.003756 
L 367.072585 146.976137 
L 369.239115 123.496918 
L 370.864013 108.469403 
L 371.947278 99.984505 
L 373.030543 92.885389 
L 374.113808 87.284014 
L 375.197073 83.268716 
L 375.738706 81.876642 
L 376.280339 80.902819 
L 376.821971 80.351091 
L 377.363604 80.223635 
L 377.905236 80.520954 
L 378.446869 81.241875 
L 378.988501 82.383552 
L 379.530134 83.941481 
L 380.613399 88.279877 
L 381.696664 94.188646 
L 382.779929 101.574601 
L 383.863194 110.321264 
L 385.488092 125.685499 
L 387.112989 143.252148 
L 389.821152 175.70788 
L 394.154212 228.735498 
L 396.320743 252.214717 
L 397.94564 267.242232 
L 398.487273 271.65003 
L 398.487273 271.65003 
" clip-path="url(#p8d6e490baa)" style="fill: none; stroke: #ff7f0e; stroke-width: 1.5; stroke-linecap: square"/>
   </g>
   <g id="patch_3">
    <path d="M 57.6 307.584 
L 57.6 41.472 
" style="fill: none; stroke: #000000; stroke-width: 0.8; stroke-linejoin: miter; stroke-linecap: square"/>
   </g>
   <g id="patch_4">
    <path d="M 414.72 307.584 
L 414.72 41.472 
" style="fill: none; stroke: #000000; stroke-width: 0.8; stroke-linejoin: miter; stroke-linecap: square"/>
   </g>
   <g id="patch_5">
    <path d="M 57.6 307.584 
L 414.72 307.584 
" style="fill: none; stroke: #000000; stroke-width: 0.8; stroke-linejoin: miter; stroke-linecap: square"/>
   </g>
   <g id="patch_6">
    <path d="M 57.6 41.472 
L 414.72 41.472 
" style="fill: none; stroke: #000000; stroke-width: 0.8; stroke-linejoin: miter; stroke-linecap: square"/>
   </g>
  </g>
 </g>
 <defs>
  <clipPath id="p8d6e490baa">
   <rect x="57.6" y="41.472" width="357.12" height="266.112"/>
  </clipPath>
 </defs>
</svg>
