<?xml version="1.0" encoding="utf-8" standalone="no"?>
<!DOCTYPE svg PUBLIC "-//W3C//DTD SVG 1.1//EN"
  "http://www.w3.org/Graphics/SVG/1.1/DTD/svg11.dtd">
<svg xmlns:xlink="http://www.w3.org/1999/xlink" width="460.8pt" height="345.6pt" viewBox="0 0 460.8 345.6" xmlns="http://www.w3.org/2000/svg" version="1.1">
 <metadata>
  <rdf:RDF xmlns:dc="http://purl.org/dc/elements/1.1/" xmlns:cc="http://creativecommons.org/ns#" xmlns:rdf="http://www.w3.org/1999/02/22-rdf-syntax-ns#">
   <cc:Work>
    <dc:type rdf:resource="http://purl.org/dc/dcmitype/StillImage"/>
    <dc:date>2023-11-23T15:21:19.046832</dc:date>
    <dc:format>image/svg+xml</dc:format>
    <dc:creator>
     <cc:Agent>
      <dc:title>Matplotlib v3.8.1, https://matplotlib.org/</dc:title>
     </cc:Agent>
    </dc:creator>
   </cc:Work>
  </rdf:RDF>
 </metadata>
 <defs>
  <style type="text/css">*{stroke-linejoin: round; stroke-linecap: butt}</style>
 </defs>
 <g id="figure_1">
  <g id="patch_1">
   <path d="M 0 345.6 
L 460.8 345.6 
L 460.8 0 
L 0 0 
z
" style="fill: #ffffff"/>
  </g>
  <g id="axes_1">
   <g id="patch_2">
    <path d="M 57.6 307.584 
L 414.72 307.584 
L 414.72 41.472 
L 57.6 41.472 
z
" style="fill: #ffffff"/>
   </g>
   <g id="patch_3">
    <path d="M 95.534128 132.698774 
Q 137.779372 101.219254 179.12811 70.407775 
" clip-path="url(#pf3ac4e4017)" style="fill: none; stroke: #000000; stroke-linecap: round"/>
    <path d="M 174.725648 71.194114 
L 179.12811 70.407775 
L 177.115703 74.401548 
z
" clip-path="url(#pf3ac4e4017)" style="stroke: #000000; stroke-linecap: round"/>
   </g>
   <g id="patch_4">
    <path d="M 97.251458 137.873455 
Q 137.780556 137.873455 177.191621 137.873455 
" clip-path="url(#pf3ac4e4017)" style="fill: none; stroke: #000000; stroke-linecap: round"/>
    <path d="M 173.191621 135.873455 
L 177.191621 137.873455 
L 173.191621 139.873455 
z
" clip-path="url(#pf3ac4e4017)" style="stroke: #000000; stroke-linecap: round"/>
   </g>
   <g id="patch_5">
    <path d="M 95.534128 143.048135 
Q 137.779372 174.527655 179.12811 205.339134 
" clip-path="url(#pf3ac4e4017)" style="fill: none; stroke: #000000; stroke-linecap: round"/>
    <path d="M 177.115703 201.345361 
L 179.12811 205.339134 
L 174.725648 204.552795 
z
" clip-path="url(#pf3ac4e4017)" style="stroke: #000000; stroke-linecap: round"/>
   </g>
   <g id="patch_6">
    <path d="M 180.025541 69.739044 
Q 137.780298 101.218564 96.43156 132.030043 
" clip-path="url(#pf3ac4e4017)" style="fill: none; stroke: #000000; stroke-linecap: round"/>
    <path d="M 100.834022 131.243704 
L 96.43156 132.030043 
L 98.443966 128.03627 
z
" clip-path="url(#pf3ac4e4017)" style="stroke: #000000; stroke-linecap: round"/>
   </g>
   <g id="patch_7">
    <path d="M 186.969917 73.222389 
Q 186.969917 101.2172 186.969917 128.093977 
" clip-path="url(#pf3ac4e4017)" style="fill: none; stroke: #000000; stroke-linecap: round"/>
    <path d="M 188.969917 124.093977 
L 186.969917 128.093977 
L 184.969917 124.093977 
z
" clip-path="url(#pf3ac4e4017)" style="stroke: #000000; stroke-linecap: round"/>
   </g>
   <g id="patch_8">
    <path d="M 195.631623 64.564364 
Q 236.160722 64.564364 275.571786 64.564364 
" clip-path="url(#pf3ac4e4017)" style="fill: none; stroke: #000000; stroke-linecap: round"/>
    <path d="M 271.571786 62.564364 
L 275.571786 64.564364 
L 271.571786 66.564364 
z
" clip-path="url(#pf3ac4e4017)" style="stroke: #000000; stroke-linecap: round"/>
   </g>
   <g id="patch_9">
    <path d="M 193.914294 69.739044 
Q 236.159537 101.218564 277.508275 132.030043 
" clip-path="url(#pf3ac4e4017)" style="fill: none; stroke: #000000; stroke-linecap: round"/>
    <path d="M 275.495869 128.03627 
L 277.508275 132.030043 
L 273.105813 131.243704 
z
" clip-path="url(#pf3ac4e4017)" style="stroke: #000000; stroke-linecap: round"/>
   </g>
   <g id="patch_10">
    <path d="M 178.308212 137.873455 
Q 137.779113 137.873455 98.368049 137.873455 
" clip-path="url(#pf3ac4e4017)" style="fill: none; stroke: #000000; stroke-linecap: round"/>
    <path d="M 102.368049 139.873455 
L 98.368049 137.873455 
L 102.368049 135.873455 
z
" clip-path="url(#pf3ac4e4017)" style="stroke: #000000; stroke-linecap: round"/>
   </g>
   <g id="patch_11">
    <path d="M 186.969917 129.215429 
Q 186.969917 101.220618 186.969917 74.343841 
" clip-path="url(#pf3ac4e4017)" style="fill: none; stroke: #000000; stroke-linecap: round"/>
    <path d="M 184.969917 78.343841 
L 186.969917 74.343841 
L 188.969917 78.343841 
z
" clip-path="url(#pf3ac4e4017)" style="stroke: #000000; stroke-linecap: round"/>
   </g>
   <g id="patch_12">
    <path d="M 186.969917 146.53148 
Q 186.969917 174.526291 186.969917 201.403068 
" clip-path="url(#pf3ac4e4017)" style="fill: none; stroke: #000000; stroke-linecap: round"/>
    <path d="M 188.969917 197.403068 
L 186.969917 201.403068 
L 184.969917 197.403068 
z
" clip-path="url(#pf3ac4e4017)" style="stroke: #000000; stroke-linecap: round"/>
   </g>
   <g id="patch_13">
    <path d="M 193.914294 132.698774 
Q 236.159537 101.219254 277.508275 70.407775 
" clip-path="url(#pf3ac4e4017)" style="fill: none; stroke: #000000; stroke-linecap: round"/>
    <path d="M 273.105813 71.194114 
L 277.508275 70.407775 
L 275.495869 74.401548 
z
" clip-path="url(#pf3ac4e4017)" style="stroke: #000000; stroke-linecap: round"/>
   </g>
   <g id="patch_14">
    <path d="M 195.631623 137.873455 
Q 236.160722 137.873455 275.571786 137.873455 
" clip-path="url(#pf3ac4e4017)" style="fill: none; stroke: #000000; stroke-linecap: round"/>
    <path d="M 271.571786 135.873455 
L 275.571786 137.873455 
L 271.571786 139.873455 
z
" clip-path="url(#pf3ac4e4017)" style="stroke: #000000; stroke-linecap: round"/>
   </g>
   <g id="patch_15">
    <path d="M 193.914294 143.048135 
Q 236.159537 174.527655 277.508275 205.339134 
" clip-path="url(#pf3ac4e4017)" style="fill: none; stroke: #000000; stroke-linecap: round"/>
    <path d="M 275.495869 201.345361 
L 277.508275 205.339134 
L 273.105813 204.552795 
z
" clip-path="url(#pf3ac4e4017)" style="stroke: #000000; stroke-linecap: round"/>
   </g>
   <g id="patch_16">
    <path d="M 180.025541 206.007865 
Q 137.780298 174.528345 96.43156 143.716866 
" clip-path="url(#pf3ac4e4017)" style="fill: none; stroke: #000000; stroke-linecap: round"/>
    <path d="M 98.443966 147.710639 
L 96.43156 143.716866 
L 100.834022 144.503205 
z
" clip-path="url(#pf3ac4e4017)" style="stroke: #000000; stroke-linecap: round"/>
   </g>
   <g id="patch_17">
    <path d="M 186.969917 202.52452 
Q 186.969917 174.529709 186.969917 147.652932 
" clip-path="url(#pf3ac4e4017)" style="fill: none; stroke: #000000; stroke-linecap: round"/>
    <path d="M 184.969917 151.652932 
L 186.969917 147.652932 
L 188.969917 151.652932 
z
" clip-path="url(#pf3ac4e4017)" style="stroke: #000000; stroke-linecap: round"/>
   </g>
   <g id="patch_18">
    <path d="M 193.914294 206.007865 
Q 236.159537 174.528345 277.508275 143.716866 
" clip-path="url(#pf3ac4e4017)" style="fill: none; stroke: #000000; stroke-linecap: round"/>
    <path d="M 273.105813 144.503205 
L 277.508275 143.716866 
L 275.495869 147.710639 
z
" clip-path="url(#pf3ac4e4017)" style="stroke: #000000; stroke-linecap: round"/>
   </g>
   <g id="patch_19">
    <path d="M 195.631623 211.182545 
Q 236.160722 211.182545 275.571786 211.182545 
" clip-path="url(#pf3ac4e4017)" style="fill: none; stroke: #000000; stroke-linecap: round"/>
    <path d="M 271.571786 209.182545 
L 275.571786 211.182545 
L 271.571786 213.182545 
z
" clip-path="url(#pf3ac4e4017)" style="stroke: #000000; stroke-linecap: round"/>
   </g>
   <g id="patch_20">
    <path d="M 193.914294 216.357226 
Q 236.159537 247.836746 277.508275 278.648225 
" clip-path="url(#pf3ac4e4017)" style="fill: none; stroke: #000000; stroke-linecap: round"/>
    <path d="M 275.495869 274.654452 
L 277.508275 278.648225 
L 273.105813 277.861886 
z
" clip-path="url(#pf3ac4e4017)" style="stroke: #000000; stroke-linecap: round"/>
   </g>
   <g id="patch_21">
    <path d="M 278.405706 69.739044 
Q 236.160463 101.218564 194.811725 132.030043 
" clip-path="url(#pf3ac4e4017)" style="fill: none; stroke: #000000; stroke-linecap: round"/>
    <path d="M 199.214187 131.243704 
L 194.811725 132.030043 
L 196.824131 128.03627 
z
" clip-path="url(#pf3ac4e4017)" style="stroke: #000000; stroke-linecap: round"/>
   </g>
   <g id="patch_22">
    <path d="M 292.294459 69.739044 
Q 334.539702 101.218564 375.88844 132.030043 
" clip-path="url(#pf3ac4e4017)" style="fill: none; stroke: #000000; stroke-linecap: round"/>
    <path d="M 373.876034 128.03627 
L 375.88844 132.030043 
L 371.485978 131.243704 
z
" clip-path="url(#pf3ac4e4017)" style="stroke: #000000; stroke-linecap: round"/>
   </g>
   <g id="patch_23">
    <path d="M 276.688377 137.873455 
Q 236.159278 137.873455 196.748214 137.873455 
" clip-path="url(#pf3ac4e4017)" style="fill: none; stroke: #000000; stroke-linecap: round"/>
    <path d="M 200.748214 139.873455 
L 196.748214 137.873455 
L 200.748214 135.873455 
z
" clip-path="url(#pf3ac4e4017)" style="stroke: #000000; stroke-linecap: round"/>
   </g>
   <g id="patch_24">
    <path d="M 278.405706 143.048135 
Q 236.160463 174.527655 194.811725 205.339134 
" clip-path="url(#pf3ac4e4017)" style="fill: none; stroke: #000000; stroke-linecap: round"/>
    <path d="M 199.214187 204.552795 
L 194.811725 205.339134 
L 196.824131 201.345361 
z
" clip-path="url(#pf3ac4e4017)" style="stroke: #000000; stroke-linecap: round"/>
   </g>
   <g id="patch_25">
    <path d="M 294.011788 137.873455 
Q 334.540887 137.873455 373.951951 137.873455 
" clip-path="url(#pf3ac4e4017)" style="fill: none; stroke: #000000; stroke-linecap: round"/>
    <path d="M 369.951951 135.873455 
L 373.951951 137.873455 
L 369.951951 139.873455 
z
" clip-path="url(#pf3ac4e4017)" style="stroke: #000000; stroke-linecap: round"/>
   </g>
   <g id="patch_26">
    <path d="M 290.176319 145.066104 
Q 334.540062 211.182391 378.280851 276.370276 
" clip-path="url(#pf3ac4e4017)" style="fill: none; stroke: #000000; stroke-linecap: round"/>
    <path d="M 377.71288 271.934354 
L 378.280851 276.370276 
L 374.39133 274.163099 
z
" clip-path="url(#pf3ac4e4017)" style="stroke: #000000; stroke-linecap: round"/>
   </g>
   <g id="patch_27">
    <path d="M 278.405706 206.007865 
Q 236.160463 174.528345 194.811725 143.716866 
" clip-path="url(#pf3ac4e4017)" style="fill: none; stroke: #000000; stroke-linecap: round"/>
    <path d="M 196.824131 147.710639 
L 194.811725 143.716866 
L 199.214187 144.503205 
z
" clip-path="url(#pf3ac4e4017)" style="stroke: #000000; stroke-linecap: round"/>
   </g>
   <g id="patch_28">
    <path d="M 276.688377 211.182545 
Q 236.159278 211.182545 196.748214 211.182545 
" clip-path="url(#pf3ac4e4017)" style="fill: none; stroke: #000000; stroke-linecap: round"/>
    <path d="M 200.748214 213.182545 
L 196.748214 211.182545 
L 200.748214 209.182545 
z
" clip-path="url(#pf3ac4e4017)" style="stroke: #000000; stroke-linecap: round"/>
   </g>
   <g id="patch_29">
    <path d="M 292.294459 206.007865 
Q 334.539702 174.528345 375.88844 143.716866 
" clip-path="url(#pf3ac4e4017)" style="fill: none; stroke: #000000; stroke-linecap: round"/>
    <path d="M 371.485978 144.503205 
L 375.88844 143.716866 
L 373.876034 147.710639 
z
" clip-path="url(#pf3ac4e4017)" style="stroke: #000000; stroke-linecap: round"/>
   </g>
   <g id="patch_30">
    <path d="M 292.294459 216.357226 
Q 334.539702 247.836746 375.88844 278.648225 
" clip-path="url(#pf3ac4e4017)" style="fill: none; stroke: #000000; stroke-linecap: round"/>
    <path d="M 373.876034 274.654452 
L 375.88844 278.648225 
L 371.485978 277.861886 
z
" clip-path="url(#pf3ac4e4017)" style="stroke: #000000; stroke-linecap: round"/>
   </g>
   <g id="patch_31">
    <path d="M 278.405706 279.316956 
Q 236.160463 247.837436 194.811725 217.025957 
" clip-path="url(#pf3ac4e4017)" style="fill: none; stroke: #000000; stroke-linecap: round"/>
    <path d="M 196.824131 221.01973 
L 194.811725 217.025957 
L 199.214187 217.812296 
z
" clip-path="url(#pf3ac4e4017)" style="stroke: #000000; stroke-linecap: round"/>
   </g>
   <g id="patch_32">
    <path d="M 294.011788 284.491636 
Q 334.540887 284.491636 373.951951 284.491636 
" clip-path="url(#pf3ac4e4017)" style="fill: none; stroke: #000000; stroke-linecap: round"/>
    <path d="M 369.951951 282.491636 
L 373.951951 284.491636 
L 369.951951 286.491636 
z
" clip-path="url(#pf3ac4e4017)" style="stroke: #000000; stroke-linecap: round"/>
   </g>
   <g id="patch_33">
    <path d="M 376.785872 132.698774 
Q 334.540628 101.219254 293.19189 70.407775 
" clip-path="url(#pf3ac4e4017)" style="fill: none; stroke: #000000; stroke-linecap: round"/>
    <path d="M 295.204297 74.401548 
L 293.19189 70.407775 
L 297.594352 71.194114 
z
" clip-path="url(#pf3ac4e4017)" style="stroke: #000000; stroke-linecap: round"/>
   </g>
   <g id="patch_34">
    <path d="M 375.068542 137.873455 
Q 334.539444 137.873455 295.128379 137.873455 
" clip-path="url(#pf3ac4e4017)" style="fill: none; stroke: #000000; stroke-linecap: round"/>
    <path d="M 299.128379 139.873455 
L 295.128379 137.873455 
L 299.128379 135.873455 
z
" clip-path="url(#pf3ac4e4017)" style="stroke: #000000; stroke-linecap: round"/>
   </g>
   <g id="patch_35">
    <path d="M 376.785872 143.048135 
Q 334.540628 174.527655 293.19189 205.339134 
" clip-path="url(#pf3ac4e4017)" style="fill: none; stroke: #000000; stroke-linecap: round"/>
    <path d="M 297.594352 204.552795 
L 293.19189 205.339134 
L 295.204297 201.345361 
z
" clip-path="url(#pf3ac4e4017)" style="stroke: #000000; stroke-linecap: round"/>
   </g>
   <g id="patch_36">
    <path d="M 378.904011 277.298987 
Q 334.540269 211.1827 290.79948 145.994814 
" clip-path="url(#pf3ac4e4017)" style="fill: none; stroke: #000000; stroke-linecap: round"/>
    <path d="M 291.367451 150.430737 
L 290.79948 145.994814 
L 294.689 148.201991 
z
" clip-path="url(#pf3ac4e4017)" style="stroke: #000000; stroke-linecap: round"/>
   </g>
   <g id="patch_37">
    <path d="M 376.785872 279.316956 
Q 334.540628 247.837436 293.19189 217.025957 
" clip-path="url(#pf3ac4e4017)" style="fill: none; stroke: #000000; stroke-linecap: round"/>
    <path d="M 295.204297 221.01973 
L 293.19189 217.025957 
L 297.594352 217.812296 
z
" clip-path="url(#pf3ac4e4017)" style="stroke: #000000; stroke-linecap: round"/>
   </g>
   <g id="patch_38">
    <path d="M 375.068542 284.491636 
Q 334.539444 284.491636 295.128379 284.491636 
" clip-path="url(#pf3ac4e4017)" style="fill: none; stroke: #000000; stroke-linecap: round"/>
    <path d="M 299.128379 286.491636 
L 295.128379 284.491636 
L 299.128379 282.491636 
z
" clip-path="url(#pf3ac4e4017)" style="stroke: #000000; stroke-linecap: round"/>
   </g>
   <g id="patch_39">
    <path d="M 95.534128 132.698774 
Q 137.779372 101.219254 178.231604 71.075816 
" clip-path="url(#pf3ac4e4017)" style="fill: none; stroke: #ff0000; stroke-width: 2; stroke-linecap: round"/>
    <path d="M 173.829143 71.862155 
L 178.231604 71.075816 
L 176.219198 75.069589 
z
" clip-path="url(#pf3ac4e4017)" style="fill: #ff0000; stroke: #ff0000; stroke-width: 2; stroke-linecap: round"/>
   </g>
   <g id="patch_40">
    <path d="M 186.969917 73.222389 
Q 186.969917 101.2172 186.969917 126.975943 
" clip-path="url(#pf3ac4e4017)" style="fill: none; stroke: #ff0000; stroke-width: 2; stroke-linecap: round"/>
    <path d="M 188.969917 122.975943 
L 186.969917 126.975943 
L 184.969917 122.975943 
z
" clip-path="url(#pf3ac4e4017)" style="fill: #ff0000; stroke: #ff0000; stroke-width: 2; stroke-linecap: round"/>
   </g>
   <g id="patch_41">
    <path d="M 193.914294 132.698774 
Q 236.159537 101.219254 276.61177 71.075816 
" clip-path="url(#pf3ac4e4017)" style="fill: none; stroke: #ff0000; stroke-width: 2; stroke-linecap: round"/>
    <path d="M 272.209308 71.862155 
L 276.61177 71.075816 
L 274.599364 75.069589 
z
" clip-path="url(#pf3ac4e4017)" style="fill: #ff0000; stroke: #ff0000; stroke-width: 2; stroke-linecap: round"/>
   </g>
   <g id="patch_42">
    <path d="M 292.294459 69.739044 
Q 334.539702 101.218564 374.991935 131.362002 
" clip-path="url(#pf3ac4e4017)" style="fill: none; stroke: #ff0000; stroke-width: 2; stroke-linecap: round"/>
    <path d="M 372.979529 127.368229 
L 374.991935 131.362002 
L 370.589473 130.575663 
z
" clip-path="url(#pf3ac4e4017)" style="fill: #ff0000; stroke: #ff0000; stroke-width: 2; stroke-linecap: round"/>
   </g>
   <g id="matplotlib.axis_1">
    <g id="xtick_1"/>
    <g id="xtick_2"/>
    <g id="xtick_3"/>
    <g id="xtick_4"/>
    <g id="xtick_5"/>
   </g>
   <g id="matplotlib.axis_2">
    <g id="ytick_1"/>
    <g id="ytick_2"/>
    <g id="ytick_3"/>
    <g id="ytick_4"/>
    <g id="ytick_5"/>
   </g>
   <g id="PathCollection_1">
    <defs>
     <path id="m73c7b80e1f" d="M 0 8.660254 
C 2.296726 8.660254 4.499694 7.747755 6.123724 6.123724 
C 7.747755 4.499694 8.660254 2.296726 8.660254 0 
C 8.660254 -2.296726 7.747755 -4.499694 6.123724 -6.123724 
C 4.499694 -7.747755 2.296726 -8.660254 0 -8.660254 
C -2.296726 -8.660254 -4.499694 -7.747755 -6.123724 -6.123724 
C -7.747755 -4.499694 -8.660254 -2.296726 -8.660254 0 
C -8.660254 2.296726 -7.747755 4.499694 -6.123724 6.123724 
C -4.499694 7.747755 -2.296726 8.660254 0 8.660254 
z
" style="stroke: #1f78b4"/>
    </defs>
    <g clip-path="url(#pf3ac4e4017)">
     <use xlink:href="#m73c7b80e1f" x="88.589752" y="137.873455" style="fill: #1f78b4; stroke: #1f78b4"/>
     <use xlink:href="#m73c7b80e1f" x="186.969917" y="64.564364" style="fill: #1f78b4; stroke: #1f78b4"/>
     <use xlink:href="#m73c7b80e1f" x="186.969917" y="137.873455" style="fill: #1f78b4; stroke: #1f78b4"/>
     <use xlink:href="#m73c7b80e1f" x="186.969917" y="211.182545" style="fill: #1f78b4; stroke: #1f78b4"/>
     <use xlink:href="#m73c7b80e1f" x="285.350083" y="64.564364" style="fill: #1f78b4; stroke: #1f78b4"/>
     <use xlink:href="#m73c7b80e1f" x="285.350083" y="137.873455" style="fill: #1f78b4; stroke: #1f78b4"/>
     <use xlink:href="#m73c7b80e1f" x="285.350083" y="211.182545" style="fill: #1f78b4; stroke: #1f78b4"/>
     <use xlink:href="#m73c7b80e1f" x="285.350083" y="284.491636" style="fill: #1f78b4; stroke: #1f78b4"/>
     <use xlink:href="#m73c7b80e1f" x="383.730248" y="137.873455" style="fill: #1f78b4; stroke: #1f78b4"/>
     <use xlink:href="#m73c7b80e1f" x="383.730248" y="284.491636" style="fill: #1f78b4; stroke: #1f78b4"/>
    </g>
   </g>
   <g id="patch_43">
    <path d="M 57.6 307.584 
L 57.6 41.472 
" style="fill: none; stroke: #000000; stroke-width: 0.8; stroke-linejoin: miter; stroke-linecap: square"/>
   </g>
   <g id="patch_44">
    <path d="M 414.72 307.584 
L 414.72 41.472 
" style="fill: none; stroke: #000000; stroke-width: 0.8; stroke-linejoin: miter; stroke-linecap: square"/>
   </g>
   <g id="patch_45">
    <path d="M 57.6 307.584 
L 414.72 307.584 
" style="fill: none; stroke: #000000; stroke-width: 0.8; stroke-linejoin: miter; stroke-linecap: square"/>
   </g>
   <g id="patch_46">
    <path d="M 57.6 41.472 
L 414.72 41.472 
" style="fill: none; stroke: #000000; stroke-width: 0.8; stroke-linejoin: miter; stroke-linecap: square"/>
   </g>
   <g id="text_1">
    <g clip-path="url(#pf3ac4e4017)">
     <!-- (0, 0) -->
     <g transform="translate(72.459127 126.522886) scale(0.12 -0.12)">
      <defs>
       <path id="DejaVuSans-28" d="M 1984 4856 
Q 1566 4138 1362 3434 
Q 1159 2731 1159 2009 
Q 1159 1288 1364 580 
Q 1569 -128 1984 -844 
L 1484 -844 
Q 1016 -109 783 600 
Q 550 1309 550 2009 
Q 550 2706 781 3412 
Q 1013 4119 1484 4856 
L 1984 4856 
z
" transform="scale(0.015625)"/>
       <path id="DejaVuSans-30" d="M 2034 4250 
Q 1547 4250 1301 3770 
Q 1056 3291 1056 2328 
Q 1056 1369 1301 889 
Q 1547 409 2034 409 
Q 2525 409 2770 889 
Q 3016 1369 3016 2328 
Q 3016 3291 2770 3770 
Q 2525 4250 2034 4250 
z
M 2034 4750 
Q 2819 4750 3233 4129 
Q 3647 3509 3647 2328 
Q 3647 1150 3233 529 
Q 2819 -91 2034 -91 
Q 1250 -91 836 529 
Q 422 1150 422 2328 
Q 422 3509 836 4129 
Q 1250 4750 2034 4750 
z
" transform="scale(0.015625)"/>
       <path id="DejaVuSans-2c" d="M 750 794 
L 1409 794 
L 1409 256 
L 897 -744 
L 494 -744 
L 750 256 
L 750 794 
z
" transform="scale(0.015625)"/>
       <path id="DejaVuSans-20" transform="scale(0.015625)"/>
       <path id="DejaVuSans-29" d="M 513 4856 
L 1013 4856 
Q 1481 4119 1714 3412 
Q 1947 2706 1947 2009 
Q 1947 1309 1714 600 
Q 1481 -109 1013 -844 
L 513 -844 
Q 928 -128 1133 580 
Q 1338 1288 1338 2009 
Q 1338 2731 1133 3434 
Q 928 4138 513 4856 
z
" transform="scale(0.015625)"/>
      </defs>
      <use xlink:href="#DejaVuSans-28"/>
      <use xlink:href="#DejaVuSans-30" x="39.013672"/>
      <use xlink:href="#DejaVuSans-2c" x="102.636719"/>
      <use xlink:href="#DejaVuSans-20" x="134.423828"/>
      <use xlink:href="#DejaVuSans-30" x="166.210938"/>
      <use xlink:href="#DejaVuSans-29" x="229.833984"/>
     </g>
    </g>
   </g>
   <g id="text_2">
    <g clip-path="url(#pf3ac4e4017)">
     <!-- (1, 1.5) -->
     <g transform="translate(165.114917 53.213795) scale(0.12 -0.12)">
      <defs>
       <path id="DejaVuSans-31" d="M 794 531 
L 1825 531 
L 1825 4091 
L 703 3866 
L 703 4441 
L 1819 4666 
L 2450 4666 
L 2450 531 
L 3481 531 
L 3481 0 
L 794 0 
L 794 531 
z
" transform="scale(0.015625)"/>
       <path id="DejaVuSans-2e" d="M 684 794 
L 1344 794 
L 1344 0 
L 684 0 
L 684 794 
z
" transform="scale(0.015625)"/>
       <path id="DejaVuSans-35" d="M 691 4666 
L 3169 4666 
L 3169 4134 
L 1269 4134 
L 1269 2991 
Q 1406 3038 1543 3061 
Q 1681 3084 1819 3084 
Q 2600 3084 3056 2656 
Q 3513 2228 3513 1497 
Q 3513 744 3044 326 
Q 2575 -91 1722 -91 
Q 1428 -91 1123 -41 
Q 819 9 494 109 
L 494 744 
Q 775 591 1075 516 
Q 1375 441 1709 441 
Q 2250 441 2565 725 
Q 2881 1009 2881 1497 
Q 2881 1984 2565 2268 
Q 2250 2553 1709 2553 
Q 1456 2553 1204 2497 
Q 953 2441 691 2322 
L 691 4666 
z
" transform="scale(0.015625)"/>
      </defs>
      <use xlink:href="#DejaVuSans-28"/>
      <use xlink:href="#DejaVuSans-31" x="39.013672"/>
      <use xlink:href="#DejaVuSans-2c" x="102.636719"/>
      <use xlink:href="#DejaVuSans-20" x="134.423828"/>
      <use xlink:href="#DejaVuSans-31" x="166.210938"/>
      <use xlink:href="#DejaVuSans-2e" x="229.833984"/>
      <use xlink:href="#DejaVuSans-35" x="261.621094"/>
      <use xlink:href="#DejaVuSans-29" x="325.244141"/>
     </g>
    </g>
   </g>
   <g id="text_3">
    <g clip-path="url(#pf3ac4e4017)">
     <!-- (2, 2.5) -->
     <g transform="translate(165.114917 126.522886) scale(0.12 -0.12)">
      <defs>
       <path id="DejaVuSans-32" d="M 1228 531 
L 3431 531 
L 3431 0 
L 469 0 
L 469 531 
Q 828 903 1448 1529 
Q 2069 2156 2228 2338 
Q 2531 2678 2651 2914 
Q 2772 3150 2772 3378 
Q 2772 3750 2511 3984 
Q 2250 4219 1831 4219 
Q 1534 4219 1204 4116 
Q 875 4013 500 3803 
L 500 4441 
Q 881 4594 1212 4672 
Q 1544 4750 1819 4750 
Q 2544 4750 2975 4387 
Q 3406 4025 3406 3419 
Q 3406 3131 3298 2873 
Q 3191 2616 2906 2266 
Q 2828 2175 2409 1742 
Q 1991 1309 1228 531 
z
" transform="scale(0.015625)"/>
      </defs>
      <use xlink:href="#DejaVuSans-28"/>
      <use xlink:href="#DejaVuSans-32" x="39.013672"/>
      <use xlink:href="#DejaVuSans-2c" x="102.636719"/>
      <use xlink:href="#DejaVuSans-20" x="134.423828"/>
      <use xlink:href="#DejaVuSans-32" x="166.210938"/>
      <use xlink:href="#DejaVuSans-2e" x="229.833984"/>
      <use xlink:href="#DejaVuSans-35" x="261.621094"/>
      <use xlink:href="#DejaVuSans-29" x="325.244141"/>
     </g>
    </g>
   </g>
   <g id="text_4">
    <g clip-path="url(#pf3ac4e4017)">
     <!-- (3, 3.0) -->
     <g transform="translate(165.114917 199.831977) scale(0.12 -0.12)">
      <defs>
       <path id="DejaVuSans-33" d="M 2597 2516 
Q 3050 2419 3304 2112 
Q 3559 1806 3559 1356 
Q 3559 666 3084 287 
Q 2609 -91 1734 -91 
Q 1441 -91 1130 -33 
Q 819 25 488 141 
L 488 750 
Q 750 597 1062 519 
Q 1375 441 1716 441 
Q 2309 441 2620 675 
Q 2931 909 2931 1356 
Q 2931 1769 2642 2001 
Q 2353 2234 1838 2234 
L 1294 2234 
L 1294 2753 
L 1863 2753 
Q 2328 2753 2575 2939 
Q 2822 3125 2822 3475 
Q 2822 3834 2567 4026 
Q 2313 4219 1838 4219 
Q 1578 4219 1281 4162 
Q 984 4106 628 3988 
L 628 4550 
Q 988 4650 1302 4700 
Q 1616 4750 1894 4750 
Q 2613 4750 3031 4423 
Q 3450 4097 3450 3541 
Q 3450 3153 3228 2886 
Q 3006 2619 2597 2516 
z
" transform="scale(0.015625)"/>
      </defs>
      <use xlink:href="#DejaVuSans-28"/>
      <use xlink:href="#DejaVuSans-33" x="39.013672"/>
      <use xlink:href="#DejaVuSans-2c" x="102.636719"/>
      <use xlink:href="#DejaVuSans-20" x="134.423828"/>
      <use xlink:href="#DejaVuSans-33" x="166.210938"/>
      <use xlink:href="#DejaVuSans-2e" x="229.833984"/>
      <use xlink:href="#DejaVuSans-30" x="261.621094"/>
      <use xlink:href="#DejaVuSans-29" x="325.244141"/>
     </g>
    </g>
   </g>
   <g id="text_5">
    <g clip-path="url(#pf3ac4e4017)">
     <!-- (4, 3.5) -->
     <g transform="translate(263.495083 53.213795) scale(0.12 -0.12)">
      <defs>
       <path id="DejaVuSans-34" d="M 2419 4116 
L 825 1625 
L 2419 1625 
L 2419 4116 
z
M 2253 4666 
L 3047 4666 
L 3047 1625 
L 3713 1625 
L 3713 1100 
L 3047 1100 
L 3047 0 
L 2419 0 
L 2419 1100 
L 313 1100 
L 313 1709 
L 2253 4666 
z
" transform="scale(0.015625)"/>
      </defs>
      <use xlink:href="#DejaVuSans-28"/>
      <use xlink:href="#DejaVuSans-34" x="39.013672"/>
      <use xlink:href="#DejaVuSans-2c" x="102.636719"/>
      <use xlink:href="#DejaVuSans-20" x="134.423828"/>
      <use xlink:href="#DejaVuSans-33" x="166.210938"/>
      <use xlink:href="#DejaVuSans-2e" x="229.833984"/>
      <use xlink:href="#DejaVuSans-35" x="261.621094"/>
      <use xlink:href="#DejaVuSans-29" x="325.244141"/>
     </g>
    </g>
   </g>
   <g id="text_6">
    <g clip-path="url(#pf3ac4e4017)">
     <!-- (5, 3.5) -->
     <g transform="translate(263.495083 126.522886) scale(0.12 -0.12)">
      <use xlink:href="#DejaVuSans-28"/>
      <use xlink:href="#DejaVuSans-35" x="39.013672"/>
      <use xlink:href="#DejaVuSans-2c" x="102.636719"/>
      <use xlink:href="#DejaVuSans-20" x="134.423828"/>
      <use xlink:href="#DejaVuSans-33" x="166.210938"/>
      <use xlink:href="#DejaVuSans-2e" x="229.833984"/>
      <use xlink:href="#DejaVuSans-35" x="261.621094"/>
      <use xlink:href="#DejaVuSans-29" x="325.244141"/>
     </g>
    </g>
   </g>
   <g id="text_7">
    <g clip-path="url(#pf3ac4e4017)">
     <!-- (6, 4.5) -->
     <g transform="translate(263.495083 199.831977) scale(0.12 -0.12)">
      <defs>
       <path id="DejaVuSans-36" d="M 2113 2584 
Q 1688 2584 1439 2293 
Q 1191 2003 1191 1497 
Q 1191 994 1439 701 
Q 1688 409 2113 409 
Q 2538 409 2786 701 
Q 3034 994 3034 1497 
Q 3034 2003 2786 2293 
Q 2538 2584 2113 2584 
z
M 3366 4563 
L 3366 3988 
Q 3128 4100 2886 4159 
Q 2644 4219 2406 4219 
Q 1781 4219 1451 3797 
Q 1122 3375 1075 2522 
Q 1259 2794 1537 2939 
Q 1816 3084 2150 3084 
Q 2853 3084 3261 2657 
Q 3669 2231 3669 1497 
Q 3669 778 3244 343 
Q 2819 -91 2113 -91 
Q 1303 -91 875 529 
Q 447 1150 447 2328 
Q 447 3434 972 4092 
Q 1497 4750 2381 4750 
Q 2619 4750 2861 4703 
Q 3103 4656 3366 4563 
z
" transform="scale(0.015625)"/>
      </defs>
      <use xlink:href="#DejaVuSans-28"/>
      <use xlink:href="#DejaVuSans-36" x="39.013672"/>
      <use xlink:href="#DejaVuSans-2c" x="102.636719"/>
      <use xlink:href="#DejaVuSans-20" x="134.423828"/>
      <use xlink:href="#DejaVuSans-34" x="166.210938"/>
      <use xlink:href="#DejaVuSans-2e" x="229.833984"/>
      <use xlink:href="#DejaVuSans-35" x="261.621094"/>
      <use xlink:href="#DejaVuSans-29" x="325.244141"/>
     </g>
    </g>
   </g>
   <g id="text_8">
    <g clip-path="url(#pf3ac4e4017)">
     <!-- (7, 4.0) -->
     <g transform="translate(263.495083 273.141068) scale(0.12 -0.12)">
      <defs>
       <path id="DejaVuSans-37" d="M 525 4666 
L 3525 4666 
L 3525 4397 
L 1831 0 
L 1172 0 
L 2766 4134 
L 525 4134 
L 525 4666 
z
" transform="scale(0.015625)"/>
      </defs>
      <use xlink:href="#DejaVuSans-28"/>
      <use xlink:href="#DejaVuSans-37" x="39.013672"/>
      <use xlink:href="#DejaVuSans-2c" x="102.636719"/>
      <use xlink:href="#DejaVuSans-20" x="134.423828"/>
      <use xlink:href="#DejaVuSans-34" x="166.210938"/>
      <use xlink:href="#DejaVuSans-2e" x="229.833984"/>
      <use xlink:href="#DejaVuSans-30" x="261.621094"/>
      <use xlink:href="#DejaVuSans-29" x="325.244141"/>
     </g>
    </g>
   </g>
   <g id="text_9">
    <g clip-path="url(#pf3ac4e4017)">
     <!-- (8, 5.5) -->
     <g transform="translate(361.875248 126.522886) scale(0.12 -0.12)">
      <defs>
       <path id="DejaVuSans-38" d="M 2034 2216 
Q 1584 2216 1326 1975 
Q 1069 1734 1069 1313 
Q 1069 891 1326 650 
Q 1584 409 2034 409 
Q 2484 409 2743 651 
Q 3003 894 3003 1313 
Q 3003 1734 2745 1975 
Q 2488 2216 2034 2216 
z
M 1403 2484 
Q 997 2584 770 2862 
Q 544 3141 544 3541 
Q 544 4100 942 4425 
Q 1341 4750 2034 4750 
Q 2731 4750 3128 4425 
Q 3525 4100 3525 3541 
Q 3525 3141 3298 2862 
Q 3072 2584 2669 2484 
Q 3125 2378 3379 2068 
Q 3634 1759 3634 1313 
Q 3634 634 3220 271 
Q 2806 -91 2034 -91 
Q 1263 -91 848 271 
Q 434 634 434 1313 
Q 434 1759 690 2068 
Q 947 2378 1403 2484 
z
M 1172 3481 
Q 1172 3119 1398 2916 
Q 1625 2713 2034 2713 
Q 2441 2713 2670 2916 
Q 2900 3119 2900 3481 
Q 2900 3844 2670 4047 
Q 2441 4250 2034 4250 
Q 1625 4250 1398 4047 
Q 1172 3844 1172 3481 
z
" transform="scale(0.015625)"/>
      </defs>
      <use xlink:href="#DejaVuSans-28"/>
      <use xlink:href="#DejaVuSans-38" x="39.013672"/>
      <use xlink:href="#DejaVuSans-2c" x="102.636719"/>
      <use xlink:href="#DejaVuSans-20" x="134.423828"/>
      <use xlink:href="#DejaVuSans-35" x="166.210938"/>
      <use xlink:href="#DejaVuSans-2e" x="229.833984"/>
      <use xlink:href="#DejaVuSans-35" x="261.621094"/>
      <use xlink:href="#DejaVuSans-29" x="325.244141"/>
     </g>
    </g>
   </g>
   <g id="text_10">
    <g clip-path="url(#pf3ac4e4017)">
     <!-- (9, 8.0) -->
     <g transform="translate(361.875248 273.141068) scale(0.12 -0.12)">
      <defs>
       <path id="DejaVuSans-39" d="M 703 97 
L 703 672 
Q 941 559 1184 500 
Q 1428 441 1663 441 
Q 2288 441 2617 861 
Q 2947 1281 2994 2138 
Q 2813 1869 2534 1725 
Q 2256 1581 1919 1581 
Q 1219 1581 811 2004 
Q 403 2428 403 3163 
Q 403 3881 828 4315 
Q 1253 4750 1959 4750 
Q 2769 4750 3195 4129 
Q 3622 3509 3622 2328 
Q 3622 1225 3098 567 
Q 2575 -91 1691 -91 
Q 1453 -91 1209 -44 
Q 966 3 703 97 
z
M 1959 2075 
Q 2384 2075 2632 2365 
Q 2881 2656 2881 3163 
Q 2881 3666 2632 3958 
Q 2384 4250 1959 4250 
Q 1534 4250 1286 3958 
Q 1038 3666 1038 3163 
Q 1038 2656 1286 2365 
Q 1534 2075 1959 2075 
z
" transform="scale(0.015625)"/>
      </defs>
      <use xlink:href="#DejaVuSans-28"/>
      <use xlink:href="#DejaVuSans-39" x="39.013672"/>
      <use xlink:href="#DejaVuSans-2c" x="102.636719"/>
      <use xlink:href="#DejaVuSans-20" x="134.423828"/>
      <use xlink:href="#DejaVuSans-38" x="166.210938"/>
      <use xlink:href="#DejaVuSans-2e" x="229.833984"/>
      <use xlink:href="#DejaVuSans-30" x="261.621094"/>
      <use xlink:href="#DejaVuSans-29" x="325.244141"/>
     </g>
    </g>
   </g>
  </g>
 </g>
 <defs>
  <clipPath id="pf3ac4e4017">
   <rect x="57.6" y="41.472" width="357.12" height="266.112"/>
  </clipPath>
 </defs>
</svg>
