<?xml version="1.0" encoding="utf-8" standalone="no"?>
<!DOCTYPE svg PUBLIC "-//W3C//DTD SVG 1.1//EN"
  "http://www.w3.org/Graphics/SVG/1.1/DTD/svg11.dtd">
<svg xmlns:xlink="http://www.w3.org/1999/xlink" width="460.8pt" height="345.6pt" viewBox="0 0 460.8 345.6" xmlns="http://www.w3.org/2000/svg" version="1.1">
 <metadata>
  <rdf:RDF xmlns:dc="http://purl.org/dc/elements/1.1/" xmlns:cc="http://creativecommons.org/ns#" xmlns:rdf="http://www.w3.org/1999/02/22-rdf-syntax-ns#">
   <cc:Work>
    <dc:type rdf:resource="http://purl.org/dc/dcmitype/StillImage"/>
    <dc:date>2023-11-20T00:22:22.104696</dc:date>
    <dc:format>image/svg+xml</dc:format>
    <dc:creator>
     <cc:Agent>
      <dc:title>Matplotlib v3.8.1, https://matplotlib.org/</dc:title>
     </cc:Agent>
    </dc:creator>
   </cc:Work>
  </rdf:RDF>
 </metadata>
 <defs>
  <style type="text/css">*{stroke-linejoin: round; stroke-linecap: butt}</style>
 </defs>
 <g id="figure_1">
  <g id="patch_1">
   <path d="M 0 345.6 
L 460.8 345.6 
L 460.8 0 
L 0 0 
z
" style="fill: #ffffff"/>
  </g>
  <g id="axes_1">
   <g id="patch_2">
    <path d="M 57.6 307.584 
L 414.72 307.584 
L 414.72 41.472 
L 57.6 41.472 
z
" style="fill: #ffffff"/>
   </g>
   <g id="patch_3">
    <path d="M 268.21156 185.711168 
Q 263.655105 175.949939 259.571554 167.201806 
" clip-path="url(#p4a1ab94be2)" style="fill: none; stroke: #000000; stroke-linecap: round"/>
    <path d="M 259.451186 171.672321 
L 259.571554 167.201806 
L 263.075746 169.980409 
z
" clip-path="url(#p4a1ab94be2)" style="stroke: #000000; stroke-linecap: round"/>
   </g>
   <g id="patch_4">
    <path d="M 265.154157 199.017072 
Q 258.860204 204.131678 253.433921 208.541195 
" clip-path="url(#p4a1ab94be2)" style="fill: none; stroke: #000000; stroke-linecap: round"/>
    <path d="M 257.799491 207.570732 
L 253.433921 208.541195 
L 255.276892 204.466461 
z
" clip-path="url(#p4a1ab94be2)" style="stroke: #000000; stroke-linecap: round"/>
   </g>
   <g id="patch_5">
    <path d="M 274.376233 201.846318 
Q 276.582122 209.153498 278.4649 215.390351 
" clip-path="url(#p4a1ab94be2)" style="fill: none; stroke: #000000; stroke-linecap: round"/>
    <path d="M 279.223567 210.983036 
L 278.4649 215.390351 
L 275.394248 212.139029 
z
" clip-path="url(#p4a1ab94be2)" style="stroke: #000000; stroke-linecap: round"/>
   </g>
   <g id="patch_6">
    <path d="M 253.983159 166.875748 
Q 250.641299 186.521599 247.486928 205.065249 
" clip-path="url(#p4a1ab94be2)" style="fill: none; stroke: #000000; stroke-linecap: round"/>
    <path d="M 250.129391 201.457287 
L 247.486928 205.065249 
L 246.186036 200.786502 
z
" clip-path="url(#p4a1ab94be2)" style="stroke: #000000; stroke-linecap: round"/>
   </g>
   <g id="patch_7">
    <path d="M 247.478561 161.762172 
Q 245.668408 162.540667 244.885331 162.877445 
" clip-path="url(#p4a1ab94be2)" style="fill: none; stroke: #000000; stroke-linecap: round"/>
    <path d="M 249.350078 163.134405 
L 244.885331 162.877445 
L 247.769747 159.459823 
z
" clip-path="url(#p4a1ab94be2)" style="stroke: #000000; stroke-linecap: round"/>
   </g>
   <g id="patch_8">
    <path d="M 254.175635 217.066789 
Q 263.56756 219.728275 271.883808 222.084936 
" clip-path="url(#p4a1ab94be2)" style="fill: none; stroke: #000000; stroke-linecap: round"/>
    <path d="M 268.580637 219.070129 
L 271.883808 222.084936 
L 267.49006 222.918588 
z
" clip-path="url(#p4a1ab94be2)" style="stroke: #000000; stroke-linecap: round"/>
   </g>
   <g id="patch_9">
    <path d="M 244.088553 206.225305 
Q 240.874436 190.722083 237.887282 176.313615 
" clip-path="url(#p4a1ab94be2)" style="fill: none; stroke: #000000; stroke-linecap: round"/>
    <path d="M 236.740936 180.636333 
L 237.887282 176.313615 
L 240.657649 179.824323 
z
" clip-path="url(#p4a1ab94be2)" style="stroke: #000000; stroke-linecap: round"/>
   </g>
   <g id="patch_10">
    <path d="M 242.666542 206.653505 
Q 239.066658 197.538091 235.877445 189.462556 
" clip-path="url(#p4a1ab94be2)" style="fill: none; stroke: #000000; stroke-linecap: round"/>
    <path d="M 235.486517 193.917573 
L 235.877445 189.462556 
L 239.206902 192.448308 
z
" clip-path="url(#p4a1ab94be2)" style="stroke: #000000; stroke-linecap: round"/>
   </g>
   <g id="patch_11">
    <path d="M 275.952285 217.9278 
Q 258.595557 195.744306 241.927777 174.441352 
" clip-path="url(#p4a1ab94be2)" style="fill: none; stroke: #000000; stroke-linecap: round"/>
    <path d="M 242.817477 178.824095 
L 241.927777 174.441352 
L 245.967791 176.359237 
z
" clip-path="url(#p4a1ab94be2)" style="stroke: #000000; stroke-linecap: round"/>
   </g>
   <g id="patch_12">
    <path d="M 274.874679 218.939599 
Q 256.788661 202.558669 239.531308 186.928281 
" clip-path="url(#p4a1ab94be2)" style="fill: none; stroke: #000000; stroke-linecap: round"/>
    <path d="M 241.153422 191.095864 
L 239.531308 186.928281 
L 243.838643 188.131139 
z
" clip-path="url(#p4a1ab94be2)" style="stroke: #000000; stroke-linecap: round"/>
   </g>
   <g id="patch_13">
    <path d="M 287.534489 230.754265 
Q 312.355611 254.620231 336.370809 277.711286 
" clip-path="url(#p4a1ab94be2)" style="fill: none; stroke: #000000; stroke-linecap: round"/>
    <path d="M 334.873651 273.4972 
L 336.370809 277.711286 
L 332.101246 276.380562 
z
" clip-path="url(#p4a1ab94be2)" style="stroke: #000000; stroke-linecap: round"/>
   </g>
   <g id="patch_14">
    <path d="M 120.723642 66.970207 
Q 108.816608 70.414109 97.983587 73.547372 
" clip-path="url(#p4a1ab94be2)" style="fill: none; stroke: #000000; stroke-linecap: round"/>
    <path d="M 102.38178 74.357247 
L 97.983587 73.547372 
L 101.270402 70.514742 
z
" clip-path="url(#p4a1ab94be2)" style="stroke: #000000; stroke-linecap: round"/>
   </g>
   <g id="patch_15">
    <path d="M 228.523041 162.208276 
Q 162.247112 121.50308 96.923878 81.383009 
" clip-path="url(#p4a1ab94be2)" style="fill: none; stroke: #000000; stroke-linecap: round"/>
    <path d="M 99.285643 85.180648 
L 96.923878 81.383009 
L 101.379048 81.77218 
z
" clip-path="url(#p4a1ab94be2)" style="stroke: #000000; stroke-linecap: round"/>
   </g>
   <g id="patch_16">
    <path d="M 242.947081 171.782791 
Q 309.816722 219.645404 375.777216 266.857285 
" clip-path="url(#p4a1ab94be2)" style="fill: none; stroke: #000000; stroke-linecap: round"/>
    <path d="M 373.688615 262.902826 
L 375.777216 266.857285 
L 371.360488 266.155491 
z
" clip-path="url(#p4a1ab94be2)" style="stroke: #000000; stroke-linecap: round"/>
   </g>
   <g id="patch_17">
    <path d="M 225.270327 175.283224 
Q 160.436942 128.314391 96.508964 82.001484 
" clip-path="url(#p4a1ab94be2)" style="fill: none; stroke: #000000; stroke-linecap: round"/>
    <path d="M 98.57489 85.967836 
L 96.508964 82.001484 
L 100.921602 82.728555 
z
" clip-path="url(#p4a1ab94be2)" style="stroke: #000000; stroke-linecap: round"/>
   </g>
   <g id="patch_18">
    <path d="M 239.681602 184.867289 
Q 308.007777 226.457454 375.37893 267.466297 
" clip-path="url(#p4a1ab94be2)" style="fill: none; stroke: #000000; stroke-linecap: round"/>
    <path d="M 373.002043 263.678104 
L 375.37893 267.466297 
L 370.922243 267.094891 
z
" clip-path="url(#p4a1ab94be2)" style="stroke: #000000; stroke-linecap: round"/>
   </g>
   <g id="patch_19">
    <path d="M 351.725657 282.031683 
Q 363.576966 278.520519 374.356299 275.326948 
" clip-path="url(#p4a1ab94be2)" style="fill: none; stroke: #000000; stroke-linecap: round"/>
    <path d="M 369.95295 274.545591 
L 374.356299 275.326948 
L 371.089203 278.380813 
z
" clip-path="url(#p4a1ab94be2)" style="stroke: #000000; stroke-linecap: round"/>
   </g>
   <g id="patch_20">
    <path d="M 268.21156 185.711168 
Q 263.655105 175.949939 260.044458 168.214901 
" clip-path="url(#p4a1ab94be2)" style="fill: none; stroke: #ff0000; stroke-width: 2; stroke-linecap: round"/>
    <path d="M 259.92409 172.685417 
L 260.044458 168.214901 
L 263.54865 170.993505 
z
" clip-path="url(#p4a1ab94be2)" style="fill: #ff0000; stroke: #ff0000; stroke-width: 2; stroke-linecap: round"/>
   </g>
   <g id="patch_21">
    <path d="M 247.478561 161.762172 
Q 245.668408 162.540667 245.912408 162.435729 
" clip-path="url(#p4a1ab94be2)" style="fill: none; stroke: #ff0000; stroke-width: 2; stroke-linecap: round"/>
    <path d="M 250.377155 162.692689 
L 245.912408 162.435729 
L 248.796824 159.018107 
z
" clip-path="url(#p4a1ab94be2)" style="fill: #ff0000; stroke: #ff0000; stroke-width: 2; stroke-linecap: round"/>
   </g>
   <g id="patch_22">
    <path d="M 228.523041 162.208276 
Q 162.247112 121.50308 97.876573 81.968133 
" clip-path="url(#p4a1ab94be2)" style="fill: none; stroke: #ff0000; stroke-width: 2; stroke-linecap: round"/>
    <path d="M 100.238339 85.765773 
L 97.876573 81.968133 
L 102.331744 82.357304 
z
" clip-path="url(#p4a1ab94be2)" style="fill: #ff0000; stroke: #ff0000; stroke-width: 2; stroke-linecap: round"/>
   </g>
   <g id="matplotlib.axis_1">
    <g id="xtick_1"/>
    <g id="xtick_2"/>
    <g id="xtick_3"/>
    <g id="xtick_4"/>
    <g id="xtick_5"/>
   </g>
   <g id="matplotlib.axis_2">
    <g id="ytick_1"/>
    <g id="ytick_2"/>
    <g id="ytick_3"/>
    <g id="ytick_4"/>
    <g id="ytick_5"/>
   </g>
   <g id="PathCollection_1">
    <defs>
     <path id="mcbef9e5a6d" d="M 0 8.660254 
C 2.296726 8.660254 4.499694 7.747755 6.123724 6.123724 
C 7.747755 4.499694 8.660254 2.296726 8.660254 0 
C 8.660254 -2.296726 7.747755 -4.499694 6.123724 -6.123724 
C 4.499694 -7.747755 2.296726 -8.660254 0 -8.660254 
C -2.296726 -8.660254 -4.499694 -7.747755 -6.123724 -6.123724 
C -7.747755 -4.499694 -8.660254 -2.296726 -8.660254 0 
C -8.660254 2.296726 -7.747755 4.499694 -6.123724 6.123724 
C -4.499694 7.747755 -2.296726 8.660254 0 8.660254 
z
" style="stroke: #1f78b4"/>
    </defs>
    <g clip-path="url(#p4a1ab94be2)">
     <use xlink:href="#mcbef9e5a6d" x="271.873735" y="193.556595" style="fill: #1f78b4; stroke: #1f78b4"/>
     <use xlink:href="#mcbef9e5a6d" x="255.435083" y="158.340302" style="fill: #1f78b4; stroke: #1f78b4"/>
     <use xlink:href="#mcbef9e5a6d" x="245.846887" y="214.706586" style="fill: #1f78b4; stroke: #1f78b4"/>
     <use xlink:href="#mcbef9e5a6d" x="281.290578" y="224.750629" style="fill: #1f78b4; stroke: #1f78b4"/>
     <use xlink:href="#mcbef9e5a6d" x="129.041665" y="64.564364" style="fill: #1f78b4; stroke: #1f78b4"/>
     <use xlink:href="#mcbef9e5a6d" x="235.902621" y="166.74065" style="fill: #1f78b4; stroke: #1f78b4"/>
     <use xlink:href="#mcbef9e5a6d" x="232.284478" y="180.364658" style="fill: #1f78b4; stroke: #1f78b4"/>
     <use xlink:href="#mcbef9e5a6d" x="343.422521" y="284.491636" style="fill: #1f78b4; stroke: #1f78b4"/>
     <use xlink:href="#mcbef9e5a6d" x="88.589752" y="76.264375" style="fill: #1f78b4; stroke: #1f78b4"/>
     <use xlink:href="#mcbef9e5a6d" x="383.730248" y="272.549747" style="fill: #1f78b4; stroke: #1f78b4"/>
    </g>
   </g>
   <g id="patch_23">
    <path d="M 57.6 307.584 
L 57.6 41.472 
" style="fill: none; stroke: #000000; stroke-width: 0.8; stroke-linejoin: miter; stroke-linecap: square"/>
   </g>
   <g id="patch_24">
    <path d="M 414.72 307.584 
L 414.72 41.472 
" style="fill: none; stroke: #000000; stroke-width: 0.8; stroke-linejoin: miter; stroke-linecap: square"/>
   </g>
   <g id="patch_25">
    <path d="M 57.6 307.584 
L 414.72 307.584 
" style="fill: none; stroke: #000000; stroke-width: 0.8; stroke-linejoin: miter; stroke-linecap: square"/>
   </g>
   <g id="patch_26">
    <path d="M 57.6 41.472 
L 414.72 41.472 
" style="fill: none; stroke: #000000; stroke-width: 0.8; stroke-linejoin: miter; stroke-linecap: square"/>
   </g>
   <g id="text_1">
    <g clip-path="url(#p4a1ab94be2)">
     <!-- 0 -->
     <g transform="translate(268.056235 196.867845) scale(0.12 -0.12)">
      <defs>
       <path id="DejaVuSans-30" d="M 2034 4250 
Q 1547 4250 1301 3770 
Q 1056 3291 1056 2328 
Q 1056 1369 1301 889 
Q 1547 409 2034 409 
Q 2525 409 2770 889 
Q 3016 1369 3016 2328 
Q 3016 3291 2770 3770 
Q 2525 4250 2034 4250 
z
M 2034 4750 
Q 2819 4750 3233 4129 
Q 3647 3509 3647 2328 
Q 3647 1150 3233 529 
Q 2819 -91 2034 -91 
Q 1250 -91 836 529 
Q 422 1150 422 2328 
Q 422 3509 836 4129 
Q 1250 4750 2034 4750 
z
" transform="scale(0.015625)"/>
      </defs>
      <use xlink:href="#DejaVuSans-30"/>
     </g>
    </g>
   </g>
   <g id="text_2">
    <g clip-path="url(#p4a1ab94be2)">
     <!-- 1 -->
     <g transform="translate(251.617583 161.651552) scale(0.12 -0.12)">
      <defs>
       <path id="DejaVuSans-31" d="M 794 531 
L 1825 531 
L 1825 4091 
L 703 3866 
L 703 4441 
L 1819 4666 
L 2450 4666 
L 2450 531 
L 3481 531 
L 3481 0 
L 794 0 
L 794 531 
z
" transform="scale(0.015625)"/>
      </defs>
      <use xlink:href="#DejaVuSans-31"/>
     </g>
    </g>
   </g>
   <g id="text_3">
    <g clip-path="url(#p4a1ab94be2)">
     <!-- 2 -->
     <g transform="translate(242.029387 218.017836) scale(0.12 -0.12)">
      <defs>
       <path id="DejaVuSans-32" d="M 1228 531 
L 3431 531 
L 3431 0 
L 469 0 
L 469 531 
Q 828 903 1448 1529 
Q 2069 2156 2228 2338 
Q 2531 2678 2651 2914 
Q 2772 3150 2772 3378 
Q 2772 3750 2511 3984 
Q 2250 4219 1831 4219 
Q 1534 4219 1204 4116 
Q 875 4013 500 3803 
L 500 4441 
Q 881 4594 1212 4672 
Q 1544 4750 1819 4750 
Q 2544 4750 2975 4387 
Q 3406 4025 3406 3419 
Q 3406 3131 3298 2873 
Q 3191 2616 2906 2266 
Q 2828 2175 2409 1742 
Q 1991 1309 1228 531 
z
" transform="scale(0.015625)"/>
      </defs>
      <use xlink:href="#DejaVuSans-32"/>
     </g>
    </g>
   </g>
   <g id="text_4">
    <g clip-path="url(#p4a1ab94be2)">
     <!-- 3 -->
     <g transform="translate(277.473078 228.061879) scale(0.12 -0.12)">
      <defs>
       <path id="DejaVuSans-33" d="M 2597 2516 
Q 3050 2419 3304 2112 
Q 3559 1806 3559 1356 
Q 3559 666 3084 287 
Q 2609 -91 1734 -91 
Q 1441 -91 1130 -33 
Q 819 25 488 141 
L 488 750 
Q 750 597 1062 519 
Q 1375 441 1716 441 
Q 2309 441 2620 675 
Q 2931 909 2931 1356 
Q 2931 1769 2642 2001 
Q 2353 2234 1838 2234 
L 1294 2234 
L 1294 2753 
L 1863 2753 
Q 2328 2753 2575 2939 
Q 2822 3125 2822 3475 
Q 2822 3834 2567 4026 
Q 2313 4219 1838 4219 
Q 1578 4219 1281 4162 
Q 984 4106 628 3988 
L 628 4550 
Q 988 4650 1302 4700 
Q 1616 4750 1894 4750 
Q 2613 4750 3031 4423 
Q 3450 4097 3450 3541 
Q 3450 3153 3228 2886 
Q 3006 2619 2597 2516 
z
" transform="scale(0.015625)"/>
      </defs>
      <use xlink:href="#DejaVuSans-33"/>
     </g>
    </g>
   </g>
   <g id="text_5">
    <g clip-path="url(#p4a1ab94be2)">
     <!-- 4 -->
     <g transform="translate(125.224165 67.875614) scale(0.12 -0.12)">
      <defs>
       <path id="DejaVuSans-34" d="M 2419 4116 
L 825 1625 
L 2419 1625 
L 2419 4116 
z
M 2253 4666 
L 3047 4666 
L 3047 1625 
L 3713 1625 
L 3713 1100 
L 3047 1100 
L 3047 0 
L 2419 0 
L 2419 1100 
L 313 1100 
L 313 1709 
L 2253 4666 
z
" transform="scale(0.015625)"/>
      </defs>
      <use xlink:href="#DejaVuSans-34"/>
     </g>
    </g>
   </g>
   <g id="text_6">
    <g clip-path="url(#p4a1ab94be2)">
     <!-- 5 -->
     <g transform="translate(232.085121 170.0519) scale(0.12 -0.12)">
      <defs>
       <path id="DejaVuSans-35" d="M 691 4666 
L 3169 4666 
L 3169 4134 
L 1269 4134 
L 1269 2991 
Q 1406 3038 1543 3061 
Q 1681 3084 1819 3084 
Q 2600 3084 3056 2656 
Q 3513 2228 3513 1497 
Q 3513 744 3044 326 
Q 2575 -91 1722 -91 
Q 1428 -91 1123 -41 
Q 819 9 494 109 
L 494 744 
Q 775 591 1075 516 
Q 1375 441 1709 441 
Q 2250 441 2565 725 
Q 2881 1009 2881 1497 
Q 2881 1984 2565 2268 
Q 2250 2553 1709 2553 
Q 1456 2553 1204 2497 
Q 953 2441 691 2322 
L 691 4666 
z
" transform="scale(0.015625)"/>
      </defs>
      <use xlink:href="#DejaVuSans-35"/>
     </g>
    </g>
   </g>
   <g id="text_7">
    <g clip-path="url(#p4a1ab94be2)">
     <!-- 6 -->
     <g transform="translate(228.466978 183.675908) scale(0.12 -0.12)">
      <defs>
       <path id="DejaVuSans-36" d="M 2113 2584 
Q 1688 2584 1439 2293 
Q 1191 2003 1191 1497 
Q 1191 994 1439 701 
Q 1688 409 2113 409 
Q 2538 409 2786 701 
Q 3034 994 3034 1497 
Q 3034 2003 2786 2293 
Q 2538 2584 2113 2584 
z
M 3366 4563 
L 3366 3988 
Q 3128 4100 2886 4159 
Q 2644 4219 2406 4219 
Q 1781 4219 1451 3797 
Q 1122 3375 1075 2522 
Q 1259 2794 1537 2939 
Q 1816 3084 2150 3084 
Q 2853 3084 3261 2657 
Q 3669 2231 3669 1497 
Q 3669 778 3244 343 
Q 2819 -91 2113 -91 
Q 1303 -91 875 529 
Q 447 1150 447 2328 
Q 447 3434 972 4092 
Q 1497 4750 2381 4750 
Q 2619 4750 2861 4703 
Q 3103 4656 3366 4563 
z
" transform="scale(0.015625)"/>
      </defs>
      <use xlink:href="#DejaVuSans-36"/>
     </g>
    </g>
   </g>
   <g id="text_8">
    <g clip-path="url(#p4a1ab94be2)">
     <!-- 7 -->
     <g transform="translate(339.605021 287.802886) scale(0.12 -0.12)">
      <defs>
       <path id="DejaVuSans-37" d="M 525 4666 
L 3525 4666 
L 3525 4397 
L 1831 0 
L 1172 0 
L 2766 4134 
L 525 4134 
L 525 4666 
z
" transform="scale(0.015625)"/>
      </defs>
      <use xlink:href="#DejaVuSans-37"/>
     </g>
    </g>
   </g>
   <g id="text_9">
    <g clip-path="url(#p4a1ab94be2)">
     <!-- 8 -->
     <g transform="translate(84.772252 79.575625) scale(0.12 -0.12)">
      <defs>
       <path id="DejaVuSans-38" d="M 2034 2216 
Q 1584 2216 1326 1975 
Q 1069 1734 1069 1313 
Q 1069 891 1326 650 
Q 1584 409 2034 409 
Q 2484 409 2743 651 
Q 3003 894 3003 1313 
Q 3003 1734 2745 1975 
Q 2488 2216 2034 2216 
z
M 1403 2484 
Q 997 2584 770 2862 
Q 544 3141 544 3541 
Q 544 4100 942 4425 
Q 1341 4750 2034 4750 
Q 2731 4750 3128 4425 
Q 3525 4100 3525 3541 
Q 3525 3141 3298 2862 
Q 3072 2584 2669 2484 
Q 3125 2378 3379 2068 
Q 3634 1759 3634 1313 
Q 3634 634 3220 271 
Q 2806 -91 2034 -91 
Q 1263 -91 848 271 
Q 434 634 434 1313 
Q 434 1759 690 2068 
Q 947 2378 1403 2484 
z
M 1172 3481 
Q 1172 3119 1398 2916 
Q 1625 2713 2034 2713 
Q 2441 2713 2670 2916 
Q 2900 3119 2900 3481 
Q 2900 3844 2670 4047 
Q 2441 4250 2034 4250 
Q 1625 4250 1398 4047 
Q 1172 3844 1172 3481 
z
" transform="scale(0.015625)"/>
      </defs>
      <use xlink:href="#DejaVuSans-38"/>
     </g>
    </g>
   </g>
   <g id="text_10">
    <g clip-path="url(#p4a1ab94be2)">
     <!-- 9 -->
     <g transform="translate(379.912748 275.860997) scale(0.12 -0.12)">
      <defs>
       <path id="DejaVuSans-39" d="M 703 97 
L 703 672 
Q 941 559 1184 500 
Q 1428 441 1663 441 
Q 2288 441 2617 861 
Q 2947 1281 2994 2138 
Q 2813 1869 2534 1725 
Q 2256 1581 1919 1581 
Q 1219 1581 811 2004 
Q 403 2428 403 3163 
Q 403 3881 828 4315 
Q 1253 4750 1959 4750 
Q 2769 4750 3195 4129 
Q 3622 3509 3622 2328 
Q 3622 1225 3098 567 
Q 2575 -91 1691 -91 
Q 1453 -91 1209 -44 
Q 966 3 703 97 
z
M 1959 2075 
Q 2384 2075 2632 2365 
Q 2881 2656 2881 3163 
Q 2881 3666 2632 3958 
Q 2384 4250 1959 4250 
Q 1534 4250 1286 3958 
Q 1038 3666 1038 3163 
Q 1038 2656 1286 2365 
Q 1534 2075 1959 2075 
z
" transform="scale(0.015625)"/>
      </defs>
      <use xlink:href="#DejaVuSans-39"/>
     </g>
    </g>
   </g>
  </g>
 </g>
 <defs>
  <clipPath id="p4a1ab94be2">
   <rect x="57.6" y="41.472" width="357.12" height="266.112"/>
  </clipPath>
 </defs>
</svg>
