<?xml version="1.0" encoding="utf-8" standalone="no"?>
<!DOCTYPE svg PUBLIC "-//W3C//DTD SVG 1.1//EN"
  "http://www.w3.org/Graphics/SVG/1.1/DTD/svg11.dtd">
<svg xmlns:xlink="http://www.w3.org/1999/xlink" width="460.8pt" height="345.6pt" viewBox="0 0 460.8 345.6" xmlns="http://www.w3.org/2000/svg" version="1.1">
 <metadata>
  <rdf:RDF xmlns:dc="http://purl.org/dc/elements/1.1/" xmlns:cc="http://creativecommons.org/ns#" xmlns:rdf="http://www.w3.org/1999/02/22-rdf-syntax-ns#">
   <cc:Work>
    <dc:type rdf:resource="http://purl.org/dc/dcmitype/StillImage"/>
    <dc:date>2025-05-23T21:51:38.207865</dc:date>
    <dc:format>image/svg+xml</dc:format>
    <dc:creator>
     <cc:Agent>
      <dc:title>Matplotlib v3.9.2, https://matplotlib.org/</dc:title>
     </cc:Agent>
    </dc:creator>
   </cc:Work>
  </rdf:RDF>
 </metadata>
 <defs>
  <style type="text/css">*{stroke-linejoin: round; stroke-linecap: butt}</style>
 </defs>
 <g id="figure_1">
  <g id="patch_1">
   <path d="M 0 345.6 
L 460.8 345.6 
L 460.8 0 
L 0 0 
z
" style="fill: #ffffff"/>
  </g>
  <g id="axes_1">
   <g id="patch_2">
    <path d="M 57.6 307.584 
L 414.72 307.584 
L 414.72 41.472 
L 57.6 41.472 
z
" style="fill: #ffffff"/>
   </g>
   <g id="matplotlib.axis_1">
    <g id="xtick_1">
     <g id="line2d_1">
      <path d="M 73.832727 307.584 
L 73.832727 41.472 
" clip-path="url(#p0896ce4b31)" style="fill: none; stroke: #b0b0b0; stroke-width: 0.8; stroke-linecap: square"/>
     </g>
     <g id="line2d_2">
      <defs>
       <path id="mf5d35c8abf" d="M 0 0 
L 0 3.5 
" style="stroke: #000000; stroke-width: 0.8"/>
      </defs>
      <g>
       <use xlink:href="#mf5d35c8abf" x="73.832727" y="307.584" style="stroke: #000000; stroke-width: 0.8"/>
      </g>
     </g>
     <g id="text_1">
      <!-- 0 -->
      <g transform="translate(70.651477 322.182437) scale(0.1 -0.1)">
       <defs>
        <path id="DejaVuSans-30" d="M 2034 4250 
Q 1547 4250 1301 3770 
Q 1056 3291 1056 2328 
Q 1056 1369 1301 889 
Q 1547 409 2034 409 
Q 2525 409 2770 889 
Q 3016 1369 3016 2328 
Q 3016 3291 2770 3770 
Q 2525 4250 2034 4250 
z
M 2034 4750 
Q 2819 4750 3233 4129 
Q 3647 3509 3647 2328 
Q 3647 1150 3233 529 
Q 2819 -91 2034 -91 
Q 1250 -91 836 529 
Q 422 1150 422 2328 
Q 422 3509 836 4129 
Q 1250 4750 2034 4750 
z
" transform="scale(0.015625)"/>
       </defs>
       <use xlink:href="#DejaVuSans-30"/>
      </g>
     </g>
    </g>
    <g id="xtick_2">
     <g id="line2d_3">
      <path d="M 141.340732 307.584 
L 141.340732 41.472 
" clip-path="url(#p0896ce4b31)" style="fill: none; stroke: #b0b0b0; stroke-width: 0.8; stroke-linecap: square"/>
     </g>
     <g id="line2d_4">
      <g>
       <use xlink:href="#mf5d35c8abf" x="141.340732" y="307.584" style="stroke: #000000; stroke-width: 0.8"/>
      </g>
     </g>
     <g id="text_2">
      <!-- 1000 -->
      <g transform="translate(128.615732 322.182437) scale(0.1 -0.1)">
       <defs>
        <path id="DejaVuSans-31" d="M 794 531 
L 1825 531 
L 1825 4091 
L 703 3866 
L 703 4441 
L 1819 4666 
L 2450 4666 
L 2450 531 
L 3481 531 
L 3481 0 
L 794 0 
L 794 531 
z
" transform="scale(0.015625)"/>
       </defs>
       <use xlink:href="#DejaVuSans-31"/>
       <use xlink:href="#DejaVuSans-30" x="63.623047"/>
       <use xlink:href="#DejaVuSans-30" x="127.246094"/>
       <use xlink:href="#DejaVuSans-30" x="190.869141"/>
      </g>
     </g>
    </g>
    <g id="xtick_3">
     <g id="line2d_5">
      <path d="M 208.848737 307.584 
L 208.848737 41.472 
" clip-path="url(#p0896ce4b31)" style="fill: none; stroke: #b0b0b0; stroke-width: 0.8; stroke-linecap: square"/>
     </g>
     <g id="line2d_6">
      <g>
       <use xlink:href="#mf5d35c8abf" x="208.848737" y="307.584" style="stroke: #000000; stroke-width: 0.8"/>
      </g>
     </g>
     <g id="text_3">
      <!-- 2000 -->
      <g transform="translate(196.123737 322.182437) scale(0.1 -0.1)">
       <defs>
        <path id="DejaVuSans-32" d="M 1228 531 
L 3431 531 
L 3431 0 
L 469 0 
L 469 531 
Q 828 903 1448 1529 
Q 2069 2156 2228 2338 
Q 2531 2678 2651 2914 
Q 2772 3150 2772 3378 
Q 2772 3750 2511 3984 
Q 2250 4219 1831 4219 
Q 1534 4219 1204 4116 
Q 875 4013 500 3803 
L 500 4441 
Q 881 4594 1212 4672 
Q 1544 4750 1819 4750 
Q 2544 4750 2975 4387 
Q 3406 4025 3406 3419 
Q 3406 3131 3298 2873 
Q 3191 2616 2906 2266 
Q 2828 2175 2409 1742 
Q 1991 1309 1228 531 
z
" transform="scale(0.015625)"/>
       </defs>
       <use xlink:href="#DejaVuSans-32"/>
       <use xlink:href="#DejaVuSans-30" x="63.623047"/>
       <use xlink:href="#DejaVuSans-30" x="127.246094"/>
       <use xlink:href="#DejaVuSans-30" x="190.869141"/>
      </g>
     </g>
    </g>
    <g id="xtick_4">
     <g id="line2d_7">
      <path d="M 276.356742 307.584 
L 276.356742 41.472 
" clip-path="url(#p0896ce4b31)" style="fill: none; stroke: #b0b0b0; stroke-width: 0.8; stroke-linecap: square"/>
     </g>
     <g id="line2d_8">
      <g>
       <use xlink:href="#mf5d35c8abf" x="276.356742" y="307.584" style="stroke: #000000; stroke-width: 0.8"/>
      </g>
     </g>
     <g id="text_4">
      <!-- 3000 -->
      <g transform="translate(263.631742 322.182437) scale(0.1 -0.1)">
       <defs>
        <path id="DejaVuSans-33" d="M 2597 2516 
Q 3050 2419 3304 2112 
Q 3559 1806 3559 1356 
Q 3559 666 3084 287 
Q 2609 -91 1734 -91 
Q 1441 -91 1130 -33 
Q 819 25 488 141 
L 488 750 
Q 750 597 1062 519 
Q 1375 441 1716 441 
Q 2309 441 2620 675 
Q 2931 909 2931 1356 
Q 2931 1769 2642 2001 
Q 2353 2234 1838 2234 
L 1294 2234 
L 1294 2753 
L 1863 2753 
Q 2328 2753 2575 2939 
Q 2822 3125 2822 3475 
Q 2822 3834 2567 4026 
Q 2313 4219 1838 4219 
Q 1578 4219 1281 4162 
Q 984 4106 628 3988 
L 628 4550 
Q 988 4650 1302 4700 
Q 1616 4750 1894 4750 
Q 2613 4750 3031 4423 
Q 3450 4097 3450 3541 
Q 3450 3153 3228 2886 
Q 3006 2619 2597 2516 
z
" transform="scale(0.015625)"/>
       </defs>
       <use xlink:href="#DejaVuSans-33"/>
       <use xlink:href="#DejaVuSans-30" x="63.623047"/>
       <use xlink:href="#DejaVuSans-30" x="127.246094"/>
       <use xlink:href="#DejaVuSans-30" x="190.869141"/>
      </g>
     </g>
    </g>
    <g id="xtick_5">
     <g id="line2d_9">
      <path d="M 343.864746 307.584 
L 343.864746 41.472 
" clip-path="url(#p0896ce4b31)" style="fill: none; stroke: #b0b0b0; stroke-width: 0.8; stroke-linecap: square"/>
     </g>
     <g id="line2d_10">
      <g>
       <use xlink:href="#mf5d35c8abf" x="343.864746" y="307.584" style="stroke: #000000; stroke-width: 0.8"/>
      </g>
     </g>
     <g id="text_5">
      <!-- 4000 -->
      <g transform="translate(331.139746 322.182437) scale(0.1 -0.1)">
       <defs>
        <path id="DejaVuSans-34" d="M 2419 4116 
L 825 1625 
L 2419 1625 
L 2419 4116 
z
M 2253 4666 
L 3047 4666 
L 3047 1625 
L 3713 1625 
L 3713 1100 
L 3047 1100 
L 3047 0 
L 2419 0 
L 2419 1100 
L 313 1100 
L 313 1709 
L 2253 4666 
z
" transform="scale(0.015625)"/>
       </defs>
       <use xlink:href="#DejaVuSans-34"/>
       <use xlink:href="#DejaVuSans-30" x="63.623047"/>
       <use xlink:href="#DejaVuSans-30" x="127.246094"/>
       <use xlink:href="#DejaVuSans-30" x="190.869141"/>
      </g>
     </g>
    </g>
    <g id="xtick_6">
     <g id="line2d_11">
      <path d="M 411.372751 307.584 
L 411.372751 41.472 
" clip-path="url(#p0896ce4b31)" style="fill: none; stroke: #b0b0b0; stroke-width: 0.8; stroke-linecap: square"/>
     </g>
     <g id="line2d_12">
      <g>
       <use xlink:href="#mf5d35c8abf" x="411.372751" y="307.584" style="stroke: #000000; stroke-width: 0.8"/>
      </g>
     </g>
     <g id="text_6">
      <!-- 5000 -->
      <g transform="translate(398.647751 322.182437) scale(0.1 -0.1)">
       <defs>
        <path id="DejaVuSans-35" d="M 691 4666 
L 3169 4666 
L 3169 4134 
L 1269 4134 
L 1269 2991 
Q 1406 3038 1543 3061 
Q 1681 3084 1819 3084 
Q 2600 3084 3056 2656 
Q 3513 2228 3513 1497 
Q 3513 744 3044 326 
Q 2575 -91 1722 -91 
Q 1428 -91 1123 -41 
Q 819 9 494 109 
L 494 744 
Q 775 591 1075 516 
Q 1375 441 1709 441 
Q 2250 441 2565 725 
Q 2881 1009 2881 1497 
Q 2881 1984 2565 2268 
Q 2250 2553 1709 2553 
Q 1456 2553 1204 2497 
Q 953 2441 691 2322 
L 691 4666 
z
" transform="scale(0.015625)"/>
       </defs>
       <use xlink:href="#DejaVuSans-35"/>
       <use xlink:href="#DejaVuSans-30" x="63.623047"/>
       <use xlink:href="#DejaVuSans-30" x="127.246094"/>
       <use xlink:href="#DejaVuSans-30" x="190.869141"/>
      </g>
     </g>
    </g>
    <g id="text_7">
     <!-- Time -->
     <g transform="translate(223.926406 335.860562) scale(0.1 -0.1)">
      <defs>
       <path id="DejaVuSans-54" d="M -19 4666 
L 3928 4666 
L 3928 4134 
L 2272 4134 
L 2272 0 
L 1638 0 
L 1638 4134 
L -19 4134 
L -19 4666 
z
" transform="scale(0.015625)"/>
       <path id="DejaVuSans-69" d="M 603 3500 
L 1178 3500 
L 1178 0 
L 603 0 
L 603 3500 
z
M 603 4863 
L 1178 4863 
L 1178 4134 
L 603 4134 
L 603 4863 
z
" transform="scale(0.015625)"/>
       <path id="DejaVuSans-6d" d="M 3328 2828 
Q 3544 3216 3844 3400 
Q 4144 3584 4550 3584 
Q 5097 3584 5394 3201 
Q 5691 2819 5691 2113 
L 5691 0 
L 5113 0 
L 5113 2094 
Q 5113 2597 4934 2840 
Q 4756 3084 4391 3084 
Q 3944 3084 3684 2787 
Q 3425 2491 3425 1978 
L 3425 0 
L 2847 0 
L 2847 2094 
Q 2847 2600 2669 2842 
Q 2491 3084 2119 3084 
Q 1678 3084 1418 2786 
Q 1159 2488 1159 1978 
L 1159 0 
L 581 0 
L 581 3500 
L 1159 3500 
L 1159 2956 
Q 1356 3278 1631 3431 
Q 1906 3584 2284 3584 
Q 2666 3584 2933 3390 
Q 3200 3197 3328 2828 
z
" transform="scale(0.015625)"/>
       <path id="DejaVuSans-65" d="M 3597 1894 
L 3597 1613 
L 953 1613 
Q 991 1019 1311 708 
Q 1631 397 2203 397 
Q 2534 397 2845 478 
Q 3156 559 3463 722 
L 3463 178 
Q 3153 47 2828 -22 
Q 2503 -91 2169 -91 
Q 1331 -91 842 396 
Q 353 884 353 1716 
Q 353 2575 817 3079 
Q 1281 3584 2069 3584 
Q 2775 3584 3186 3129 
Q 3597 2675 3597 1894 
z
M 3022 2063 
Q 3016 2534 2758 2815 
Q 2500 3097 2075 3097 
Q 1594 3097 1305 2825 
Q 1016 2553 972 2059 
L 3022 2063 
z
" transform="scale(0.015625)"/>
      </defs>
      <use xlink:href="#DejaVuSans-54"/>
      <use xlink:href="#DejaVuSans-69" x="57.958984"/>
      <use xlink:href="#DejaVuSans-6d" x="85.742188"/>
      <use xlink:href="#DejaVuSans-65" x="183.154297"/>
     </g>
    </g>
   </g>
   <g id="matplotlib.axis_2">
    <g id="ytick_1">
     <g id="line2d_13">
      <path d="M 57.6 295.488 
L 414.72 295.488 
" clip-path="url(#p0896ce4b31)" style="fill: none; stroke: #b0b0b0; stroke-width: 0.8; stroke-linecap: square"/>
     </g>
     <g id="line2d_14">
      <defs>
       <path id="m7f3a59bb25" d="M 0 0 
L -3.5 0 
" style="stroke: #000000; stroke-width: 0.8"/>
      </defs>
      <g>
       <use xlink:href="#m7f3a59bb25" x="57.6" y="295.488" style="stroke: #000000; stroke-width: 0.8"/>
      </g>
     </g>
     <g id="text_8">
      <!-- 0.0 -->
      <g transform="translate(34.696875 299.287219) scale(0.1 -0.1)">
       <defs>
        <path id="DejaVuSans-2e" d="M 684 794 
L 1344 794 
L 1344 0 
L 684 0 
L 684 794 
z
" transform="scale(0.015625)"/>
       </defs>
       <use xlink:href="#DejaVuSans-30"/>
       <use xlink:href="#DejaVuSans-2e" x="63.623047"/>
       <use xlink:href="#DejaVuSans-30" x="95.410156"/>
      </g>
     </g>
    </g>
    <g id="ytick_2">
     <g id="line2d_15">
      <path d="M 57.6 259.911529 
L 414.72 259.911529 
" clip-path="url(#p0896ce4b31)" style="fill: none; stroke: #b0b0b0; stroke-width: 0.8; stroke-linecap: square"/>
     </g>
     <g id="line2d_16">
      <g>
       <use xlink:href="#m7f3a59bb25" x="57.6" y="259.911529" style="stroke: #000000; stroke-width: 0.8"/>
      </g>
     </g>
     <g id="text_9">
      <!-- 2.5 -->
      <g transform="translate(34.696875 263.710748) scale(0.1 -0.1)">
       <use xlink:href="#DejaVuSans-32"/>
       <use xlink:href="#DejaVuSans-2e" x="63.623047"/>
       <use xlink:href="#DejaVuSans-35" x="95.410156"/>
      </g>
     </g>
    </g>
    <g id="ytick_3">
     <g id="line2d_17">
      <path d="M 57.6 224.335059 
L 414.72 224.335059 
" clip-path="url(#p0896ce4b31)" style="fill: none; stroke: #b0b0b0; stroke-width: 0.8; stroke-linecap: square"/>
     </g>
     <g id="line2d_18">
      <g>
       <use xlink:href="#m7f3a59bb25" x="57.6" y="224.335059" style="stroke: #000000; stroke-width: 0.8"/>
      </g>
     </g>
     <g id="text_10">
      <!-- 5.0 -->
      <g transform="translate(34.696875 228.134278) scale(0.1 -0.1)">
       <use xlink:href="#DejaVuSans-35"/>
       <use xlink:href="#DejaVuSans-2e" x="63.623047"/>
       <use xlink:href="#DejaVuSans-30" x="95.410156"/>
      </g>
     </g>
    </g>
    <g id="ytick_4">
     <g id="line2d_19">
      <path d="M 57.6 188.758588 
L 414.72 188.758588 
" clip-path="url(#p0896ce4b31)" style="fill: none; stroke: #b0b0b0; stroke-width: 0.8; stroke-linecap: square"/>
     </g>
     <g id="line2d_20">
      <g>
       <use xlink:href="#m7f3a59bb25" x="57.6" y="188.758588" style="stroke: #000000; stroke-width: 0.8"/>
      </g>
     </g>
     <g id="text_11">
      <!-- 7.5 -->
      <g transform="translate(34.696875 192.557807) scale(0.1 -0.1)">
       <defs>
        <path id="DejaVuSans-37" d="M 525 4666 
L 3525 4666 
L 3525 4397 
L 1831 0 
L 1172 0 
L 2766 4134 
L 525 4134 
L 525 4666 
z
" transform="scale(0.015625)"/>
       </defs>
       <use xlink:href="#DejaVuSans-37"/>
       <use xlink:href="#DejaVuSans-2e" x="63.623047"/>
       <use xlink:href="#DejaVuSans-35" x="95.410156"/>
      </g>
     </g>
    </g>
    <g id="ytick_5">
     <g id="line2d_21">
      <path d="M 57.6 153.182118 
L 414.72 153.182118 
" clip-path="url(#p0896ce4b31)" style="fill: none; stroke: #b0b0b0; stroke-width: 0.8; stroke-linecap: square"/>
     </g>
     <g id="line2d_22">
      <g>
       <use xlink:href="#m7f3a59bb25" x="57.6" y="153.182118" style="stroke: #000000; stroke-width: 0.8"/>
      </g>
     </g>
     <g id="text_12">
      <!-- 10.0 -->
      <g transform="translate(28.334375 156.981336) scale(0.1 -0.1)">
       <use xlink:href="#DejaVuSans-31"/>
       <use xlink:href="#DejaVuSans-30" x="63.623047"/>
       <use xlink:href="#DejaVuSans-2e" x="127.246094"/>
       <use xlink:href="#DejaVuSans-30" x="159.033203"/>
      </g>
     </g>
    </g>
    <g id="ytick_6">
     <g id="line2d_23">
      <path d="M 57.6 117.605647 
L 414.72 117.605647 
" clip-path="url(#p0896ce4b31)" style="fill: none; stroke: #b0b0b0; stroke-width: 0.8; stroke-linecap: square"/>
     </g>
     <g id="line2d_24">
      <g>
       <use xlink:href="#m7f3a59bb25" x="57.6" y="117.605647" style="stroke: #000000; stroke-width: 0.8"/>
      </g>
     </g>
     <g id="text_13">
      <!-- 12.5 -->
      <g transform="translate(28.334375 121.404866) scale(0.1 -0.1)">
       <use xlink:href="#DejaVuSans-31"/>
       <use xlink:href="#DejaVuSans-32" x="63.623047"/>
       <use xlink:href="#DejaVuSans-2e" x="127.246094"/>
       <use xlink:href="#DejaVuSans-35" x="159.033203"/>
      </g>
     </g>
    </g>
    <g id="ytick_7">
     <g id="line2d_25">
      <path d="M 57.6 82.029176 
L 414.72 82.029176 
" clip-path="url(#p0896ce4b31)" style="fill: none; stroke: #b0b0b0; stroke-width: 0.8; stroke-linecap: square"/>
     </g>
     <g id="line2d_26">
      <g>
       <use xlink:href="#m7f3a59bb25" x="57.6" y="82.029176" style="stroke: #000000; stroke-width: 0.8"/>
      </g>
     </g>
     <g id="text_14">
      <!-- 15.0 -->
      <g transform="translate(28.334375 85.828395) scale(0.1 -0.1)">
       <use xlink:href="#DejaVuSans-31"/>
       <use xlink:href="#DejaVuSans-35" x="63.623047"/>
       <use xlink:href="#DejaVuSans-2e" x="127.246094"/>
       <use xlink:href="#DejaVuSans-30" x="159.033203"/>
      </g>
     </g>
    </g>
    <g id="ytick_8">
     <g id="line2d_27">
      <path d="M 57.6 46.452706 
L 414.72 46.452706 
" clip-path="url(#p0896ce4b31)" style="fill: none; stroke: #b0b0b0; stroke-width: 0.8; stroke-linecap: square"/>
     </g>
     <g id="line2d_28">
      <g>
       <use xlink:href="#m7f3a59bb25" x="57.6" y="46.452706" style="stroke: #000000; stroke-width: 0.8"/>
      </g>
     </g>
     <g id="text_15">
      <!-- 17.5 -->
      <g transform="translate(28.334375 50.251925) scale(0.1 -0.1)">
       <use xlink:href="#DejaVuSans-31"/>
       <use xlink:href="#DejaVuSans-37" x="63.623047"/>
       <use xlink:href="#DejaVuSans-2e" x="127.246094"/>
       <use xlink:href="#DejaVuSans-35" x="159.033203"/>
      </g>
     </g>
    </g>
    <g id="text_16">
     <!-- Number of People -->
     <g transform="translate(22.254687 219.220969) rotate(-90) scale(0.1 -0.1)">
      <defs>
       <path id="DejaVuSans-4e" d="M 628 4666 
L 1478 4666 
L 3547 763 
L 3547 4666 
L 4159 4666 
L 4159 0 
L 3309 0 
L 1241 3903 
L 1241 0 
L 628 0 
L 628 4666 
z
" transform="scale(0.015625)"/>
       <path id="DejaVuSans-75" d="M 544 1381 
L 544 3500 
L 1119 3500 
L 1119 1403 
Q 1119 906 1312 657 
Q 1506 409 1894 409 
Q 2359 409 2629 706 
Q 2900 1003 2900 1516 
L 2900 3500 
L 3475 3500 
L 3475 0 
L 2900 0 
L 2900 538 
Q 2691 219 2414 64 
Q 2138 -91 1772 -91 
Q 1169 -91 856 284 
Q 544 659 544 1381 
z
M 1991 3584 
L 1991 3584 
z
" transform="scale(0.015625)"/>
       <path id="DejaVuSans-62" d="M 3116 1747 
Q 3116 2381 2855 2742 
Q 2594 3103 2138 3103 
Q 1681 3103 1420 2742 
Q 1159 2381 1159 1747 
Q 1159 1113 1420 752 
Q 1681 391 2138 391 
Q 2594 391 2855 752 
Q 3116 1113 3116 1747 
z
M 1159 2969 
Q 1341 3281 1617 3432 
Q 1894 3584 2278 3584 
Q 2916 3584 3314 3078 
Q 3713 2572 3713 1747 
Q 3713 922 3314 415 
Q 2916 -91 2278 -91 
Q 1894 -91 1617 61 
Q 1341 213 1159 525 
L 1159 0 
L 581 0 
L 581 4863 
L 1159 4863 
L 1159 2969 
z
" transform="scale(0.015625)"/>
       <path id="DejaVuSans-72" d="M 2631 2963 
Q 2534 3019 2420 3045 
Q 2306 3072 2169 3072 
Q 1681 3072 1420 2755 
Q 1159 2438 1159 1844 
L 1159 0 
L 581 0 
L 581 3500 
L 1159 3500 
L 1159 2956 
Q 1341 3275 1631 3429 
Q 1922 3584 2338 3584 
Q 2397 3584 2469 3576 
Q 2541 3569 2628 3553 
L 2631 2963 
z
" transform="scale(0.015625)"/>
       <path id="DejaVuSans-20" transform="scale(0.015625)"/>
       <path id="DejaVuSans-6f" d="M 1959 3097 
Q 1497 3097 1228 2736 
Q 959 2375 959 1747 
Q 959 1119 1226 758 
Q 1494 397 1959 397 
Q 2419 397 2687 759 
Q 2956 1122 2956 1747 
Q 2956 2369 2687 2733 
Q 2419 3097 1959 3097 
z
M 1959 3584 
Q 2709 3584 3137 3096 
Q 3566 2609 3566 1747 
Q 3566 888 3137 398 
Q 2709 -91 1959 -91 
Q 1206 -91 779 398 
Q 353 888 353 1747 
Q 353 2609 779 3096 
Q 1206 3584 1959 3584 
z
" transform="scale(0.015625)"/>
       <path id="DejaVuSans-66" d="M 2375 4863 
L 2375 4384 
L 1825 4384 
Q 1516 4384 1395 4259 
Q 1275 4134 1275 3809 
L 1275 3500 
L 2222 3500 
L 2222 3053 
L 1275 3053 
L 1275 0 
L 697 0 
L 697 3053 
L 147 3053 
L 147 3500 
L 697 3500 
L 697 3744 
Q 697 4328 969 4595 
Q 1241 4863 1831 4863 
L 2375 4863 
z
" transform="scale(0.015625)"/>
       <path id="DejaVuSans-50" d="M 1259 4147 
L 1259 2394 
L 2053 2394 
Q 2494 2394 2734 2622 
Q 2975 2850 2975 3272 
Q 2975 3691 2734 3919 
Q 2494 4147 2053 4147 
L 1259 4147 
z
M 628 4666 
L 2053 4666 
Q 2838 4666 3239 4311 
Q 3641 3956 3641 3272 
Q 3641 2581 3239 2228 
Q 2838 1875 2053 1875 
L 1259 1875 
L 1259 0 
L 628 0 
L 628 4666 
z
" transform="scale(0.015625)"/>
       <path id="DejaVuSans-70" d="M 1159 525 
L 1159 -1331 
L 581 -1331 
L 581 3500 
L 1159 3500 
L 1159 2969 
Q 1341 3281 1617 3432 
Q 1894 3584 2278 3584 
Q 2916 3584 3314 3078 
Q 3713 2572 3713 1747 
Q 3713 922 3314 415 
Q 2916 -91 2278 -91 
Q 1894 -91 1617 61 
Q 1341 213 1159 525 
z
M 3116 1747 
Q 3116 2381 2855 2742 
Q 2594 3103 2138 3103 
Q 1681 3103 1420 2742 
Q 1159 2381 1159 1747 
Q 1159 1113 1420 752 
Q 1681 391 2138 391 
Q 2594 391 2855 752 
Q 3116 1113 3116 1747 
z
" transform="scale(0.015625)"/>
       <path id="DejaVuSans-6c" d="M 603 4863 
L 1178 4863 
L 1178 0 
L 603 0 
L 603 4863 
z
" transform="scale(0.015625)"/>
      </defs>
      <use xlink:href="#DejaVuSans-4e"/>
      <use xlink:href="#DejaVuSans-75" x="74.804688"/>
      <use xlink:href="#DejaVuSans-6d" x="138.183594"/>
      <use xlink:href="#DejaVuSans-62" x="235.595703"/>
      <use xlink:href="#DejaVuSans-65" x="299.072266"/>
      <use xlink:href="#DejaVuSans-72" x="360.595703"/>
      <use xlink:href="#DejaVuSans-20" x="401.708984"/>
      <use xlink:href="#DejaVuSans-6f" x="433.496094"/>
      <use xlink:href="#DejaVuSans-66" x="494.677734"/>
      <use xlink:href="#DejaVuSans-20" x="529.882812"/>
      <use xlink:href="#DejaVuSans-50" x="561.669922"/>
      <use xlink:href="#DejaVuSans-65" x="618.347656"/>
      <use xlink:href="#DejaVuSans-6f" x="679.871094"/>
      <use xlink:href="#DejaVuSans-70" x="741.052734"/>
      <use xlink:href="#DejaVuSans-6c" x="804.529297"/>
      <use xlink:href="#DejaVuSans-65" x="832.3125"/>
     </g>
    </g>
   </g>
   <g id="line2d_29">
    <path d="M 73.832727 295.488 
L 73.846338 295.488 
L 73.950856 252.796235 
L 73.965032 252.796235 
L 73.965032 267.026824 
L 74.333545 267.026824 
L 74.390769 238.565647 
L 74.54884 238.565647 
L 74.54884 252.796235 
L 74.79287 252.796235 
L 74.809227 281.257412 
L 75.150454 281.257412 
L 75.150454 267.026824 
L 75.365782 267.026824 
L 75.417109 295.488 
L 75.56714 295.488 
L 75.56714 281.257412 
L 75.697514 281.257412 
L 75.697514 295.488 
L 75.736917 281.257412 
L 75.822211 281.257412 
L 75.822211 295.488 
L 75.927761 295.488 
L 75.949383 295.488 
L 75.949383 281.257412 
L 76.058357 281.257412 
L 76.179524 281.257412 
L 76.218335 252.796235 
L 76.328451 252.796235 
L 76.328451 267.026824 
L 76.472244 267.026824 
L 76.472244 252.796235 
L 76.499048 267.026824 
L 76.715801 267.026824 
L 76.715801 281.257412 
L 76.810662 267.026824 
L 76.85422 267.026824 
L 76.85422 252.796235 
L 76.95831 281.257412 
L 77.329843 281.257412 
L 77.329843 267.026824 
L 77.734469 267.026824 
L 77.784577 295.488 
L 78.223449 295.488 
L 78.223449 281.257412 
L 78.412096 281.257412 
L 78.412096 295.488 
L 78.447566 281.257412 
L 78.535169 281.257412 
L 78.535169 295.488 
L 78.843255 295.488 
L 78.843255 281.257412 
L 78.987558 281.257412 
L 78.987558 295.488 
L 79.079297 281.257412 
L 79.101806 281.257412 
L 79.194699 252.796235 
L 79.405244 252.796235 
L 79.405244 267.026824 
L 79.41189 252.796235 
L 79.551914 252.796235 
L 79.582107 238.565647 
L 79.582107 252.796235 
L 79.765357 252.796235 
L 79.765357 267.026824 
L 79.973934 267.026824 
L 79.973934 281.257412 
L 80.256915 281.257412 
L 80.256915 267.026824 
L 80.413158 267.026824 
L 80.413158 252.796235 
L 80.677803 252.796235 
L 80.677803 267.026824 
L 80.708211 252.796235 
L 81.096952 252.796235 
L 81.203107 224.335059 
L 81.308741 224.335059 
L 81.308741 210.104471 
L 81.34279 238.565647 
L 81.421457 238.565647 
L 81.421457 224.335059 
L 81.651702 224.335059 
L 81.651702 210.104471 
L 81.813803 210.104471 
L 81.813803 195.873882 
L 82.064511 195.873882 
L 82.132084 210.104471 
L 82.139596 195.873882 
L 82.397894 195.873882 
L 82.426362 224.335059 
L 82.733745 224.335059 
L 82.733745 238.565647 
L 82.851141 238.565647 
L 82.851141 224.335059 
L 82.992456 224.335059 
L 83.073077 195.873882 
L 83.135722 195.873882 
L 83.135722 210.104471 
L 83.95373 210.104471 
L 83.95373 224.335059 
L 84.05711 195.873882 
L 84.08849 195.873882 
L 84.08849 210.104471 
L 84.208662 210.104471 
L 84.208662 224.335059 
L 84.322581 224.335059 
L 84.322581 210.104471 
L 84.490287 210.104471 
L 84.490287 195.873882 
L 85.143989 195.873882 
L 85.143989 181.643294 
L 85.298088 181.643294 
L 85.298088 195.873882 
L 85.537589 195.873882 
L 85.547213 210.104471 
L 85.547213 195.873882 
L 85.724323 195.873882 
L 85.724323 181.643294 
L 86.221857 181.643294 
L 86.311967 195.873882 
L 86.311967 181.643294 
L 86.436266 181.643294 
L 86.436266 195.873882 
L 86.836809 195.873882 
L 86.836809 210.104471 
L 86.968027 210.104471 
L 86.968027 195.873882 
L 87.230612 195.873882 
L 87.257115 210.104471 
L 87.257115 195.873882 
L 87.36194 195.873882 
L 87.36194 210.104471 
L 87.606819 210.104471 
L 87.606819 195.873882 
L 87.862604 195.873882 
L 87.923283 252.796235 
L 88.051319 252.796235 
L 88.08427 281.257412 
L 88.396882 281.257412 
L 88.396882 295.488 
L 88.502785 281.257412 
L 88.841034 281.257412 
L 88.84965 252.796235 
L 88.985929 252.796235 
L 88.985929 267.026824 
L 89.172606 267.026824 
L 89.190026 238.565647 
L 89.304285 238.565647 
L 89.341927 252.796235 
L 89.354138 252.796235 
L 89.444007 252.796235 
L 89.444007 267.026824 
L 89.688867 267.026824 
L 89.688867 252.796235 
L 90.297943 252.796235 
L 90.297943 267.026824 
L 90.399789 238.565647 
L 90.562556 238.565647 
L 90.562556 252.796235 
L 90.678081 252.796235 
L 90.678081 238.565647 
L 90.899487 238.565647 
L 90.899487 252.796235 
L 91.06197 252.796235 
L 91.06197 238.565647 
L 91.209768 238.565647 
L 91.209768 224.335059 
L 91.411624 224.335059 
L 91.48654 238.565647 
L 91.48654 224.335059 
L 91.646993 224.335059 
L 91.683819 238.565647 
L 91.703193 238.565647 
L 92.062773 238.565647 
L 92.062773 224.335059 
L 92.365162 224.335059 
L 92.365162 238.565647 
L 92.750785 238.565647 
L 92.789044 267.026824 
L 92.870487 267.026824 
L 92.879893 295.488 
L 93.167877 295.488 
L 93.167877 281.257412 
L 93.301615 281.257412 
L 93.301615 295.488 
L 93.668068 295.488 
L 93.761485 267.026824 
L 93.875552 267.026824 
L 93.875552 252.796235 
L 93.950472 267.026824 
L 94.158098 267.026824 
L 94.158098 252.796235 
L 94.675593 252.796235 
L 94.675593 267.026824 
L 95.072308 267.026824 
L 95.176924 295.488 
L 95.605657 295.488 
L 95.605657 281.257412 
L 95.701753 295.488 
L 95.740094 295.488 
L 95.740094 281.257412 
L 95.996228 281.257412 
L 95.996228 295.488 
L 96.017779 281.257412 
L 96.206119 281.257412 
L 96.206119 267.026824 
L 96.306129 267.026824 
L 96.534178 267.026824 
L 96.534178 281.257412 
L 96.670724 281.257412 
L 96.670724 295.488 
L 96.875801 295.488 
L 96.875801 281.257412 
L 97.15449 281.257412 
L 97.15449 295.488 
L 97.274784 295.488 
L 97.287596 267.026824 
L 97.334188 295.488 
L 98.749102 295.488 
L 98.749102 281.257412 
L 99.118823 281.257412 
L 99.118823 267.026824 
L 99.238652 267.026824 
L 99.238652 252.796235 
L 99.408223 252.796235 
L 99.408223 267.026824 
L 99.461571 252.796235 
L 99.548486 252.796235 
L 99.609112 281.257412 
L 100.068242 281.257412 
L 100.068242 295.488 
L 100.433602 295.488 
L 100.433602 281.257412 
L 100.556761 281.257412 
L 100.556761 267.026824 
L 100.621526 267.026824 
L 100.745369 267.026824 
L 100.745369 252.796235 
L 101.244809 252.796235 
L 101.321355 238.565647 
L 101.321355 252.796235 
L 101.689184 252.796235 
L 101.776764 238.565647 
L 101.776764 252.796235 
L 101.971493 252.796235 
L 101.971493 238.565647 
L 102.401716 238.565647 
L 102.401716 252.796235 
L 102.641505 252.796235 
L 102.688694 210.104471 
L 103.464702 210.104471 
L 103.464702 224.335059 
L 103.614928 224.335059 
L 103.680406 195.873882 
L 103.996832 195.873882 
L 103.996832 181.643294 
L 104.847953 181.643294 
L 104.938742 195.873882 
L 104.938742 181.643294 
L 105.023452 181.643294 
L 105.023452 167.412706 
L 105.146981 167.412706 
L 105.146981 153.182118 
L 105.305576 153.182118 
L 105.409108 181.643294 
L 105.553825 181.643294 
L 105.553825 195.873882 
L 105.943869 195.873882 
L 105.943869 210.104471 
L 106.087366 210.104471 
L 106.176971 195.873882 
L 106.176971 210.104471 
L 106.357151 210.104471 
L 106.357151 195.873882 
L 106.67632 195.873882 
L 106.752644 167.412706 
L 106.85228 167.412706 
L 106.880615 181.643294 
L 106.880615 167.412706 
L 107.015507 167.412706 
L 107.076906 153.182118 
L 107.076906 167.412706 
L 107.561729 167.412706 
L 107.587819 124.720941 
L 107.62478 138.951529 
L 107.692643 138.951529 
L 107.708092 124.720941 
L 107.708092 138.951529 
L 108.102279 138.951529 
L 108.102279 153.182118 
L 108.183933 138.951529 
L 108.259488 138.951529 
L 108.259488 124.720941 
L 108.753968 124.720941 
L 108.790365 82.029176 
L 108.846582 110.490353 
L 108.958004 110.490353 
L 108.958004 96.259765 
L 109.094887 96.259765 
L 109.188611 138.951529 
L 109.232668 138.951529 
L 109.271074 167.412706 
L 109.345942 167.412706 
L 109.345942 181.643294 
L 109.536269 181.643294 
L 109.61931 167.412706 
L 109.61931 181.643294 
L 110.126966 181.643294 
L 110.126966 167.412706 
L 110.296853 167.412706 
L 110.296853 153.182118 
L 110.503488 153.182118 
L 110.503488 167.412706 
L 110.756777 167.412706 
L 110.756777 153.182118 
L 110.928239 153.182118 
L 110.92921 124.720941 
L 111.041241 124.720941 
L 111.059898 96.259765 
L 111.539259 96.259765 
L 111.600734 67.798588 
L 111.785632 67.798588 
L 111.785632 53.568 
L 111.966121 53.568 
L 112.075621 82.029176 
L 112.1534 82.029176 
L 112.1534 67.798588 
L 112.520329 67.798588 
L 112.546732 82.029176 
L 112.616868 67.798588 
L 113.074423 67.798588 
L 113.074423 82.029176 
L 113.201736 82.029176 
L 113.215646 67.798588 
L 113.215646 82.029176 
L 113.454049 82.029176 
L 113.492988 53.568 
L 113.546845 67.798588 
L 113.567985 67.798588 
L 113.643979 53.568 
L 113.643979 67.798588 
L 113.83617 67.798588 
L 113.83617 53.568 
L 114.048704 53.568 
L 114.048704 67.798588 
L 114.171057 67.798588 
L 114.218398 82.029176 
L 114.218398 67.798588 
L 114.41118 67.798588 
L 114.41118 82.029176 
L 114.698819 82.029176 
L 114.698819 67.798588 
L 114.933742 67.798588 
L 114.966334 96.259765 
L 115.477378 96.259765 
L 115.477378 82.029176 
L 115.71792 82.029176 
L 115.71792 96.259765 
L 116.121829 96.259765 
L 116.121829 110.490353 
L 116.795608 110.490353 
L 116.795608 96.259765 
L 117.1295 96.259765 
L 117.1295 82.029176 
L 117.419589 82.029176 
L 117.419589 96.259765 
L 117.608396 96.259765 
L 117.680879 124.720941 
L 117.78731 124.720941 
L 117.885647 82.029176 
L 117.967051 82.029176 
L 117.967051 96.259765 
L 118.09418 96.259765 
L 118.09418 82.029176 
L 118.373677 82.029176 
L 118.373677 96.259765 
L 118.702364 96.259765 
L 118.7714 124.720941 
L 118.799925 110.490353 
L 118.998776 110.490353 
L 118.998776 124.720941 
L 119.815211 124.720941 
L 119.905264 110.490353 
L 119.905264 124.720941 
L 120.056807 124.720941 
L 120.136883 153.182118 
L 120.378875 153.182118 
L 120.378875 138.951529 
L 120.902734 138.951529 
L 120.981146 167.412706 
L 121.072889 167.412706 
L 121.072889 153.182118 
L 121.306255 153.182118 
L 121.306255 138.951529 
L 121.331072 167.412706 
L 121.59166 167.412706 
L 121.59166 153.182118 
L 121.740302 153.182118 
L 121.740302 138.951529 
L 121.87892 138.951529 
L 121.893438 167.412706 
L 122.131432 167.412706 
L 122.131432 153.182118 
L 122.247668 153.182118 
L 122.35129 181.643294 
L 122.424933 181.643294 
L 122.424933 195.873882 
L 122.573259 195.873882 
L 122.573259 181.643294 
L 122.758416 181.643294 
L 122.799495 153.182118 
L 122.80996 167.412706 
L 122.882211 167.412706 
L 122.882211 181.643294 
L 123.115367 181.643294 
L 123.115367 195.873882 
L 123.227111 195.873882 
L 123.227111 210.104471 
L 123.42154 210.104471 
L 123.42154 224.335059 
L 123.492413 210.104471 
L 123.533365 210.104471 
L 123.533365 224.335059 
L 123.728555 224.335059 
L 123.728555 210.104471 
L 123.976554 210.104471 
L 124.078286 195.873882 
L 124.078286 210.104471 
L 124.439366 210.104471 
L 124.459087 181.643294 
L 124.978409 181.643294 
L 124.990789 195.873882 
L 124.990789 181.643294 
L 125.146521 181.643294 
L 125.146521 195.873882 
L 125.308847 195.873882 
L 125.308847 181.643294 
L 125.706359 181.643294 
L 125.813173 167.412706 
L 125.813173 181.643294 
L 125.972132 181.643294 
L 126.056987 153.182118 
L 126.104033 153.182118 
L 126.111701 181.643294 
L 126.319914 181.643294 
L 126.319914 195.873882 
L 126.478914 195.873882 
L 126.478914 210.104471 
L 126.617708 210.104471 
L 126.617708 224.335059 
L 126.916986 224.335059 
L 126.967616 238.565647 
L 126.979363 210.104471 
L 127.246769 210.104471 
L 127.246769 224.335059 
L 127.37541 224.335059 
L 127.37541 238.565647 
L 127.578613 238.565647 
L 127.578814 252.796235 
L 127.642587 224.335059 
L 127.869531 224.335059 
L 127.869531 210.104471 
L 128.122181 210.104471 
L 128.122181 224.335059 
L 128.490409 224.335059 
L 128.522247 238.565647 
L 128.522247 224.335059 
L 128.844281 224.335059 
L 128.844281 210.104471 
L 129.011986 210.104471 
L 129.011986 195.873882 
L 129.571855 195.873882 
L 129.606697 167.412706 
L 129.737135 167.412706 
L 129.775106 138.951529 
L 129.856519 138.951529 
L 129.856519 124.720941 
L 130.025841 124.720941 
L 130.025841 138.951529 
L 130.726219 138.951529 
L 130.765055 110.490353 
L 131.055961 110.490353 
L 131.099797 124.720941 
L 131.099797 110.490353 
L 131.265534 110.490353 
L 131.265534 124.720941 
L 131.395037 124.720941 
L 131.456207 110.490353 
L 131.456207 124.720941 
L 131.682602 124.720941 
L 131.682602 110.490353 
L 131.847591 110.490353 
L 131.851453 124.720941 
L 131.909919 124.720941 
L 131.959412 124.720941 
L 132.064287 138.951529 
L 132.064287 124.720941 
L 132.269286 124.720941 
L 132.329468 153.182118 
L 132.389851 153.182118 
L 132.389851 138.951529 
L 132.658897 138.951529 
L 132.658897 153.182118 
L 132.825302 153.182118 
L 132.825302 138.951529 
L 133.258289 138.951529 
L 133.349383 195.873882 
L 133.386166 195.873882 
L 133.48579 210.104471 
L 133.494733 210.104471 
L 133.499715 210.104471 
L 133.576136 238.565647 
L 133.879314 238.565647 
L 133.965278 267.026824 
L 134.104567 267.026824 
L 134.128989 295.488 
L 134.411849 295.488 
L 134.411849 281.257412 
L 134.517991 295.488 
L 134.733412 295.488 
L 134.733412 281.257412 
L 134.880725 281.257412 
L 134.880725 267.026824 
L 134.979497 281.257412 
L 135.281888 281.257412 
L 135.281888 295.488 
L 136.086797 295.488 
L 136.18881 267.026824 
L 136.191737 281.257412 
L 136.61471 281.257412 
L 136.721294 224.335059 
L 137.121658 224.335059 
L 137.153511 195.873882 
L 137.215077 224.335059 
L 137.409921 224.335059 
L 137.454359 195.873882 
L 137.530457 195.873882 
L 137.530457 181.643294 
L 137.686473 181.643294 
L 137.686473 167.412706 
L 137.906671 167.412706 
L 137.906671 153.182118 
L 138.185481 153.182118 
L 138.284613 167.412706 
L 138.284613 153.182118 
L 138.55023 153.182118 
L 138.55023 138.951529 
L 138.701895 138.951529 
L 138.769778 167.412706 
L 138.947355 167.412706 
L 138.947355 153.182118 
L 139.235015 153.182118 
L 139.339324 181.643294 
L 139.526819 181.643294 
L 139.526819 195.873882 
L 139.729927 195.873882 
L 139.758643 224.335059 
L 139.851082 224.335059 
L 139.851082 210.104471 
L 139.975153 210.104471 
L 139.975153 224.335059 
L 140.269443 224.335059 
L 140.35409 252.796235 
L 140.653783 252.796235 
L 140.752762 295.488 
L 140.842472 295.488 
L 140.842472 281.257412 
L 140.916944 295.488 
L 141.647129 295.488 
L 141.647129 281.257412 
L 141.907355 281.257412 
L 141.907355 267.026824 
L 142.15563 267.026824 
L 142.15563 252.796235 
L 142.283469 252.796235 
L 142.283469 238.565647 
L 142.566025 238.565647 
L 142.566025 252.796235 
L 142.872423 252.796235 
L 142.916761 238.565647 
L 142.982632 238.565647 
L 143.04445 238.565647 
L 143.04445 252.796235 
L 143.319071 252.796235 
L 143.394568 281.257412 
L 143.476016 281.257412 
L 143.476016 295.488 
L 143.5668 295.488 
L 143.717557 295.488 
L 143.717557 281.257412 
L 143.997711 281.257412 
L 144.084751 252.796235 
L 144.190297 252.796235 
L 144.220782 224.335059 
L 144.386609 224.335059 
L 144.402191 238.565647 
L 144.466616 238.565647 
L 144.799179 238.565647 
L 144.817299 224.335059 
L 144.817299 238.565647 
L 144.989594 238.565647 
L 145.02995 252.796235 
L 145.02995 238.565647 
L 145.208966 238.565647 
L 145.243073 267.026824 
L 145.322042 267.026824 
L 145.322042 281.257412 
L 145.424021 252.796235 
L 145.580418 252.796235 
L 145.689843 281.257412 
L 145.984512 281.257412 
L 145.984512 295.488 
L 146.216441 295.488 
L 146.216441 281.257412 
L 146.277976 295.488 
L 146.35255 295.488 
L 146.35255 281.257412 
L 146.507378 281.257412 
L 146.560431 252.796235 
L 146.822558 252.796235 
L 146.884376 224.335059 
L 147.118902 224.335059 
L 147.141274 252.796235 
L 147.239629 252.796235 
L 147.239629 267.026824 
L 147.335757 238.565647 
L 147.560462 238.565647 
L 147.560462 252.796235 
L 147.688856 252.796235 
L 147.688856 267.026824 
L 147.776477 252.796235 
L 148.016198 252.796235 
L 148.016198 238.565647 
L 148.325019 238.565647 
L 148.325019 224.335059 
L 148.505869 224.335059 
L 148.505869 238.565647 
L 148.640265 238.565647 
L 148.640265 252.796235 
L 148.897549 252.796235 
L 149.003732 295.488 
L 149.369489 295.488 
L 149.369489 281.257412 
L 149.389719 295.488 
L 149.657652 295.488 
L 149.689081 267.026824 
L 149.695979 281.257412 
L 149.800634 281.257412 
L 149.800634 267.026824 
L 150.464351 267.026824 
L 150.464351 281.257412 
L 150.606714 281.257412 
L 150.606714 295.488 
L 150.767292 295.488 
L 150.8286 267.026824 
L 151.048604 267.026824 
L 151.048604 252.796235 
L 151.050694 267.026824 
L 151.39503 267.026824 
L 151.39503 281.257412 
L 151.403248 267.026824 
L 151.529339 267.026824 
L 151.632636 295.488 
L 151.666552 295.488 
L 151.77461 252.796235 
L 151.825849 252.796235 
L 151.825849 267.026824 
L 152.122445 267.026824 
L 152.233405 295.488 
L 152.323159 295.488 
L 152.323159 281.257412 
L 152.368733 295.488 
L 152.547338 295.488 
L 152.547338 281.257412 
L 152.572552 295.488 
L 152.670878 295.488 
L 152.670878 281.257412 
L 152.756851 295.488 
L 152.800749 295.488 
L 152.800749 281.257412 
L 153.228535 281.257412 
L 153.228535 295.488 
L 153.469661 295.488 
L 153.469661 281.257412 
L 153.686096 281.257412 
L 153.686096 267.026824 
L 153.803621 267.026824 
L 153.803621 281.257412 
L 153.956365 281.257412 
L 153.956365 267.026824 
L 153.967212 281.257412 
L 154.139618 281.257412 
L 154.21824 252.796235 
L 154.254476 252.796235 
L 154.254476 267.026824 
L 154.350734 267.026824 
L 154.621971 267.026824 
L 154.621971 281.257412 
L 154.863484 281.257412 
L 154.863484 295.488 
L 155.255938 295.488 
L 155.255938 281.257412 
L 155.363531 295.488 
L 155.864826 295.488 
L 155.864826 281.257412 
L 156.003331 281.257412 
L 156.003331 295.488 
L 156.200491 295.488 
L 156.200491 281.257412 
L 156.520108 281.257412 
L 156.520108 267.026824 
L 156.839496 267.026824 
L 156.902037 295.488 
L 157.180965 295.488 
L 157.180965 281.257412 
L 157.434082 281.257412 
L 157.446412 252.796235 
L 157.53247 267.026824 
L 157.6739 267.026824 
L 157.777466 295.488 
L 158.140615 295.488 
L 158.140615 281.257412 
L 158.547839 281.257412 
L 158.547839 267.026824 
L 158.696641 267.026824 
L 158.696641 252.796235 
L 158.769248 267.026824 
L 158.9391 267.026824 
L 158.9391 281.257412 
L 159.269674 281.257412 
L 159.269674 267.026824 
L 159.437641 267.026824 
L 159.437641 281.257412 
L 159.547742 281.257412 
L 159.863513 281.257412 
L 159.863513 295.488 
L 160.509593 295.488 
L 160.509593 281.257412 
L 160.655239 281.257412 
L 160.735253 252.796235 
L 161.002637 252.796235 
L 161.002637 267.026824 
L 161.164448 267.026824 
L 161.165486 295.488 
L 161.292534 295.488 
L 161.292534 281.257412 
L 161.467725 281.257412 
L 161.467725 295.488 
L 161.563045 267.026824 
L 161.585986 267.026824 
L 161.600732 295.488 
L 161.882684 295.488 
L 161.882684 281.257412 
L 161.950784 295.488 
L 161.999531 295.488 
L 161.999531 281.257412 
L 162.121016 281.257412 
L 162.121016 295.488 
L 162.709478 295.488 
L 162.709478 281.257412 
L 162.782426 295.488 
L 163.062094 295.488 
L 163.113187 267.026824 
L 163.470098 267.026824 
L 163.470098 281.257412 
L 163.763286 281.257412 
L 163.763286 267.026824 
L 163.778122 281.257412 
L 163.983545 281.257412 
L 163.983545 295.488 
L 164.165399 295.488 
L 164.165399 281.257412 
L 164.487712 281.257412 
L 164.487712 295.488 
L 164.49429 281.257412 
L 164.621813 281.257412 
L 164.621813 295.488 
L 164.783275 295.488 
L 164.783275 281.257412 
L 164.837607 295.488 
L 165.00578 295.488 
L 165.00578 281.257412 
L 165.1167 281.257412 
L 165.181057 281.257412 
L 165.181057 295.488 
L 165.262314 295.488 
L 165.384719 295.488 
L 165.384719 281.257412 
L 165.699675 281.257412 
L 165.699675 295.488 
L 166.701303 295.488 
L 166.701303 281.257412 
L 167.000273 281.257412 
L 167.000273 295.488 
L 167.928216 295.488 
L 167.928216 281.257412 
L 168.056314 281.257412 
L 168.056314 295.488 
L 168.166313 281.257412 
L 168.35203 281.257412 
L 168.35203 295.488 
L 168.637647 295.488 
L 168.637647 281.257412 
L 168.667257 295.488 
L 168.813798 295.488 
L 168.813798 281.257412 
L 169.017776 281.257412 
L 169.017776 295.488 
L 169.080551 281.257412 
L 169.262283 281.257412 
L 169.281437 252.796235 
L 169.356225 252.796235 
L 169.434906 252.796235 
L 169.434906 238.565647 
L 169.737788 238.565647 
L 169.737788 224.335059 
L 169.949593 224.335059 
L 169.949593 210.104471 
L 169.997428 224.335059 
L 170.063725 224.335059 
L 170.063725 210.104471 
L 170.127888 224.335059 
L 170.371534 224.335059 
L 170.371534 238.565647 
L 170.504153 238.565647 
L 170.548845 267.026824 
L 170.79637 267.026824 
L 170.815261 238.565647 
L 170.859889 252.796235 
L 170.943897 252.796235 
L 170.943897 267.026824 
L 171.15894 267.026824 
L 171.15894 281.257412 
L 171.38158 281.257412 
L 171.38158 267.026824 
L 171.396188 281.257412 
L 171.745572 281.257412 
L 171.775973 252.796235 
L 172.065817 252.796235 
L 172.146103 238.565647 
L 172.146103 252.796235 
L 172.252266 252.796235 
L 172.252266 267.026824 
L 172.392747 267.026824 
L 172.392747 252.796235 
L 172.437363 267.026824 
L 172.728447 267.026824 
L 172.728447 252.796235 
L 172.826731 252.796235 
L 173.233844 252.796235 
L 173.233844 238.565647 
L 173.616545 238.565647 
L 173.659355 252.796235 
L 173.670007 252.796235 
L 173.96826 252.796235 
L 173.96826 238.565647 
L 174.115793 238.565647 
L 174.133822 281.257412 
L 174.300826 281.257412 
L 174.400149 252.796235 
L 174.413456 252.796235 
L 174.42689 281.257412 
L 174.543058 281.257412 
L 174.543058 267.026824 
L 174.675736 267.026824 
L 174.675736 252.796235 
L 174.747552 267.026824 
L 174.787705 267.026824 
L 174.84884 295.488 
L 174.990393 295.488 
L 174.990393 281.257412 
L 175.026518 295.488 
L 175.144638 295.488 
L 175.144638 281.257412 
L 175.334354 281.257412 
L 175.334354 295.488 
L 175.646285 295.488 
L 175.646285 281.257412 
L 175.752716 295.488 
L 176.035111 295.488 
L 176.035111 281.257412 
L 176.34929 281.257412 
L 176.34929 267.026824 
L 176.428552 281.257412 
L 176.472311 281.257412 
L 176.472311 295.488 
L 177.668295 295.488 
L 177.668295 281.257412 
L 177.774305 295.488 
L 177.842435 295.488 
L 177.842435 281.257412 
L 177.859392 295.488 
L 178.792688 295.488 
L 178.792688 281.257412 
L 178.973451 281.257412 
L 178.973451 267.026824 
L 179.610831 267.026824 
L 179.610831 281.257412 
L 179.66061 267.026824 
L 179.820023 267.026824 
L 179.820023 252.796235 
L 180.040226 252.796235 
L 180.040226 267.026824 
L 180.080074 238.565647 
L 180.137984 238.565647 
L 180.435213 238.565647 
L 180.532618 252.796235 
L 180.532618 238.565647 
L 180.618023 238.565647 
L 180.674093 210.104471 
L 180.809135 210.104471 
L 180.920237 195.873882 
L 180.920237 210.104471 
L 180.967809 210.104471 
L 180.967809 224.335059 
L 181.350332 224.335059 
L 181.350332 210.104471 
L 181.385897 210.104471 
L 181.702001 210.104471 
L 181.805611 252.796235 
L 181.887461 252.796235 
L 181.977467 238.565647 
L 181.977467 252.796235 
L 181.999387 252.796235 
L 181.999387 267.026824 
L 182.145714 267.026824 
L 182.207428 295.488 
L 182.354307 295.488 
L 182.354307 281.257412 
L 182.79921 281.257412 
L 182.79921 267.026824 
L 182.8131 281.257412 
L 183.108406 281.257412 
L 183.108406 295.488 
L 183.111197 281.257412 
L 183.291937 281.257412 
L 183.291937 295.488 
L 183.662688 295.488 
L 183.662688 281.257412 
L 184.040639 281.257412 
L 184.040639 267.026824 
L 184.349608 267.026824 
L 184.349608 281.257412 
L 184.444727 267.026824 
L 184.585033 267.026824 
L 184.585033 281.257412 
L 184.624152 267.026824 
L 184.86735 267.026824 
L 184.873355 295.488 
L 185.17442 295.488 
L 185.17442 281.257412 
L 185.462382 281.257412 
L 185.462382 295.488 
L 185.670914 295.488 
L 185.743292 267.026824 
L 185.748768 281.257412 
L 186.066666 281.257412 
L 186.066666 295.488 
L 186.13491 281.257412 
L 186.27479 281.257412 
L 186.27479 295.488 
L 186.346631 295.488 
L 186.654945 295.488 
L 186.654945 281.257412 
L 186.86761 281.257412 
L 186.86761 295.488 
L 187.254608 295.488 
L 187.254608 281.257412 
L 187.486787 281.257412 
L 187.486787 295.488 
L 188.310445 295.488 
L 188.310445 281.257412 
L 188.595076 281.257412 
L 188.595076 295.488 
L 188.839417 295.488 
L 188.839417 281.257412 
L 188.992774 281.257412 
L 188.992774 267.026824 
L 189.044296 295.488 
L 189.475825 295.488 
L 189.475825 281.257412 
L 189.574087 295.488 
L 189.606312 295.488 
L 189.606312 281.257412 
L 189.937395 281.257412 
L 189.937395 295.488 
L 190.060022 295.488 
L 190.060022 281.257412 
L 190.119273 295.488 
L 190.273804 295.488 
L 190.273804 281.257412 
L 190.358237 295.488 
L 190.647998 295.488 
L 190.647998 281.257412 
L 190.766112 281.257412 
L 190.766112 267.026824 
L 190.960342 267.026824 
L 190.960342 252.796235 
L 191.34012 252.796235 
L 191.426849 238.565647 
L 191.426849 252.796235 
L 191.457259 252.796235 
L 191.528498 224.335059 
L 191.664287 224.335059 
L 191.664287 238.565647 
L 192.139151 238.565647 
L 192.13946 224.335059 
L 192.163478 224.335059 
L 192.35813 224.335059 
L 192.35813 238.565647 
L 192.541981 238.565647 
L 192.541981 224.335059 
L 192.686824 224.335059 
L 192.686824 238.565647 
L 192.805862 238.565647 
L 192.891006 252.796235 
L 192.891006 238.565647 
L 193.105408 238.565647 
L 193.166529 267.026824 
L 193.311379 267.026824 
L 193.311379 281.257412 
L 193.5638 281.257412 
L 193.5638 295.488 
L 193.631867 281.257412 
L 193.700182 281.257412 
L 193.700182 267.026824 
L 193.766171 295.488 
L 193.889919 295.488 
L 193.889919 281.257412 
L 194.317243 281.257412 
L 194.317243 295.488 
L 195.296517 295.488 
L 195.296517 281.257412 
L 195.579232 281.257412 
L 195.579232 267.026824 
L 195.7297 267.026824 
L 195.7297 281.257412 
L 195.891255 281.257412 
L 195.891255 267.026824 
L 196.137098 267.026824 
L 196.166946 238.565647 
L 196.32783 238.565647 
L 196.356301 210.104471 
L 196.405409 238.565647 
L 196.469319 238.565647 
L 196.536615 281.257412 
L 196.588632 281.257412 
L 196.588632 267.026824 
L 197.025217 267.026824 
L 197.025217 252.796235 
L 197.067291 267.026824 
L 197.187497 267.026824 
L 197.238975 238.565647 
L 197.360815 238.565647 
L 197.360815 224.335059 
L 197.565452 224.335059 
L 197.565452 210.104471 
L 197.875989 210.104471 
L 197.875989 224.335059 
L 197.969858 210.104471 
L 198.04243 210.104471 
L 198.04243 195.873882 
L 198.277701 195.873882 
L 198.277701 181.643294 
L 198.458552 181.643294 
L 198.458552 195.873882 
L 198.746252 195.873882 
L 198.746252 210.104471 
L 199.030585 210.104471 
L 199.030585 224.335059 
L 199.250171 224.335059 
L 199.250171 210.104471 
L 199.507613 210.104471 
L 199.580345 167.412706 
L 200.106487 167.412706 
L 200.207887 195.873882 
L 200.222813 195.873882 
L 200.222813 181.643294 
L 200.470038 181.643294 
L 200.470038 195.873882 
L 200.617917 195.873882 
L 200.617917 181.643294 
L 200.837882 181.643294 
L 200.837882 167.412706 
L 201.172331 167.412706 
L 201.216081 153.182118 
L 201.238175 153.182118 
L 201.284235 153.182118 
L 201.284235 167.412706 
L 201.532327 167.412706 
L 201.532327 153.182118 
L 202.240753 153.182118 
L 202.240753 167.412706 
L 202.409433 167.412706 
L 202.430725 181.643294 
L 202.430725 167.412706 
L 202.53471 167.412706 
L 202.580929 138.951529 
L 202.916345 138.951529 
L 203.015485 167.412706 
L 203.05211 167.412706 
L 203.05211 153.182118 
L 203.254893 153.182118 
L 203.3053 167.412706 
L 203.3053 153.182118 
L 203.474018 153.182118 
L 203.570601 181.643294 
L 203.764367 181.643294 
L 203.764367 167.412706 
L 203.979522 167.412706 
L 204.076478 153.182118 
L 204.076478 167.412706 
L 204.225944 167.412706 
L 204.28305 195.873882 
L 204.541672 195.873882 
L 204.640488 238.565647 
L 204.67062 238.565647 
L 204.722383 252.796235 
L 204.722383 238.565647 
L 204.813714 238.565647 
L 204.813714 224.335059 
L 204.932 224.335059 
L 204.932797 238.565647 
L 204.932797 224.335059 
L 205.104036 224.335059 
L 205.104036 210.104471 
L 205.243915 210.104471 
L 205.266073 181.643294 
L 205.322396 210.104471 
L 205.506271 210.104471 
L 205.586339 238.565647 
L 205.829787 238.565647 
L 205.829787 252.796235 
L 205.965134 252.796235 
L 205.965134 267.026824 
L 206.013618 252.796235 
L 206.163733 252.796235 
L 206.163733 267.026824 
L 206.486025 267.026824 
L 206.486025 281.257412 
L 206.728951 281.257412 
L 206.773858 252.796235 
L 207.139264 252.796235 
L 207.139264 238.565647 
L 207.455314 238.565647 
L 207.455314 252.796235 
L 208.20861 252.796235 
L 208.20861 267.026824 
L 208.32051 267.026824 
L 208.32051 281.257412 
L 208.52326 281.257412 
L 208.52326 267.026824 
L 208.778613 267.026824 
L 208.778613 252.796235 
L 208.985569 252.796235 
L 208.985569 238.565647 
L 209.121917 238.565647 
L 209.182924 252.796235 
L 209.182924 238.565647 
L 209.660223 238.565647 
L 209.719253 252.796235 
L 209.719253 238.565647 
L 209.884397 238.565647 
L 209.884397 252.796235 
L 210.135903 252.796235 
L 210.135903 267.026824 
L 210.843449 267.026824 
L 210.843449 252.796235 
L 211.043273 252.796235 
L 211.043273 267.026824 
L 211.154889 267.026824 
L 211.239598 295.488 
L 211.325565 295.488 
L 211.422426 252.796235 
L 211.51084 252.796235 
L 211.590535 281.257412 
L 211.689339 281.257412 
L 211.689339 295.488 
L 211.780859 281.257412 
L 211.809391 281.257412 
L 211.809391 295.488 
L 211.901266 267.026824 
L 211.912084 281.257412 
L 212.05344 281.257412 
L 212.05344 267.026824 
L 212.170761 267.026824 
L 212.170761 252.796235 
L 212.458717 252.796235 
L 212.458717 238.565647 
L 212.849018 238.565647 
L 212.849018 224.335059 
L 213.239452 224.335059 
L 213.324782 238.565647 
L 213.324782 224.335059 
L 213.650813 224.335059 
L 213.683038 238.565647 
L 213.717968 210.104471 
L 213.843325 210.104471 
L 213.843325 224.335059 
L 213.913715 210.104471 
L 214.11823 210.104471 
L 214.11823 224.335059 
L 214.402206 224.335059 
L 214.468152 252.796235 
L 214.876615 252.796235 
L 214.876615 267.026824 
L 214.946815 238.565647 
L 215.121568 238.565647 
L 215.170561 210.104471 
L 215.548463 210.104471 
L 215.548463 195.873882 
L 215.921254 195.873882 
L 215.921254 210.104471 
L 216.35567 210.104471 
L 216.429152 181.643294 
L 216.654215 181.643294 
L 216.654215 195.873882 
L 216.879173 195.873882 
L 216.879173 210.104471 
L 217.388572 210.104471 
L 217.388572 224.335059 
L 217.96562 224.335059 
L 217.96562 238.565647 
L 218.184097 238.565647 
L 218.184097 252.796235 
L 218.315292 252.796235 
L 218.315292 267.026824 
L 218.69086 267.026824 
L 218.771253 295.488 
L 218.800399 267.026824 
L 218.955364 267.026824 
L 218.955364 252.796235 
L 219.049688 267.026824 
L 219.165486 267.026824 
L 219.165486 281.257412 
L 219.195693 281.257412 
L 219.561737 281.257412 
L 219.561737 295.488 
L 219.649407 281.257412 
L 219.679885 281.257412 
L 219.679885 295.488 
L 219.970839 295.488 
L 219.970839 281.257412 
L 220.455862 281.257412 
L 220.455862 295.488 
L 220.567985 295.488 
L 220.567985 281.257412 
L 220.614696 295.488 
L 220.939752 295.488 
L 221.048553 267.026824 
L 221.069877 267.026824 
L 221.069877 252.796235 
L 221.36571 252.796235 
L 221.456058 281.257412 
L 221.545096 281.257412 
L 221.545096 295.488 
L 221.953962 295.488 
L 221.953962 281.257412 
L 222.139848 281.257412 
L 222.170185 252.796235 
L 222.389342 252.796235 
L 222.485248 281.257412 
L 222.51014 281.257412 
L 222.56212 252.796235 
L 222.605418 281.257412 
L 222.62825 281.257412 
L 222.62825 295.488 
L 223.0392 295.488 
L 223.0392 281.257412 
L 223.35169 281.257412 
L 223.35169 295.488 
L 223.373463 281.257412 
L 223.652091 281.257412 
L 223.652091 295.488 
L 223.80205 295.488 
L 223.80205 281.257412 
L 224.223911 281.257412 
L 224.223911 295.488 
L 224.382305 295.488 
L 224.382305 281.257412 
L 224.451382 295.488 
L 224.726961 295.488 
L 224.736817 267.026824 
L 224.930634 267.026824 
L 224.930634 281.257412 
L 225.093369 281.257412 
L 225.093369 267.026824 
L 225.217944 267.026824 
L 225.307549 295.488 
L 225.482418 295.488 
L 225.524076 267.026824 
L 225.526542 281.257412 
L 225.675205 281.257412 
L 225.705282 252.796235 
L 225.822066 252.796235 
L 225.830848 281.257412 
L 226.284318 281.257412 
L 226.284318 295.488 
L 226.345497 281.257412 
L 226.521566 281.257412 
L 226.521566 295.488 
L 227.154954 295.488 
L 227.154954 281.257412 
L 227.335098 281.257412 
L 227.335098 267.026824 
L 227.582252 267.026824 
L 227.582252 281.257412 
L 227.756547 281.257412 
L 227.756547 295.488 
L 227.956626 295.488 
L 227.956626 281.257412 
L 227.96465 295.488 
L 228.099266 295.488 
L 228.099266 281.257412 
L 228.114681 295.488 
L 228.355454 295.488 
L 228.355454 281.257412 
L 228.600513 281.257412 
L 228.600513 295.488 
L 229.404252 295.488 
L 229.513165 267.026824 
L 229.556406 267.026824 
L 229.556406 252.796235 
L 230.321432 252.796235 
L 230.321432 238.565647 
L 230.445346 238.565647 
L 230.539576 267.026824 
L 230.555543 252.796235 
L 230.604347 252.796235 
L 230.604347 238.565647 
L 230.888868 238.565647 
L 230.888868 224.335059 
L 231.074354 224.335059 
L 231.074354 210.104471 
L 231.362226 210.104471 
L 231.429479 195.873882 
L 231.429479 210.104471 
L 231.540302 210.104471 
L 231.540302 224.335059 
L 231.783085 224.335059 
L 231.783085 238.565647 
L 232.000434 238.565647 
L 232.010783 267.026824 
L 232.19268 267.026824 
L 232.19268 252.796235 
L 232.456227 252.796235 
L 232.456227 238.565647 
L 232.809778 238.565647 
L 232.809778 224.335059 
L 233.020655 224.335059 
L 233.0294 238.565647 
L 233.0294 224.335059 
L 233.33977 224.335059 
L 233.33977 238.565647 
L 233.461801 238.565647 
L 233.461801 224.335059 
L 233.652221 224.335059 
L 233.652221 238.565647 
L 234.123058 238.565647 
L 234.123058 224.335059 
L 234.235497 224.335059 
L 234.26356 238.565647 
L 234.26356 224.335059 
L 234.539476 224.335059 
L 234.539476 210.104471 
L 234.646581 224.335059 
L 234.87818 224.335059 
L 234.87818 210.104471 
L 235.013381 210.104471 
L 235.01433 195.873882 
L 235.048259 195.873882 
L 235.139779 195.873882 
L 235.139779 210.104471 
L 235.275071 210.104471 
L 235.275071 224.335059 
L 235.428914 224.335059 
L 235.428914 238.565647 
L 235.653119 238.565647 
L 235.653119 252.796235 
L 235.812795 252.796235 
L 235.812795 267.026824 
L 236.193735 267.026824 
L 236.193735 281.257412 
L 236.200413 267.026824 
L 236.468661 267.026824 
L 236.468661 281.257412 
L 236.576977 267.026824 
L 236.790919 267.026824 
L 236.790919 252.796235 
L 236.882608 267.026824 
L 237.692294 267.026824 
L 237.692294 252.796235 
L 237.896938 252.796235 
L 237.968666 281.257412 
L 237.978502 267.026824 
L 238.215293 267.026824 
L 238.215293 252.796235 
L 238.259787 267.026824 
L 238.472217 267.026824 
L 238.472217 281.257412 
L 238.489887 267.026824 
L 238.734474 267.026824 
L 238.734474 252.796235 
L 239.077096 252.796235 
L 239.077096 267.026824 
L 239.334606 267.026824 
L 239.334606 252.796235 
L 239.510185 252.796235 
L 239.510185 267.026824 
L 239.873325 267.026824 
L 239.953633 295.488 
L 240.130998 295.488 
L 240.176806 267.026824 
L 240.448655 267.026824 
L 240.448655 281.257412 
L 240.843762 281.257412 
L 240.843762 295.488 
L 240.928421 281.257412 
L 240.998463 281.257412 
L 240.998463 295.488 
L 241.635377 295.488 
L 241.635377 281.257412 
L 241.801481 281.257412 
L 241.885748 252.796235 
L 241.922134 252.796235 
L 241.922134 238.565647 
L 242.171169 238.565647 
L 242.171169 224.335059 
L 242.364636 224.335059 
L 242.467617 195.873882 
L 242.477538 195.873882 
L 242.477538 210.104471 
L 242.59951 210.104471 
L 242.676534 181.643294 
L 242.716838 181.643294 
L 242.716838 167.412706 
L 243.09087 167.412706 
L 243.154314 153.182118 
L 243.164367 181.643294 
L 243.226513 181.643294 
L 243.289525 238.565647 
L 243.349135 238.565647 
L 243.397215 267.026824 
L 243.431525 252.796235 
L 243.477281 252.796235 
L 243.477281 267.026824 
L 243.669266 267.026824 
L 243.669266 281.257412 
L 244.063891 281.257412 
L 244.063891 267.026824 
L 244.355843 267.026824 
L 244.355843 252.796235 
L 244.466064 267.026824 
L 245.446162 267.026824 
L 245.446162 252.796235 
L 245.559601 252.796235 
L 245.641812 224.335059 
L 245.680979 224.335059 
L 245.680979 210.104471 
L 245.708786 224.335059 
L 245.834358 224.335059 
L 245.834358 210.104471 
L 245.854839 224.335059 
L 245.948607 224.335059 
L 246.038263 238.565647 
L 246.038263 224.335059 
L 246.253042 224.335059 
L 246.253042 238.565647 
L 246.542519 238.565647 
L 246.555714 252.796235 
L 246.555714 238.565647 
L 246.817363 238.565647 
L 246.871014 252.796235 
L 246.897091 252.796235 
L 247.41057 252.796235 
L 247.43847 295.488 
L 247.794245 295.488 
L 247.794245 281.257412 
L 247.867587 295.488 
L 248.04088 295.488 
L 248.070513 267.026824 
L 248.202236 267.026824 
L 248.202236 281.257412 
L 248.358046 281.257412 
L 248.358046 295.488 
L 248.450904 267.026824 
L 248.642702 267.026824 
L 248.642702 281.257412 
L 248.96759 281.257412 
L 248.96759 295.488 
L 249.036688 281.257412 
L 249.323241 281.257412 
L 249.323241 267.026824 
L 249.389293 281.257412 
L 249.961204 281.257412 
L 249.97339 252.796235 
L 250.937181 252.796235 
L 250.937181 238.565647 
L 251.135935 238.565647 
L 251.135935 252.796235 
L 251.808954 252.796235 
L 251.808954 267.026824 
L 252.284682 267.026824 
L 252.284682 281.257412 
L 252.384525 267.026824 
L 252.452013 267.026824 
L 252.452013 252.796235 
L 252.464469 267.026824 
L 252.658227 267.026824 
L 252.658227 281.257412 
L 252.92883 281.257412 
L 252.92883 267.026824 
L 253.126741 267.026824 
L 253.204373 238.565647 
L 253.274446 238.565647 
L 253.274446 224.335059 
L 253.715634 224.335059 
L 253.732786 238.565647 
L 253.790551 224.335059 
L 254.107706 224.335059 
L 254.161271 195.873882 
L 254.232375 195.873882 
L 254.247794 224.335059 
L 254.276929 210.104471 
L 254.687914 210.104471 
L 254.687914 224.335059 
L 254.952088 224.335059 
L 254.952088 238.565647 
L 255.104651 238.565647 
L 255.104651 252.796235 
L 255.228703 252.796235 
L 255.239491 238.565647 
L 255.239491 252.796235 
L 255.388513 252.796235 
L 255.478996 281.257412 
L 255.582656 281.257412 
L 255.582656 295.488 
L 256.161364 295.488 
L 256.161364 281.257412 
L 256.438694 281.257412 
L 256.438694 267.026824 
L 256.650214 267.026824 
L 256.650214 281.257412 
L 256.79265 281.257412 
L 256.79265 295.488 
L 256.814208 281.257412 
L 256.917356 281.257412 
L 256.917356 295.488 
L 257.777184 295.488 
L 257.777184 281.257412 
L 257.809444 295.488 
L 258.128776 295.488 
L 258.190499 267.026824 
L 258.378814 267.026824 
L 258.378814 281.257412 
L 258.652388 281.257412 
L 258.652388 267.026824 
L 258.8087 267.026824 
L 258.8087 252.796235 
L 258.954251 252.796235 
L 258.954251 267.026824 
L 259.26629 267.026824 
L 259.26629 281.257412 
L 259.315335 267.026824 
L 259.523131 267.026824 
L 259.546834 238.565647 
L 259.711547 238.565647 
L 259.711547 252.796235 
L 260.019143 252.796235 
L 260.107215 295.488 
L 260.145245 295.488 
L 260.145245 281.257412 
L 260.197034 295.488 
L 260.551072 295.488 
L 260.551072 281.257412 
L 260.581199 295.488 
L 260.784003 295.488 
L 260.784003 281.257412 
L 260.881023 295.488 
L 261.214826 295.488 
L 261.214826 281.257412 
L 261.689033 281.257412 
L 261.689033 295.488 
L 262.966953 295.488 
L 262.966953 281.257412 
L 263.021379 295.488 
L 263.15829 295.488 
L 263.15829 281.257412 
L 263.28462 281.257412 
L 263.37686 252.796235 
L 263.89365 252.796235 
L 263.89365 238.565647 
L 264.131506 238.565647 
L 264.131506 224.335059 
L 264.411484 224.335059 
L 264.411484 238.565647 
L 264.688049 238.565647 
L 264.688049 224.335059 
L 264.864643 224.335059 
L 264.864643 210.104471 
L 264.890639 224.335059 
L 265.187 224.335059 
L 265.187 210.104471 
L 265.473826 210.104471 
L 265.561215 238.565647 
L 265.662732 238.565647 
L 265.662732 224.335059 
L 266.078413 224.335059 
L 266.078413 210.104471 
L 266.523271 210.104471 
L 266.523271 224.335059 
L 266.635652 224.335059 
L 266.63871 238.565647 
L 266.694495 210.104471 
L 266.822069 210.104471 
L 266.822069 195.873882 
L 266.959604 195.873882 
L 267.022358 224.335059 
L 267.082104 224.335059 
L 267.104753 267.026824 
L 267.32668 267.026824 
L 267.32668 252.796235 
L 267.713602 252.796235 
L 267.713602 267.026824 
L 268.193999 267.026824 
L 268.215207 238.565647 
L 268.376595 238.565647 
L 268.450663 267.026824 
L 268.468351 252.796235 
L 268.834416 252.796235 
L 268.872214 224.335059 
L 268.946499 224.335059 
L 268.946499 238.565647 
L 269.113367 238.565647 
L 269.213772 224.335059 
L 269.213772 238.565647 
L 269.378274 238.565647 
L 269.436308 224.335059 
L 269.438024 252.796235 
L 269.606723 252.796235 
L 269.606723 267.026824 
L 269.688905 252.796235 
L 269.789519 252.796235 
L 269.860728 281.257412 
L 270.369502 281.257412 
L 270.369502 295.488 
L 270.78398 295.488 
L 270.78398 281.257412 
L 271.079646 281.257412 
L 271.079646 267.026824 
L 271.264809 267.026824 
L 271.37491 238.565647 
L 271.816457 238.565647 
L 271.816457 252.796235 
L 272.170269 252.796235 
L 272.203197 238.565647 
L 272.270187 238.565647 
L 272.443744 238.565647 
L 272.443744 224.335059 
L 272.606465 224.335059 
L 272.619811 252.796235 
L 272.744787 252.796235 
L 272.754235 224.335059 
L 272.772841 238.565647 
L 273.45048 238.565647 
L 273.45048 252.796235 
L 273.584799 252.796235 
L 273.588818 224.335059 
L 273.592864 238.565647 
L 273.738543 238.565647 
L 273.738543 252.796235 
L 274.101493 252.796235 
L 274.151356 281.257412 
L 274.420427 281.257412 
L 274.420427 267.026824 
L 274.621499 267.026824 
L 274.621499 252.796235 
L 274.629346 267.026824 
L 274.777458 267.026824 
L 274.777458 252.796235 
L 274.856874 281.257412 
L 275.019853 281.257412 
L 275.019853 295.488 
L 275.161317 295.488 
L 275.161317 281.257412 
L 275.618705 281.257412 
L 275.618705 295.488 
L 275.86645 295.488 
L 275.933732 267.026824 
L 276.092159 267.026824 
L 276.092159 252.796235 
L 276.133764 267.026824 
L 276.326077 267.026824 
L 276.326077 281.257412 
L 276.711323 281.257412 
L 276.711323 267.026824 
L 277.028136 267.026824 
L 277.028136 252.796235 
L 277.252523 252.796235 
L 277.254115 238.565647 
L 277.254115 252.796235 
L 277.368867 252.796235 
L 277.368867 267.026824 
L 277.594708 267.026824 
L 277.594708 252.796235 
L 277.627432 267.026824 
L 277.863019 267.026824 
L 277.863019 252.796235 
L 278.104632 252.796235 
L 278.104632 267.026824 
L 278.157338 267.026824 
L 278.218211 267.026824 
L 278.244816 295.488 
L 278.562989 295.488 
L 278.562989 281.257412 
L 278.702518 281.257412 
L 278.702518 267.026824 
L 278.998723 267.026824 
L 278.998723 252.796235 
L 279.289191 252.796235 
L 279.28966 238.565647 
L 279.398156 267.026824 
L 279.420584 267.026824 
L 279.420584 281.257412 
L 279.602471 281.257412 
L 279.602471 295.488 
L 279.788667 295.488 
L 279.875133 238.565647 
L 279.935582 238.565647 
L 279.935582 252.796235 
L 280.111171 252.796235 
L 280.171556 281.257412 
L 280.364751 281.257412 
L 280.364751 267.026824 
L 280.691825 267.026824 
L 280.691825 281.257412 
L 280.814791 281.257412 
L 280.814791 267.026824 
L 280.833734 281.257412 
L 281.086597 281.257412 
L 281.086597 267.026824 
L 281.511753 267.026824 
L 281.511753 252.796235 
L 281.799337 252.796235 
L 281.799337 238.565647 
L 281.957824 238.565647 
L 281.957824 252.796235 
L 282.103872 252.796235 
L 282.13905 281.257412 
L 282.33603 281.257412 
L 282.33603 267.026824 
L 282.707106 267.026824 
L 282.707106 252.796235 
L 282.741039 267.026824 
L 282.954846 267.026824 
L 282.954846 281.257412 
L 283.274819 281.257412 
L 283.274819 267.026824 
L 283.430705 267.026824 
L 283.430705 281.257412 
L 283.585228 281.257412 
L 283.585228 267.026824 
L 283.856651 267.026824 
L 283.96391 224.335059 
L 284.005184 224.335059 
L 284.023304 238.565647 
L 284.023304 224.335059 
L 284.25139 224.335059 
L 284.25139 238.565647 
L 284.537244 238.565647 
L 284.58554 224.335059 
L 284.58554 238.565647 
L 284.917544 238.565647 
L 284.917544 224.335059 
L 285.159754 224.335059 
L 285.159754 238.565647 
L 285.363178 238.565647 
L 285.432212 224.335059 
L 285.432212 238.565647 
L 285.499226 238.565647 
L 285.547709 224.335059 
L 285.547709 238.565647 
L 285.632468 238.565647 
L 285.632468 224.335059 
L 285.915223 224.335059 
L 285.915223 210.104471 
L 286.120626 210.104471 
L 286.120626 224.335059 
L 286.14392 210.104471 
L 286.272208 210.104471 
L 286.31116 181.643294 
L 286.847253 181.643294 
L 286.847253 167.412706 
L 287.131488 167.412706 
L 287.131488 153.182118 
L 287.253478 153.182118 
L 287.253478 138.951529 
L 287.254337 153.182118 
L 287.484636 153.182118 
L 287.484636 167.412706 
L 287.608947 167.412706 
L 287.608947 153.182118 
L 288.157852 153.182118 
L 288.157852 167.412706 
L 288.37191 167.412706 
L 288.37191 153.182118 
L 288.658261 153.182118 
L 288.658261 167.412706 
L 288.920875 167.412706 
L 288.951738 181.643294 
L 288.951738 167.412706 
L 289.403799 167.412706 
L 289.403799 181.643294 
L 289.539365 181.643294 
L 289.541822 195.873882 
L 289.572246 167.412706 
L 289.892831 167.412706 
L 289.946517 153.182118 
L 289.946517 167.412706 
L 290.151848 167.412706 
L 290.151848 153.182118 
L 290.478834 153.182118 
L 290.478834 138.951529 
L 290.768836 138.951529 
L 290.85139 167.412706 
L 290.86441 153.182118 
L 291.26586 153.182118 
L 291.274372 167.412706 
L 291.274372 153.182118 
L 291.973188 153.182118 
L 291.973188 167.412706 
L 292.29541 167.412706 
L 292.29541 181.643294 
L 292.577809 181.643294 
L 292.577809 195.873882 
L 292.722661 195.873882 
L 292.722661 181.643294 
L 293.086258 181.643294 
L 293.086258 195.873882 
L 293.314597 195.873882 
L 293.34936 167.412706 
L 293.696304 167.412706 
L 293.696304 181.643294 
L 293.853409 181.643294 
L 293.853409 167.412706 
L 294.030151 167.412706 
L 294.030151 181.643294 
L 294.168724 181.643294 
L 294.203266 195.873882 
L 294.203266 181.643294 
L 294.330907 181.643294 
L 294.330907 195.873882 
L 294.516119 195.873882 
L 294.516119 181.643294 
L 294.670257 181.643294 
L 294.670257 195.873882 
L 295.265418 195.873882 
L 295.288278 210.104471 
L 295.337247 210.104471 
L 295.523453 210.104471 
L 295.523453 224.335059 
L 295.644872 224.335059 
L 295.644872 238.565647 
L 295.893527 238.565647 
L 295.893527 252.796235 
L 296.20901 252.796235 
L 296.20901 267.026824 
L 296.246992 238.565647 
L 296.713707 238.565647 
L 296.750101 210.104471 
L 296.774576 238.565647 
L 296.853451 238.565647 
L 296.94266 267.026824 
L 297.101468 267.026824 
L 297.101468 281.257412 
L 297.414673 281.257412 
L 297.414673 267.026824 
L 297.513682 281.257412 
L 297.530235 281.257412 
L 297.530235 295.488 
L 297.647223 295.488 
L 297.719787 267.026824 
L 297.764443 267.026824 
L 297.764443 281.257412 
L 297.77573 267.026824 
L 298.006163 267.026824 
L 298.006163 281.257412 
L 298.24054 281.257412 
L 298.24054 295.488 
L 299.361828 295.488 
L 299.361828 281.257412 
L 299.461777 295.488 
L 300.704298 295.488 
L 300.73086 267.026824 
L 300.856771 267.026824 
L 300.919318 295.488 
L 301.398001 295.488 
L 301.398001 281.257412 
L 301.514981 281.257412 
L 301.514981 267.026824 
L 301.789066 267.026824 
L 301.889068 238.565647 
L 302.134555 238.565647 
L 302.134555 224.335059 
L 302.35048 224.335059 
L 302.415923 252.796235 
L 302.482843 252.796235 
L 302.529421 281.257412 
L 302.585568 267.026824 
L 302.722795 267.026824 
L 302.722795 252.796235 
L 302.913786 252.796235 
L 302.913786 267.026824 
L 302.954039 238.565647 
L 303.022415 252.796235 
L 303.275954 252.796235 
L 303.275954 267.026824 
L 303.538672 267.026824 
L 303.633596 295.488 
L 304.003234 295.488 
L 304.062259 267.026824 
L 304.134852 267.026824 
L 304.134852 281.257412 
L 304.214262 267.026824 
L 304.817841 267.026824 
L 304.885996 295.488 
L 304.908013 281.257412 
L 305.493487 281.257412 
L 305.493487 267.026824 
L 306.016771 267.026824 
L 306.05618 295.488 
L 306.148557 295.488 
L 306.148557 281.257412 
L 306.23735 295.488 
L 306.382215 295.488 
L 306.382215 281.257412 
L 306.839195 281.257412 
L 306.839195 295.488 
L 307.03891 295.488 
L 307.07045 267.026824 
L 307.204367 267.026824 
L 307.277538 238.565647 
L 307.543365 238.565647 
L 307.543365 224.335059 
L 307.743524 224.335059 
L 307.854193 195.873882 
L 307.926483 195.873882 
L 307.957169 210.104471 
L 308.008618 181.643294 
L 308.047547 181.643294 
L 308.047547 167.412706 
L 308.494901 167.412706 
L 308.55027 138.951529 
L 308.693889 138.951529 
L 308.693889 153.182118 
L 309.002267 153.182118 
L 309.076878 110.490353 
L 309.346595 110.490353 
L 309.346595 96.259765 
L 309.374126 96.259765 
L 309.471499 96.259765 
L 309.471499 110.490353 
L 309.560059 96.259765 
L 309.683123 96.259765 
L 309.730594 138.951529 
L 309.739406 124.720941 
L 309.925474 124.720941 
L 309.974833 138.951529 
L 309.974833 124.720941 
L 310.560758 124.720941 
L 310.560758 110.490353 
L 310.856474 110.490353 
L 310.931837 138.951529 
L 311.127748 138.951529 
L 311.127748 124.720941 
L 311.880863 124.720941 
L 311.901707 138.951529 
L 311.905368 110.490353 
L 312.034777 110.490353 
L 312.11006 82.029176 
L 312.284677 82.029176 
L 312.284677 96.259765 
L 312.591301 96.259765 
L 312.591301 110.490353 
L 312.851931 110.490353 
L 312.851931 124.720941 
L 313.103061 124.720941 
L 313.158196 96.259765 
L 313.795234 96.259765 
L 313.842801 138.951529 
L 314.299411 138.951529 
L 314.299411 124.720941 
L 314.467639 124.720941 
L 314.528955 110.490353 
L 314.528955 124.720941 
L 314.848728 124.720941 
L 314.848728 110.490353 
L 315.00462 110.490353 
L 315.045617 124.720941 
L 315.045617 110.490353 
L 315.452984 110.490353 
L 315.452984 124.720941 
L 315.715918 124.720941 
L 315.734285 110.490353 
L 315.734285 124.720941 
L 316.130189 124.720941 
L 316.130189 138.951529 
L 316.441651 138.951529 
L 316.441651 153.182118 
L 316.627582 153.182118 
L 316.627582 167.412706 
L 317.039685 167.412706 
L 317.051051 153.182118 
L 317.110662 153.182118 
L 317.272106 153.182118 
L 317.272106 138.951529 
L 317.377486 181.643294 
L 317.434007 181.643294 
L 317.515806 167.412706 
L 317.515806 181.643294 
L 317.643719 181.643294 
L 317.643719 167.412706 
L 317.850903 167.412706 
L 317.850903 153.182118 
L 318.155576 153.182118 
L 318.155576 138.951529 
L 318.569357 138.951529 
L 318.611606 110.490353 
L 318.76543 110.490353 
L 318.76543 96.259765 
L 318.911551 96.259765 
L 318.911551 110.490353 
L 319.022932 110.490353 
L 319.022932 96.259765 
L 319.117086 124.720941 
L 319.142504 124.720941 
L 319.142504 138.951529 
L 319.274084 138.951529 
L 319.274084 124.720941 
L 319.645069 124.720941 
L 319.742276 110.490353 
L 319.742276 124.720941 
L 319.769494 124.720941 
L 319.769494 110.490353 
L 320.016785 110.490353 
L 320.016785 124.720941 
L 320.349341 124.720941 
L 320.353984 153.182118 
L 320.378717 138.951529 
L 320.532513 138.951529 
L 320.592795 167.412706 
L 320.953879 167.412706 
L 320.953879 181.643294 
L 321.338012 181.643294 
L 321.343242 167.412706 
L 321.343242 181.643294 
L 321.573492 181.643294 
L 321.573492 195.873882 
L 321.847374 195.873882 
L 321.847374 210.104471 
L 321.976384 210.104471 
L 322.014593 181.643294 
L 322.086226 210.104471 
L 322.270244 210.104471 
L 322.270244 224.335059 
L 322.539651 224.335059 
L 322.539651 210.104471 
L 322.663271 210.104471 
L 322.703457 238.565647 
L 322.753572 224.335059 
L 322.90422 224.335059 
L 322.90422 210.104471 
L 323.421316 210.104471 
L 323.421316 195.873882 
L 323.955094 195.873882 
L 323.981307 181.643294 
L 323.981307 195.873882 
L 324.872424 195.873882 
L 324.872424 181.643294 
L 324.986292 181.643294 
L 325.067294 167.412706 
L 325.067294 181.643294 
L 325.213396 181.643294 
L 325.213396 167.412706 
L 325.471442 167.412706 
L 325.582164 195.873882 
L 325.714548 195.873882 
L 325.786976 238.565647 
L 326.180148 238.565647 
L 326.180148 224.335059 
L 326.372181 224.335059 
L 326.372181 210.104471 
L 326.417864 238.565647 
L 326.726987 238.565647 
L 326.726987 252.796235 
L 326.840091 252.796235 
L 326.840091 267.026824 
L 326.963942 267.026824 
L 326.963942 281.257412 
L 327.195504 281.257412 
L 327.195504 267.026824 
L 327.290893 281.257412 
L 327.330086 281.257412 
L 327.330086 295.488 
L 327.958082 295.488 
L 327.958082 281.257412 
L 328.241987 281.257412 
L 328.241987 295.488 
L 328.537122 295.488 
L 328.537122 281.257412 
L 328.829433 281.257412 
L 328.829433 295.488 
L 329.029224 295.488 
L 329.029224 281.257412 
L 329.351287 281.257412 
L 329.351287 295.488 
L 329.415209 238.565647 
L 329.663886 238.565647 
L 329.663886 252.796235 
L 329.816251 252.796235 
L 329.886203 238.565647 
L 329.897406 267.026824 
L 329.979954 267.026824 
L 329.979954 252.796235 
L 330.663173 252.796235 
L 330.663173 238.565647 
L 330.977991 238.565647 
L 330.977991 224.335059 
L 331.217393 224.335059 
L 331.217393 210.104471 
L 331.417235 210.104471 
L 331.417235 224.335059 
L 331.655421 224.335059 
L 331.688335 252.796235 
L 331.742286 210.104471 
L 331.895926 210.104471 
L 331.972443 195.873882 
L 332.000268 224.335059 
L 332.266661 224.335059 
L 332.315631 252.796235 
L 332.327572 238.565647 
L 332.503664 238.565647 
L 332.519852 224.335059 
L 332.519852 238.565647 
L 332.825635 238.565647 
L 332.825635 252.796235 
L 333.021778 252.796235 
L 333.021778 238.565647 
L 333.204776 238.565647 
L 333.279167 267.026824 
L 333.316307 267.026824 
L 333.316307 281.257412 
L 333.468857 281.257412 
L 333.468857 267.026824 
L 333.643273 267.026824 
L 333.643273 281.257412 
L 333.711131 252.796235 
L 333.775718 252.796235 
L 333.779843 224.335059 
L 333.829551 224.335059 
L 334.037206 224.335059 
L 334.142085 195.873882 
L 334.400884 195.873882 
L 334.50436 224.335059 
L 334.514248 224.335059 
L 334.601078 252.796235 
L 334.68125 252.796235 
L 334.68125 238.565647 
L 334.839333 238.565647 
L 334.839333 252.796235 
L 335.063869 252.796235 
L 335.069184 224.335059 
L 335.358697 224.335059 
L 335.358697 210.104471 
L 335.504263 210.104471 
L 335.504263 224.335059 
L 335.715332 224.335059 
L 335.79496 195.873882 
L 335.850866 195.873882 
L 335.938188 181.643294 
L 335.939746 210.104471 
L 336.006029 210.104471 
L 336.006029 195.873882 
L 336.255222 195.873882 
L 336.255222 210.104471 
L 336.440494 210.104471 
L 336.440494 195.873882 
L 336.57477 195.873882 
L 336.62293 181.643294 
L 336.649421 181.643294 
L 336.959421 181.643294 
L 336.959421 195.873882 
L 337.096002 195.873882 
L 337.096002 181.643294 
L 337.87408 181.643294 
L 337.901409 195.873882 
L 337.901409 181.643294 
L 338.457502 181.643294 
L 338.457502 195.873882 
L 338.931114 195.873882 
L 338.931114 210.104471 
L 339.164154 210.104471 
L 339.22808 181.643294 
L 339.332578 181.643294 
L 339.332578 195.873882 
L 339.703092 195.873882 
L 339.765751 210.104471 
L 339.774688 210.104471 
L 339.893836 210.104471 
L 339.910793 238.565647 
L 340.058854 238.565647 
L 340.075134 210.104471 
L 340.248692 210.104471 
L 340.248692 195.873882 
L 340.587214 195.873882 
L 340.591149 167.412706 
L 340.742109 167.412706 
L 340.742109 181.643294 
L 340.91264 181.643294 
L 341.022276 210.104471 
L 341.073768 210.104471 
L 341.145274 181.643294 
L 341.194613 181.643294 
L 341.194613 195.873882 
L 341.464339 195.873882 
L 341.536117 167.412706 
L 341.777132 167.412706 
L 341.824722 181.643294 
L 341.824722 167.412706 
L 341.891128 167.412706 
L 341.891128 181.643294 
L 342.014288 181.643294 
L 342.072198 153.182118 
L 342.344234 153.182118 
L 342.419903 181.643294 
L 342.466153 181.643294 
L 342.549182 167.412706 
L 342.549182 181.643294 
L 342.592972 181.643294 
L 342.664807 224.335059 
L 342.722332 224.335059 
L 342.722332 238.565647 
L 342.873132 238.565647 
L 342.873132 224.335059 
L 343.068836 224.335059 
L 343.068836 238.565647 
L 343.28486 238.565647 
L 343.338074 181.643294 
L 343.80449 181.643294 
L 343.80449 195.873882 
L 344.063348 195.873882 
L 344.141102 210.104471 
L 344.156122 181.643294 
L 344.362805 181.643294 
L 344.395716 153.182118 
L 344.537862 153.182118 
L 344.537862 138.951529 
L 344.548837 153.182118 
L 344.719918 153.182118 
L 344.719918 138.951529 
L 344.950036 138.951529 
L 345.02099 110.490353 
L 345.163107 110.490353 
L 345.163107 96.259765 
L 345.36918 96.259765 
L 345.36918 82.029176 
L 345.48146 82.029176 
L 345.48146 96.259765 
L 345.641588 96.259765 
L 345.641588 110.490353 
L 345.729982 110.490353 
L 346.200457 110.490353 
L 346.200457 96.259765 
L 346.356644 96.259765 
L 346.356644 82.029176 
L 346.534218 82.029176 
L 346.534218 96.259765 
L 347.032198 96.259765 
L 347.090112 82.029176 
L 347.090112 96.259765 
L 347.352865 96.259765 
L 347.390373 67.798588 
L 347.725978 67.798588 
L 347.786793 53.568 
L 347.786793 67.798588 
L 347.953568 67.798588 
L 348.00631 96.259765 
L 348.117339 96.259765 
L 348.139957 124.720941 
L 348.295978 124.720941 
L 348.2985 110.490353 
L 348.2985 124.720941 
L 348.547042 124.720941 
L 348.547042 138.951529 
L 348.698525 138.951529 
L 348.765642 110.490353 
L 349.086944 110.490353 
L 349.086944 96.259765 
L 349.096906 110.490353 
L 349.228236 110.490353 
L 349.228236 96.259765 
L 349.278716 110.490353 
L 349.45305 110.490353 
L 349.45305 96.259765 
L 349.715723 96.259765 
L 349.715723 82.029176 
L 350.099645 82.029176 
L 350.099645 67.798588 
L 350.212611 67.798588 
L 350.212611 82.029176 
L 350.785713 82.029176 
L 350.894396 53.568 
L 351.008195 53.568 
L 351.015189 82.029176 
L 351.379393 82.029176 
L 351.440265 96.259765 
L 351.440265 82.029176 
L 351.552114 82.029176 
L 351.552114 96.259765 
L 351.742985 96.259765 
L 351.752615 82.029176 
L 351.826651 96.259765 
L 351.941686 96.259765 
L 351.974778 124.720941 
L 352.141012 124.720941 
L 352.141012 138.951529 
L 352.283334 138.951529 
L 352.372885 110.490353 
L 352.586597 110.490353 
L 352.586597 96.259765 
L 353.219809 96.259765 
L 353.234072 67.798588 
L 353.296991 82.029176 
L 353.403766 82.029176 
L 353.403766 67.798588 
L 353.515304 67.798588 
L 353.515304 82.029176 
L 354.006834 82.029176 
L 354.006834 96.259765 
L 354.204963 96.259765 
L 354.227158 82.029176 
L 354.227158 96.259765 
L 354.359566 96.259765 
L 354.457216 138.951529 
L 354.489681 138.951529 
L 354.489681 124.720941 
L 354.847162 124.720941 
L 354.909555 110.490353 
L 354.909555 124.720941 
L 355.015789 124.720941 
L 355.015789 138.951529 
L 355.201435 138.951529 
L 355.201435 153.182118 
L 355.310662 138.951529 
L 355.717327 138.951529 
L 355.717327 153.182118 
L 355.775603 138.951529 
L 355.866985 138.951529 
L 355.880285 167.412706 
L 356.269146 167.412706 
L 356.318941 195.873882 
L 356.422752 195.873882 
L 356.480069 210.104471 
L 356.502847 181.643294 
L 356.512191 195.873882 
L 356.858805 195.873882 
L 356.858805 210.104471 
L 356.977437 210.104471 
L 356.977437 195.873882 
L 357.120445 195.873882 
L 357.120445 181.643294 
L 357.343151 181.643294 
L 357.38853 210.104471 
L 357.396637 195.873882 
L 357.80867 195.873882 
L 357.882171 181.643294 
L 357.882171 195.873882 
L 358.045695 195.873882 
L 358.045695 181.643294 
L 358.180878 181.643294 
L 358.263305 167.412706 
L 358.263305 181.643294 
L 358.429873 181.643294 
L 358.502803 167.412706 
L 358.502803 181.643294 
L 358.64548 181.643294 
L 358.64548 167.412706 
L 359.008607 167.412706 
L 359.008607 181.643294 
L 359.20155 181.643294 
L 359.20155 167.412706 
L 359.360387 167.412706 
L 359.378813 195.873882 
L 359.63309 195.873882 
L 359.63309 210.104471 
L 359.865768 210.104471 
L 359.865768 224.335059 
L 359.952271 195.873882 
L 360.253496 195.873882 
L 360.253496 210.104471 
L 360.412351 210.104471 
L 360.412351 224.335059 
L 360.425591 210.104471 
L 360.539336 210.104471 
L 360.642003 238.565647 
L 360.940398 238.565647 
L 360.989745 252.796235 
L 360.989745 238.565647 
L 361.150059 238.565647 
L 361.154397 267.026824 
L 361.236113 238.565647 
L 361.634293 238.565647 
L 361.634293 252.796235 
L 361.95955 252.796235 
L 361.95955 267.026824 
L 362.194751 267.026824 
L 362.194751 252.796235 
L 362.286302 252.796235 
L 362.336691 252.796235 
L 362.336691 267.026824 
L 362.701786 267.026824 
L 362.701786 281.257412 
L 362.8662 281.257412 
L 362.8662 267.026824 
L 363.064839 267.026824 
L 363.064839 252.796235 
L 363.193995 252.796235 
L 363.193995 267.026824 
L 363.214188 252.796235 
L 363.329271 252.796235 
L 363.329271 267.026824 
L 363.421506 238.565647 
L 363.500358 238.565647 
L 363.500358 224.335059 
L 363.651861 224.335059 
L 363.651861 210.104471 
L 363.853038 210.104471 
L 363.853038 224.335059 
L 364.534978 224.335059 
L 364.535555 252.796235 
L 364.850061 252.796235 
L 364.897156 224.335059 
L 365.199074 224.335059 
L 365.211716 252.796235 
L 365.335307 252.796235 
L 365.335307 238.565647 
L 365.551685 238.565647 
L 365.551685 252.796235 
L 365.755817 252.796235 
L 365.755817 238.565647 
L 365.982459 238.565647 
L 366.037478 224.335059 
L 366.064383 238.565647 
L 366.32751 238.565647 
L 366.32751 224.335059 
L 366.685717 224.335059 
L 366.685717 238.565647 
L 366.91413 238.565647 
L 366.91413 252.796235 
L 367.044813 252.796235 
L 367.044813 238.565647 
L 367.28037 238.565647 
L 367.355308 267.026824 
L 367.736107 267.026824 
L 367.770415 238.565647 
L 367.918066 238.565647 
L 367.918066 224.335059 
L 368.046643 224.335059 
L 368.046643 238.565647 
L 368.516611 238.565647 
L 368.516611 224.335059 
L 368.767844 224.335059 
L 368.767844 210.104471 
L 369.078293 210.104471 
L 369.078293 195.873882 
L 369.221073 195.873882 
L 369.266919 167.412706 
L 369.51892 167.412706 
L 369.559829 153.182118 
L 369.582684 181.643294 
L 369.997553 181.643294 
L 369.997553 167.412706 
L 370.161997 167.412706 
L 370.161997 153.182118 
L 370.430123 153.182118 
L 370.430123 138.951529 
L 370.592881 138.951529 
L 370.596176 124.720941 
L 370.654764 167.412706 
L 371.198229 167.412706 
L 371.198229 153.182118 
L 371.339142 153.182118 
L 371.364491 181.643294 
L 371.404472 167.412706 
L 371.476268 167.412706 
L 371.476268 153.182118 
L 371.597452 153.182118 
L 371.597452 138.951529 
L 371.961066 138.951529 
L 371.961066 124.720941 
L 372.350304 124.720941 
L 372.380516 96.259765 
L 372.420337 124.720941 
L 372.520856 124.720941 
L 372.520856 138.951529 
L 373.157362 138.951529 
L 373.157362 153.182118 
L 373.372996 153.182118 
L 373.478826 195.873882 
L 373.65074 195.873882 
L 373.65074 181.643294 
L 374.114096 181.643294 
L 374.191826 210.104471 
L 374.294641 210.104471 
L 374.294641 195.873882 
L 374.41402 195.873882 
L 374.41402 181.643294 
L 374.872531 181.643294 
L 374.933083 167.412706 
L 374.933083 181.643294 
L 375.01257 181.643294 
L 375.020666 195.873882 
L 375.020666 181.643294 
L 375.20369 181.643294 
L 375.31398 167.412706 
L 375.31398 181.643294 
L 375.428093 181.643294 
L 375.469566 195.873882 
L 375.469566 181.643294 
L 375.650237 181.643294 
L 375.749384 195.873882 
L 375.758263 195.873882 
L 375.922474 195.873882 
L 375.922474 210.104471 
L 376.242369 210.104471 
L 376.242369 224.335059 
L 376.456729 224.335059 
L 376.456729 238.565647 
L 376.597983 238.565647 
L 376.676199 252.796235 
L 376.688559 224.335059 
L 376.810014 224.335059 
L 376.836185 195.873882 
L 377.101252 195.873882 
L 377.101252 210.104471 
L 377.2255 210.104471 
L 377.334171 238.565647 
L 377.455095 238.565647 
L 377.455095 252.796235 
L 377.636089 252.796235 
L 377.636089 238.565647 
L 377.913956 238.565647 
L 377.913956 224.335059 
L 378.093097 224.335059 
L 378.093097 210.104471 
L 378.190448 224.335059 
L 378.301888 224.335059 
L 378.301888 210.104471 
L 378.321529 224.335059 
L 378.468078 224.335059 
L 378.546417 252.796235 
L 378.65738 252.796235 
L 378.758605 281.257412 
L 378.804923 281.257412 
L 378.804923 295.488 
L 378.907568 295.488 
L 379.138441 295.488 
L 379.211093 267.026824 
L 379.464007 267.026824 
L 379.464007 281.257412 
L 379.596885 281.257412 
L 379.596885 295.488 
L 379.618721 281.257412 
L 379.781432 281.257412 
L 379.781432 267.026824 
L 379.947794 267.026824 
L 379.966463 238.565647 
L 380.101495 238.565647 
L 380.101495 224.335059 
L 380.320496 224.335059 
L 380.320496 210.104471 
L 380.61329 210.104471 
L 380.61329 195.873882 
L 380.917715 195.873882 
L 380.917715 181.643294 
L 381.331513 181.643294 
L 381.331513 167.412706 
L 381.482261 167.412706 
L 381.482261 153.182118 
L 382.019441 153.182118 
L 382.019441 167.412706 
L 382.332088 167.412706 
L 382.332088 181.643294 
L 382.678719 181.643294 
L 382.71394 210.104471 
L 382.798299 210.104471 
L 382.798299 224.335059 
L 382.90296 210.104471 
L 382.987656 210.104471 
L 382.99966 195.873882 
L 382.99966 210.104471 
L 383.297661 210.104471 
L 383.297661 224.335059 
L 383.438524 224.335059 
L 383.499113 238.565647 
L 383.499113 224.335059 
L 383.586539 224.335059 
L 383.619375 252.796235 
L 383.749329 252.796235 
L 383.785937 281.257412 
L 383.808852 267.026824 
L 383.896594 267.026824 
L 383.997593 238.565647 
L 384.145418 238.565647 
L 384.251553 224.335059 
L 384.251553 238.565647 
L 384.33192 238.565647 
L 384.3655 224.335059 
L 384.3655 238.565647 
L 384.781275 238.565647 
L 384.809223 224.335059 
L 384.809223 238.565647 
L 384.894537 238.565647 
L 384.894537 252.796235 
L 385.050669 252.796235 
L 385.050669 238.565647 
L 385.700201 238.565647 
L 385.700201 224.335059 
L 385.988561 224.335059 
L 386.084084 195.873882 
L 386.37246 195.873882 
L 386.374408 181.643294 
L 386.374408 195.873882 
L 386.672556 195.873882 
L 386.672556 181.643294 
L 387.04478 181.643294 
L 387.04478 167.412706 
L 387.187675 167.412706 
L 387.187675 181.643294 
L 387.648514 181.643294 
L 387.667251 153.182118 
L 387.916312 153.182118 
L 387.936493 124.720941 
L 388.11692 124.720941 
L 388.138556 96.259765 
L 388.395312 96.259765 
L 388.466971 67.798588 
L 388.829437 67.798588 
L 388.829437 82.029176 
L 388.966314 82.029176 
L 389.037892 67.798588 
L 389.037892 82.029176 
L 389.178456 82.029176 
L 389.178456 96.259765 
L 389.304808 96.259765 
L 389.304808 110.490353 
L 389.374096 82.029176 
L 389.579972 82.029176 
L 389.587288 96.259765 
L 389.61095 67.798588 
L 389.740257 67.798588 
L 389.740257 82.029176 
L 390.076198 82.029176 
L 390.125628 124.720941 
L 390.312181 124.720941 
L 390.312181 110.490353 
L 390.935824 110.490353 
L 390.935824 124.720941 
L 391.144529 124.720941 
L 391.144529 138.951529 
L 391.392703 138.951529 
L 391.392703 153.182118 
L 391.760399 153.182118 
L 391.820981 167.412706 
L 391.820981 153.182118 
L 391.967306 153.182118 
L 391.967306 167.412706 
L 392.132363 167.412706 
L 392.132363 153.182118 
L 392.330957 153.182118 
L 392.330957 167.412706 
L 392.538994 167.412706 
L 392.538994 181.643294 
L 392.658486 181.643294 
L 392.658486 195.873882 
L 392.784103 195.873882 
L 392.784103 181.643294 
L 393.069874 181.643294 
L 393.13338 153.182118 
L 393.155387 167.412706 
L 393.204612 167.412706 
L 393.204612 181.643294 
L 393.353961 181.643294 
L 393.353961 167.412706 
L 393.603214 167.412706 
L 393.661698 181.643294 
L 393.68225 181.643294 
L 393.78134 181.643294 
L 393.78134 167.412706 
L 394.073274 167.412706 
L 394.073274 181.643294 
L 394.726635 181.643294 
L 394.790933 167.412706 
L 394.790933 181.643294 
L 394.972795 181.643294 
L 395.076166 167.412706 
L 395.076166 181.643294 
L 395.259369 181.643294 
L 395.328884 224.335059 
L 395.36452 210.104471 
L 395.375196 210.104471 
L 395.469335 181.643294 
L 395.720667 181.643294 
L 395.720667 167.412706 
L 395.919157 167.412706 
L 395.919157 181.643294 
L 396.038241 181.643294 
L 396.038241 195.873882 
L 396.225954 195.873882 
L 396.326613 224.335059 
L 396.737763 224.335059 
L 396.83576 195.873882 
L 396.85197 195.873882 
L 396.873203 167.412706 
L 396.962071 181.643294 
L 397.085153 181.643294 
L 397.085153 195.873882 
L 397.215463 195.873882 
L 397.255294 210.104471 
L 397.255294 195.873882 
L 397.533513 195.873882 
L 397.565163 167.412706 
L 397.682898 167.412706 
L 397.725375 153.182118 
L 397.728335 153.182118 
L 398.059797 153.182118 
L 398.059797 167.412706 
L 398.250333 167.412706 
L 398.30657 138.951529 
L 398.459257 138.951529 
L 398.487273 124.720941 
L 398.487273 138.951529 
" clip-path="url(#p0896ce4b31)" style="fill: none; stroke: #1f77b4; stroke-width: 2; stroke-linecap: square"/>
   </g>
   <g id="patch_3">
    <path d="M 57.6 307.584 
L 57.6 41.472 
" style="fill: none; stroke: #000000; stroke-width: 0.8; stroke-linejoin: miter; stroke-linecap: square"/>
   </g>
   <g id="patch_4">
    <path d="M 414.72 307.584 
L 414.72 41.472 
" style="fill: none; stroke: #000000; stroke-width: 0.8; stroke-linejoin: miter; stroke-linecap: square"/>
   </g>
   <g id="patch_5">
    <path d="M 57.6 307.584 
L 414.72 307.584 
" style="fill: none; stroke: #000000; stroke-width: 0.8; stroke-linejoin: miter; stroke-linecap: square"/>
   </g>
   <g id="patch_6">
    <path d="M 57.6 41.472 
L 414.72 41.472 
" style="fill: none; stroke: #000000; stroke-width: 0.8; stroke-linejoin: miter; stroke-linecap: square"/>
   </g>
   <g id="text_17">
    <!-- People in System Over Time -->
    <g transform="translate(151.644375 35.472) scale(0.12 -0.12)">
     <defs>
      <path id="DejaVuSans-6e" d="M 3513 2113 
L 3513 0 
L 2938 0 
L 2938 2094 
Q 2938 2591 2744 2837 
Q 2550 3084 2163 3084 
Q 1697 3084 1428 2787 
Q 1159 2491 1159 1978 
L 1159 0 
L 581 0 
L 581 3500 
L 1159 3500 
L 1159 2956 
Q 1366 3272 1645 3428 
Q 1925 3584 2291 3584 
Q 2894 3584 3203 3211 
Q 3513 2838 3513 2113 
z
" transform="scale(0.015625)"/>
      <path id="DejaVuSans-53" d="M 3425 4513 
L 3425 3897 
Q 3066 4069 2747 4153 
Q 2428 4238 2131 4238 
Q 1616 4238 1336 4038 
Q 1056 3838 1056 3469 
Q 1056 3159 1242 3001 
Q 1428 2844 1947 2747 
L 2328 2669 
Q 3034 2534 3370 2195 
Q 3706 1856 3706 1288 
Q 3706 609 3251 259 
Q 2797 -91 1919 -91 
Q 1588 -91 1214 -16 
Q 841 59 441 206 
L 441 856 
Q 825 641 1194 531 
Q 1563 422 1919 422 
Q 2459 422 2753 634 
Q 3047 847 3047 1241 
Q 3047 1584 2836 1778 
Q 2625 1972 2144 2069 
L 1759 2144 
Q 1053 2284 737 2584 
Q 422 2884 422 3419 
Q 422 4038 858 4394 
Q 1294 4750 2059 4750 
Q 2388 4750 2728 4690 
Q 3069 4631 3425 4513 
z
" transform="scale(0.015625)"/>
      <path id="DejaVuSans-79" d="M 2059 -325 
Q 1816 -950 1584 -1140 
Q 1353 -1331 966 -1331 
L 506 -1331 
L 506 -850 
L 844 -850 
Q 1081 -850 1212 -737 
Q 1344 -625 1503 -206 
L 1606 56 
L 191 3500 
L 800 3500 
L 1894 763 
L 2988 3500 
L 3597 3500 
L 2059 -325 
z
" transform="scale(0.015625)"/>
      <path id="DejaVuSans-73" d="M 2834 3397 
L 2834 2853 
Q 2591 2978 2328 3040 
Q 2066 3103 1784 3103 
Q 1356 3103 1142 2972 
Q 928 2841 928 2578 
Q 928 2378 1081 2264 
Q 1234 2150 1697 2047 
L 1894 2003 
Q 2506 1872 2764 1633 
Q 3022 1394 3022 966 
Q 3022 478 2636 193 
Q 2250 -91 1575 -91 
Q 1294 -91 989 -36 
Q 684 19 347 128 
L 347 722 
Q 666 556 975 473 
Q 1284 391 1588 391 
Q 1994 391 2212 530 
Q 2431 669 2431 922 
Q 2431 1156 2273 1281 
Q 2116 1406 1581 1522 
L 1381 1569 
Q 847 1681 609 1914 
Q 372 2147 372 2553 
Q 372 3047 722 3315 
Q 1072 3584 1716 3584 
Q 2034 3584 2315 3537 
Q 2597 3491 2834 3397 
z
" transform="scale(0.015625)"/>
      <path id="DejaVuSans-74" d="M 1172 4494 
L 1172 3500 
L 2356 3500 
L 2356 3053 
L 1172 3053 
L 1172 1153 
Q 1172 725 1289 603 
Q 1406 481 1766 481 
L 2356 481 
L 2356 0 
L 1766 0 
Q 1100 0 847 248 
Q 594 497 594 1153 
L 594 3053 
L 172 3053 
L 172 3500 
L 594 3500 
L 594 4494 
L 1172 4494 
z
" transform="scale(0.015625)"/>
      <path id="DejaVuSans-4f" d="M 2522 4238 
Q 1834 4238 1429 3725 
Q 1025 3213 1025 2328 
Q 1025 1447 1429 934 
Q 1834 422 2522 422 
Q 3209 422 3611 934 
Q 4013 1447 4013 2328 
Q 4013 3213 3611 3725 
Q 3209 4238 2522 4238 
z
M 2522 4750 
Q 3503 4750 4090 4092 
Q 4678 3434 4678 2328 
Q 4678 1225 4090 567 
Q 3503 -91 2522 -91 
Q 1538 -91 948 565 
Q 359 1222 359 2328 
Q 359 3434 948 4092 
Q 1538 4750 2522 4750 
z
" transform="scale(0.015625)"/>
      <path id="DejaVuSans-76" d="M 191 3500 
L 800 3500 
L 1894 563 
L 2988 3500 
L 3597 3500 
L 2284 0 
L 1503 0 
L 191 3500 
z
" transform="scale(0.015625)"/>
     </defs>
     <use xlink:href="#DejaVuSans-50"/>
     <use xlink:href="#DejaVuSans-65" x="56.677734"/>
     <use xlink:href="#DejaVuSans-6f" x="118.201172"/>
     <use xlink:href="#DejaVuSans-70" x="179.382812"/>
     <use xlink:href="#DejaVuSans-6c" x="242.859375"/>
     <use xlink:href="#DejaVuSans-65" x="270.642578"/>
     <use xlink:href="#DejaVuSans-20" x="332.166016"/>
     <use xlink:href="#DejaVuSans-69" x="363.953125"/>
     <use xlink:href="#DejaVuSans-6e" x="391.736328"/>
     <use xlink:href="#DejaVuSans-20" x="455.115234"/>
     <use xlink:href="#DejaVuSans-53" x="486.902344"/>
     <use xlink:href="#DejaVuSans-79" x="550.378906"/>
     <use xlink:href="#DejaVuSans-73" x="609.558594"/>
     <use xlink:href="#DejaVuSans-74" x="661.658203"/>
     <use xlink:href="#DejaVuSans-65" x="700.867188"/>
     <use xlink:href="#DejaVuSans-6d" x="762.390625"/>
     <use xlink:href="#DejaVuSans-20" x="859.802734"/>
     <use xlink:href="#DejaVuSans-4f" x="891.589844"/>
     <use xlink:href="#DejaVuSans-76" x="970.300781"/>
     <use xlink:href="#DejaVuSans-65" x="1029.480469"/>
     <use xlink:href="#DejaVuSans-72" x="1091.003906"/>
     <use xlink:href="#DejaVuSans-20" x="1132.117188"/>
     <use xlink:href="#DejaVuSans-54" x="1163.904297"/>
     <use xlink:href="#DejaVuSans-69" x="1221.863281"/>
     <use xlink:href="#DejaVuSans-6d" x="1249.646484"/>
     <use xlink:href="#DejaVuSans-65" x="1347.058594"/>
    </g>
   </g>
   <g id="legend_1">
    <g id="patch_7">
     <path d="M 177.169375 64.150125 
L 295.150625 64.150125 
Q 297.150625 64.150125 297.150625 62.150125 
L 297.150625 48.472 
Q 297.150625 46.472 295.150625 46.472 
L 177.169375 46.472 
Q 175.169375 46.472 175.169375 48.472 
L 175.169375 62.150125 
Q 175.169375 64.150125 177.169375 64.150125 
z
" style="fill: #ffffff; opacity: 0.8; stroke: #cccccc; stroke-linejoin: miter"/>
    </g>
    <g id="line2d_30">
     <path d="M 179.169375 54.570438 
L 189.169375 54.570438 
L 189.169375 54.570438 
L 199.169375 54.570438 
L 199.169375 54.570438 
" style="fill: none; stroke: #1f77b4; stroke-width: 2; stroke-linecap: square"/>
    </g>
    <g id="text_18">
     <!-- People in System -->
     <g transform="translate(207.169375 58.070438) scale(0.1 -0.1)">
      <use xlink:href="#DejaVuSans-50"/>
      <use xlink:href="#DejaVuSans-65" x="56.677734"/>
      <use xlink:href="#DejaVuSans-6f" x="118.201172"/>
      <use xlink:href="#DejaVuSans-70" x="179.382812"/>
      <use xlink:href="#DejaVuSans-6c" x="242.859375"/>
      <use xlink:href="#DejaVuSans-65" x="270.642578"/>
      <use xlink:href="#DejaVuSans-20" x="332.166016"/>
      <use xlink:href="#DejaVuSans-69" x="363.953125"/>
      <use xlink:href="#DejaVuSans-6e" x="391.736328"/>
      <use xlink:href="#DejaVuSans-20" x="455.115234"/>
      <use xlink:href="#DejaVuSans-53" x="486.902344"/>
      <use xlink:href="#DejaVuSans-79" x="550.378906"/>
      <use xlink:href="#DejaVuSans-73" x="609.558594"/>
      <use xlink:href="#DejaVuSans-74" x="661.658203"/>
      <use xlink:href="#DejaVuSans-65" x="700.867188"/>
      <use xlink:href="#DejaVuSans-6d" x="762.390625"/>
     </g>
    </g>
   </g>
  </g>
 </g>
 <defs>
  <clipPath id="p0896ce4b31">
   <rect x="57.6" y="41.472" width="357.12" height="266.112"/>
  </clipPath>
 </defs>
</svg>
